{"glyphs":{"0":{"ha":833,"x_min":53,"x_max":897,"o":"m 225 932 q 292 1011 246 972 q 394 1076 338 1050 q 631 1090 526 1138 q 691 1057 686 1065 q 694 1039 696 1049 q 694 1010 693 1029 q 872 939 818 1058 q 897 647 919 832 q 804 332 874 463 q 642 58 753 186 q 562 -20 599 7 q 510 -44 525 -47 q 460 -56 482 -50 q 407 -64 429 -64 q 402 -68 404 -67 q 399 -72 400 -69 l 357 -85 q 321 -116 354 -107 q 245 -119 288 -125 q 160 -95 203 -114 q 96 -42 117 -76 q 53 78 63 33 q 58 456 25 225 q 147 769 83 625 q 225 932 179 844 m 485 775 q 347 333 382 569 q 343 181 336 251 l 346 181 l 347 182 q 569 664 494 404 q 592 807 594 754 q 574 875 590 860 q 567 869 568 869 q 565 872 567 869 q 550 878 560 879 q 514 824 531 851 l 485 775 z "},"1":{"ha":556,"x_min":13,"x_max":607,"o":"m 56 752 q 52 766 56 752 q 63 804 49 779 q 112 855 76 829 q 176 885 147 881 l 178 886 q 191 893 185 889 q 204 901 197 897 q 310 1013 263 951 q 311 1015 311 1014 q 314 1019 311 1017 q 383 1085 333 1064 q 479 1105 433 1107 q 562 1078 525 1103 q 607 1004 599 1053 q 569 910 601 965 q 592 867 578 892 q 597 818 606 843 q 524 671 561 744 q 464 542 488 597 q 422 441 440 486 q 383 350 403 396 q 287 78 317 183 q 225 -92 257 -26 l 225 -96 l 224 -96 q 176 -142 211 -128 q 103 -153 140 -157 q 38 -129 65 -150 q 13 -70 10 -108 q 24 3 17 -32 q 49 133 32 39 q 176 669 82 324 q 99 700 136 675 q 56 752 63 725 z "},"2":{"ha":757,"x_min":-22,"x_max":860,"o":"m 444 753 q 328 664 429 693 q 164 669 236 639 q 116 714 131 685 q 119 789 101 743 q 269 1000 185 914 q 328 1049 299 1031 q 427 1099 367 1079 q 553 1121 488 1119 q 790 1038 704 1124 q 860 861 869 969 q 657 489 847 724 q 476 301 578 392 q 282 122 374 210 q 251 160 243 144 q 296 186 260 176 q 386 199 332 196 q 493 200 440 203 q 640 164 619 193 q 663 122 658 153 q 660 56 668 92 q 588 -68 640 -26 q 394 -124 551 -104 q 117 -128 238 -143 q 24 -101 58 -119 q -1 -58 -11 -83 q -1 -18 8 -32 q -22 11 -11 -4 q -19 106 -49 51 q 57 214 24 178 q 126 292 90 250 q 208 382 161 333 q 300 478 254 431 q 475 685 403 586 q 526 775 508 733 q 542 868 544 817 q 511 838 525 850 q 486 814 497 826 q 444 753 457 786 z "},"3":{"ha":829,"x_min":-3,"x_max":857,"o":"m 264 392 q 217 461 210 408 q 282 565 225 514 q 347 628 306 592 q 428 703 388 664 q 547 857 532 801 q 442 826 485 840 q 368 805 399 811 q 316 803 338 799 q 280 822 294 807 q 258 860 265 838 q 251 906 251 882 q 303 975 251 963 q 324 988 317 978 q 339 1008 332 997 q 389 1046 360 1040 q 467 1075 424 1058 q 558 1104 511 1092 q 806 1054 714 1146 q 857 875 871 989 q 817 743 850 817 q 751 664 786 694 q 688 613 717 633 q 625 565 660 592 q 736 510 699 557 q 781 397 774 464 q 699 100 793 261 q 239 -110 592 -78 q 76 -89 142 -117 q 0 -11 11 -61 q -2 58 -12 22 q 31 119 8 93 q 85 158 54 146 q 144 154 115 169 q 251 149 224 144 q 385 194 300 154 q 443 237 413 208 q 491 295 474 265 q 504 347 508 325 q 467 371 500 369 q 382 372 433 372 q 264 392 331 372 z "},"4":{"ha":817,"x_min":-26,"x_max":818,"o":"m 769 393 q 694 375 764 378 l 696 375 q 683 367 718 375 q 632 360 653 360 q 572 143 585 186 q 552 70 560 100 q 531 13 544 40 l 517 -17 q 518 -28 517 -24 q 469 -116 503 -85 q 394 -153 435 -147 q 315 -137 354 -158 q 249 -69 275 -117 l 258 -3 q 235 8 249 6 q 211 14 222 11 q 182 44 182 21 q 208 155 197 101 q 250 254 219 208 l 267 300 l 176 293 q 75 303 104 288 q 22 348 46 319 q -16 403 -3 376 q -25 458 -29 429 q 49 600 -19 511 q 168 750 118 689 q 271 865 218 811 q 524 1088 378 975 q 647 1126 571 1126 q 732 1111 707 1124 q 793 1040 781 1089 l 793 1029 q 817 944 836 996 q 776 864 806 908 q 742 800 747 819 l 713 689 q 701 641 706 663 q 691 598 696 619 q 681 555 686 576 q 669 507 675 533 l 694 508 q 719 508 707 508 q 740 517 729 513 q 763 525 751 522 q 801 513 789 529 q 815 474 814 496 q 811 435 817 453 q 794 405 806 417 q 769 393 782 393 m 396 683 q 199 489 224 519 q 177 451 175 458 q 198 446 179 443 q 247 458 217 449 q 315 478 278 468 q 344 553 321 496 q 396 683 392 665 m 507 -47 q 510 -35 508 -40 q 507 -47 500 -60 z "},"5":{"ha":838,"x_min":-26,"x_max":846,"o":"m 369 1050 q 393 1051 369 1050 q 465 1056 418 1051 q 564 1066 513 1061 q 665 1075 615 1071 q 756 1078 715 1079 q 846 1047 846 1076 q 797 881 881 938 q 688 847 764 858 q 581 839 611 836 q 513 844 538 844 q 458 760 494 814 q 388 654 422 707 l 361 594 q 492 642 386 631 q 660 626 594 653 q 803 443 790 567 q 763 232 810 364 q 642 51 726 132 q 478 -57 568 -19 q 83 -68 299 -133 q 17 -31 43 -57 q -19 25 -8 -6 q -26 87 -31 56 q 0 140 -22 118 q 156 169 50 193 q 294 162 254 149 q 363 201 335 175 q 406 256 390 228 q 429 301 422 285 q 439 333 436 317 q 421 389 446 378 q 369 389 406 394 q 289 376 333 383 q 199 364 244 369 q 119 364 153 358 q 74 456 44 376 q 75 454 72 460 q 78 453 78 449 q 40 531 40 476 q 95 656 63 594 q 151 760 128 718 q 187 827 174 803 q 213 878 200 851 q 206 880 206 875 q 212 893 207 885 q 223 912 217 901 q 233 931 229 922 q 275 1024 215 990 q 369 1050 319 1049 m 224 894 q 235 914 231 906 q 234 919 240 922 q 226 909 228 917 q 224 894 225 901 m 689 1047 q 724 1049 721 1044 q 689 1047 726 1053 m 331 414 q 333 414 325 415 l 331 414 z "},"6":{"ha":808,"x_min":13,"x_max":810,"o":"m 613 1094 q 717 1090 661 1111 q 757 1039 771 1071 q 757 1014 750 1024 q 775 995 764 1004 q 797 978 786 986 q 808 961 807 971 q 751 901 814 936 q 693 876 725 893 q 625 840 661 858 q 547 785 589 822 q 467 706 504 749 q 342 515 399 624 q 430 569 379 550 q 525 585 481 588 q 610 560 569 583 q 681 497 651 536 q 732 300 749 408 q 677 115 715 192 q 583 -10 639 39 q 299 -101 476 -101 q 35 36 104 -90 q 13 361 -31 156 q 213 807 76 632 q 613 1094 361 999 m 444 369 q 311 213 349 322 q 296 147 299 179 q 307 135 301 138 q 393 164 350 104 q 443 272 432 219 q 454 346 454 324 q 444 369 454 368 z "},"7":{"ha":761,"x_min":4,"x_max":906,"o":"m 475 804 q 329 808 401 808 q 217 811 257 808 q 141 819 172 813 q 101 859 110 826 q 107 928 93 892 q 155 996 121 965 q 251 1031 189 1026 q 372 1042 314 1035 q 478 1058 431 1050 q 567 1073 526 1065 q 642 1085 608 1081 q 705 1095 675 1090 q 760 1097 735 1100 q 832 1032 817 1090 l 824 999 q 906 931 886 976 q 878 818 928 878 q 607 436 765 696 q 474 220 542 331 q 364 50 407 110 q 276 -65 314 -21 q 272 -68 275 -65 q 267 -76 272 -71 q 258 -88 263 -82 q 254 -92 254 -94 q 181 -128 221 -124 q 92 -126 140 -133 q 26 -90 49 -117 q 5 -41 4 -62 q 17 -1 6 -19 q 44 37 28 18 q 75 78 61 56 q 200 307 156 211 q 281 481 244 403 q 447 768 371 672 l 475 804 z "},"8":{"ha":914,"x_min":10,"x_max":924,"o":"m 610 1124 q 697 1117 671 1124 q 783 1036 757 1099 q 908 969 865 1051 q 924 793 950 889 q 761 544 889 653 q 679 483 722 513 q 761 369 731 447 q 780 224 786 301 q 735 83 774 146 q 645 -23 697 19 q 538 -89 593 -65 q 429 -118 482 -112 q 307 -127 376 -124 q 176 -113 238 -131 q 70 -49 115 -96 q 10 92 25 -3 q 56 328 -6 226 q 206 472 101 406 l 294 524 q 207 658 226 604 q 186 754 188 711 q 203 851 185 797 q 264 958 222 906 q 361 1047 306 1010 q 610 1124 481 1129 m 422 160 q 434 158 422 160 q 467 167 447 157 q 494 211 488 176 q 485 277 501 246 q 442 347 469 308 l 408 335 q 376 315 376 319 q 350 289 376 307 q 321 249 324 271 q 332 208 318 226 q 371 176 346 189 q 422 160 396 163 m 618 846 q 594 865 611 865 q 559 852 578 865 q 522 815 540 839 q 494 761 504 792 q 506 636 469 693 l 510 629 q 539 654 524 643 q 572 681 554 665 q 649 775 613 719 q 643 808 657 785 q 628 839 629 832 l 618 846 z "},"9":{"ha":838,"x_min":42,"x_max":871,"o":"m 471 -42 q 353 -114 433 -96 q 225 -97 272 -131 q 203 26 169 -61 q 246 103 226 68 q 286 174 265 139 q 393 331 336 253 q 147 364 244 293 q 42 569 47 436 q 68 713 39 636 q 147 863 97 790 q 263 988 197 935 q 563 1088 406 1103 q 736 1063 690 1078 q 821 950 844 1029 q 822 913 813 924 q 844 891 831 901 q 867 862 857 881 q 871 800 876 843 q 617 142 824 450 q 471 -42 550 42 m 578 817 q 538 844 578 840 q 442 797 488 843 q 382 692 394 747 q 407 619 368 629 q 492 642 449 607 q 563 764 542 682 q 572 794 567 781 q 578 817 578 807 z "}," ":{"ha":433,"x_min":0,"x_max":0,"o":""},"!":{"ha":514,"x_min":-4,"x_max":676,"o":"m 653 1001 q 665 978 658 985 q 675 969 672 972 q 668 944 682 963 q 633 886 656 919 q 582 799 593 826 q 493 590 525 685 q 439 418 461 494 q 396 283 417 342 q 338 182 371 215 q 278 144 321 154 q 190 141 235 135 q 115 169 146 147 q 92 228 83 192 q 138 447 107 358 q 192 594 169 536 q 232 699 215 653 q 263 780 249 746 q 297 852 278 814 q 340 930 317 890 q 386 1003 363 969 q 478 1094 440 1079 q 553 1111 515 1108 q 620 1103 592 1114 q 660 1067 649 1092 q 653 1001 671 1042 m 321 -46 q 258 -131 306 -103 q 156 -162 210 -160 q 55 -141 101 -164 q -3 -70 8 -118 q 12 12 -15 -22 q 76 56 39 46 q 165 71 114 67 q 257 65 215 75 q 321 29 299 56 q 321 -46 343 3 z "},"\"":{"ha":636,"x_min":196,"x_max":794,"o":"m 547 771 q 547 794 547 771 q 540 864 547 817 q 531 969 532 911 q 551 1062 529 1026 q 606 1113 574 1097 q 676 1127 639 1129 q 742 1105 713 1125 q 788 1047 772 1085 q 794 956 804 1010 q 731 781 797 876 q 698 731 713 756 q 658 694 683 707 q 608 683 633 681 q 565 705 583 685 q 547 771 547 725 m 231 740 q 197 881 196 814 q 219 998 197 947 q 277 1079 240 1049 q 353 1111 314 1110 q 428 1080 393 1113 q 483 974 464 1047 l 468 938 q 469 933 469 935 q 471 929 469 931 q 449 856 453 893 q 429 782 444 818 l 378 704 q 340 668 364 681 q 291 658 315 656 q 249 679 267 660 q 231 740 231 699 z "},"#":{"ha":1157,"x_min":-3,"x_max":1208,"o":"m 1131 508 q 1025 518 1072 503 l 1024 517 l 1044 513 l 858 525 q 836 484 850 504 q 815 443 822 464 q 892 438 867 443 q 932 434 918 433 q 958 436 946 435 q 1010 422 988 439 q 1020 393 1019 414 q 1026 364 1021 372 q 1064 308 1057 339 q 1058 250 1071 276 q 1015 207 1046 224 q 936 194 985 190 q 831 194 888 197 q 722 196 774 192 l 685 63 q 597 31 654 22 q 558 51 575 35 q 539 99 540 68 l 538 99 q 539 104 538 101 q 538 142 538 124 l 538 178 q 519 179 528 179 l 500 179 l 371 175 q 367 176 368 175 q 368 176 367 176 l 326 175 q 291 100 311 139 q 263 8 271 61 q 178 -28 231 -31 q 137 -13 154 -28 q 117 31 119 1 l 115 31 q 117 35 115 33 l 117 38 q 135 163 124 78 q 103 154 108 157 q 68 148 92 149 q 28 158 44 147 q 6 188 11 169 q 50 278 -8 231 q 92 305 78 300 q 122 313 107 310 q 161 321 136 315 q 175 413 168 365 q 190 508 182 461 q 17 525 76 493 q -3 568 -10 549 q 31 611 4 588 q 225 686 110 656 l 239 743 q 291 940 269 888 q 351 1025 313 993 q 433 1069 390 1057 q 518 1075 476 1082 q 589 1044 560 1068 q 625 885 657 992 l 571 774 l 671 803 q 680 828 675 817 q 689 853 685 840 q 703 921 701 889 q 753 1016 715 979 q 837 1072 790 1053 q 931 1095 883 1092 q 1004 1092 978 1099 q 1047 1075 1031 1086 q 1071 1047 1063 1064 q 1060 968 1090 1011 q 1019 846 1054 922 l 1054 842 q 1105 828 1085 833 q 1144 806 1125 822 q 1174 783 1163 789 q 1190 768 1185 776 q 1182 711 1201 751 q 1208 583 1225 642 q 1131 508 1190 524 m 400 375 q 572 413 488 399 q 590 478 579 442 q 610 543 601 514 l 460 535 l 400 375 m 1047 513 q 1065 510 1057 513 q 1076 508 1072 508 q 1076 507 1079 507 q 1047 513 1064 507 z "},"$":{"ha":821,"x_min":-19,"x_max":953,"o":"m 497 1196 q 625 1272 532 1250 q 785 1272 722 1294 q 832 1235 817 1260 q 833 1174 847 1211 q 817 1149 824 1164 q 803 1118 811 1135 q 760 1051 782 1072 q 863 1019 828 1043 q 926 975 897 996 q 952 938 953 950 q 937 915 951 926 q 902 888 922 904 q 871 840 882 872 q 871 774 879 796 q 783 711 853 724 q 669 703 738 704 q 569 699 600 701 q 515 689 538 697 q 474 624 465 672 q 501 589 476 607 q 558 549 525 571 q 628 500 592 526 q 692 439 664 474 q 733 268 756 361 q 575 49 701 140 q 468 -7 529 15 q 459 -19 464 -14 q 451 -31 454 -24 l 440 -47 q 414 -99 426 -72 q 383 -151 401 -125 q 381 -151 381 -153 q 351 -217 375 -187 q 296 -261 326 -247 q 233 -268 265 -275 q 181 -225 201 -261 l 179 -225 l 179 -39 q 8 63 60 -24 q -19 142 -15 100 q -8 221 -24 185 q 55 263 15 254 q 139 272 94 272 q 228 271 183 272 q 306 281 272 269 q 426 317 410 306 q 436 335 443 329 q 414 346 429 340 q 379 358 399 351 q 343 376 360 365 q 143 594 192 450 q 131 712 125 649 q 159 822 138 775 q 211 903 181 868 q 414 1031 276 982 q 475 1049 446 1042 q 478 1111 478 1093 q 478 1138 478 1129 q 483 1157 479 1147 q 497 1196 488 1167 z "},"%":{"ha":1356,"x_min":128,"x_max":1301,"o":"m 363 -46 l 342 -74 q 233 -115 292 -112 q 151 -76 172 -118 q 128 17 99 -64 q 224 161 154 89 q 260 201 247 181 q 354 307 286 243 l 667 622 q 813 829 756 756 q 894 935 871 903 q 946 997 918 968 q 940 1015 949 1006 q 926 1044 924 1036 q 1061 1150 958 1121 q 1232 1147 1156 1178 q 1301 1032 1314 1113 q 1025 668 1235 869 q 917 560 969 614 l 764 404 q 732 367 749 385 q 669 294 715 349 q 392 -21 492 81 l 363 -46 m 629 144 q 628 196 622 169 q 643 253 635 222 q 726 369 657 304 q 750 435 722 403 q 832 492 778 468 q 881 537 847 518 q 961 558 915 556 q 1183 474 1065 563 q 1260 251 1292 389 q 1212 139 1246 192 q 1146 60 1178 86 q 1087 23 1114 35 q 1031 3 1060 11 q 947 -17 990 -10 q 897 -24 904 -24 q 884 -23 890 -24 q 872 -21 878 -22 q 838 -15 865 -19 q 776 -1 811 -11 q 714 28 742 10 q 629 144 651 67 m 189 757 q 450 968 232 944 l 451 969 q 664 981 572 1021 q 740 883 750 944 q 786 761 785 833 q 686 611 789 697 q 630 567 658 589 q 570 510 601 544 q 480 461 539 476 q 363 457 421 446 q 259 505 306 468 q 194 617 213 542 q 189 757 175 692 m 1036 279 l 986 274 q 973 265 979 268 q 960 256 967 261 q 930 233 953 250 q 889 194 907 215 q 892 110 844 140 q 1003 144 939 78 q 1069 254 1054 200 q 1075 274 1072 264 q 1078 293 1078 283 l 1036 279 m 554 736 l 485 715 q 396 656 451 675 q 394 635 394 644 q 401 617 394 625 q 540 685 497 617 q 554 736 554 707 m 1057 229 l 1072 239 q 1089 247 1078 242 q 1074 240 1082 243 q 1057 229 1067 236 m 1103 776 l 1099 771 l 1103 776 z "},"&":{"ha":989,"x_min":38,"x_max":986,"o":"m 879 -4 q 939 2 924 10 q 949 -24 954 -6 q 921 -67 943 -42 q 867 -112 899 -92 q 732 -151 790 -164 q 664 -103 694 -144 q 642 -69 653 -86 q 618 -42 631 -53 q 376 -143 506 -122 q 274 -141 335 -150 q 152 -105 213 -132 q 58 -32 92 -78 q 38 244 -8 60 q 243 500 88 374 q 332 571 308 554 q 372 882 304 740 q 531 1061 431 1004 q 700 1111 599 1107 q 928 989 886 1119 q 897 793 953 906 q 754 611 853 707 q 643 522 706 565 q 665 419 646 469 q 698 340 685 369 q 722 281 711 310 q 732 292 726 283 q 744 311 738 301 q 758 331 751 321 q 769 344 765 340 q 781 353 774 347 q 800 364 789 358 q 847 364 828 375 q 859 369 849 365 q 869 375 869 372 q 891 393 872 388 q 931 397 910 399 q 986 364 986 393 q 960 294 989 339 q 838 81 910 167 q 835 77 836 78 q 832 75 833 76 q 859 34 851 50 q 879 -4 867 18 m 396 303 q 340 226 356 257 q 350 160 325 194 q 396 130 369 133 q 443 128 422 126 q 489 131 464 129 q 472 156 482 144 q 450 186 463 168 q 396 303 419 233 m 707 886 q 657 894 699 919 q 589 822 619 874 q 575 732 557 769 q 603 755 592 744 q 632 774 614 765 q 667 796 650 783 q 708 886 704 824 l 707 886 m 643 746 l 590 742 l 643 746 m 588 739 l 583 735 l 588 739 z "},"'":{"ha":347,"x_min":239,"x_max":503,"o":"m 256 718 q 256 741 256 718 q 248 811 256 764 q 239 917 240 858 q 260 1010 238 975 q 315 1060 282 1044 q 384 1074 347 1076 q 451 1052 421 1072 q 497 994 481 1032 q 503 903 513 957 q 439 728 506 824 q 406 678 421 703 q 367 641 392 654 q 317 630 342 628 q 274 652 292 632 q 256 718 256 672 z "},"(":{"ha":475,"x_min":-8,"x_max":738,"o":"m -8 286 q 129 810 22 592 q 331 1064 215 983 q 417 1103 378 1097 q 476 1090 456 1108 q 608 1161 521 1158 q 676 1151 644 1163 q 725 1120 708 1139 q 737 1078 742 1101 q 694 1031 732 1054 q 381 710 489 885 q 224 219 251 504 q 242 -25 213 96 q 265 -107 254 -72 q 275 -165 275 -142 q 260 -201 275 -189 q 203 -217 244 -214 q 32 -39 90 -217 q -8 286 -15 106 z "},")":{"ha":593,"x_min":-167,"x_max":563,"o":"m -115 -86 q 196 386 100 72 q 254 967 276 650 q 273 1077 251 1032 q 328 1146 294 1122 q 403 1172 363 1169 q 480 1153 444 1174 q 539 1090 515 1133 q 563 979 563 1046 q 561 909 565 947 q 556 808 557 871 q 534 640 556 746 q 475 428 513 533 q 289 46 396 197 q 134 -153 188 -100 q 41 -225 81 -207 q -28 -215 1 -243 q -112 -238 -76 -246 q -162 -204 -147 -231 q -167 -144 -176 -178 q -115 -86 -157 -110 z "},"*":{"ha":775,"x_min":74,"x_max":1029,"o":"m 800 960 q 1029 914 971 968 q 1008 828 1074 874 q 878 778 954 792 q 613 697 663 724 q 860 446 754 569 q 842 397 878 404 q 768 406 810 392 q 741 417 753 408 q 706 439 729 426 q 578 522 678 454 q 564 453 565 483 q 561 404 563 422 q 553 373 554 389 q 538 338 553 357 q 494 307 522 319 q 433 294 465 294 q 370 303 401 293 q 314 331 339 313 q 265 432 260 374 q 296 532 274 483 l 303 554 l 235 538 q 144 554 178 538 q 103 588 111 571 q 115 628 94 606 q 190 681 147 658 q 278 726 233 704 q 256 733 269 729 q 226 743 243 738 q 192 754 210 749 q 158 767 174 760 q 88 811 106 783 q 74 864 71 839 q 94 903 76 889 q 132 904 113 917 q 221 978 153 968 q 346 953 278 986 q 390 919 379 933 q 413 896 401 906 q 419 881 415 888 q 425 868 422 875 q 590 1150 485 1004 q 637 1185 608 1176 q 690 1185 665 1193 q 726 1154 714 1178 q 726 1101 739 1131 q 705 1051 714 1071 q 689 1011 696 1031 q 663 926 671 961 q 733 948 692 942 q 800 960 775 954 z "},"+":{"ha":690,"x_min":-31,"x_max":757,"o":"m 217 628 q 289 849 268 764 q 286 894 282 869 q 368 963 317 938 q 478 986 419 989 q 560 981 533 993 q 594 915 610 957 q 610 897 597 910 q 622 878 622 885 q 573 780 604 826 q 522 706 542 733 q 494 661 503 678 q 481 631 483 642 q 625 647 569 638 q 691 642 657 650 q 744 618 725 633 q 757 582 763 603 q 704 539 751 561 q 656 530 686 538 q 591 514 625 522 q 526 497 557 506 q 481 486 494 489 q 426 457 447 478 q 350 254 386 289 q 308 232 332 238 q 256 213 283 226 q 190 201 228 199 q 127 222 153 203 q 92 276 101 242 q 99 358 82 311 q 112 400 104 379 q 126 440 119 421 q 97 461 100 453 q 76 488 83 471 q 17 516 46 503 q -31 544 -11 529 q -29 629 -83 597 q 11 647 -12 639 q 90 645 83 643 q 92 647 96 647 l 88 647 q 133 639 92 646 q 217 628 183 631 m 478 631 q 481 639 481 638 q 479 638 479 639 q 476 631 479 636 l 478 631 z "},",":{"ha":400,"x_min":8,"x_max":367,"o":"m 319 100 q 328 90 324 94 q 335 79 332 85 l 360 54 q 363 21 358 38 q 366 -20 368 4 q 342 -75 364 -44 q 290 -131 319 -106 q 161 -225 236 -200 q 18 -201 79 -253 q 8 -172 8 -182 q 18 -143 8 -161 q 41 -101 25 -125 q 71 -57 57 -78 l 64 -51 l 61 -54 q 57 -46 57 -56 q 43 -33 53 -43 l 42 -33 l 31 -24 l 28 -17 q 39 101 -11 56 q 196 147 93 153 q 272 129 221 146 q 291 113 282 119 q 307 100 300 106 l 313 104 l 319 100 z "},"-":{"ha":817,"x_min":72,"x_max":815,"o":"m 444 342 l 207 346 q 201 344 204 344 q 194 343 199 344 l 193 346 q 116 359 149 346 q 73 393 83 372 q 78 438 63 414 q 147 481 94 461 l 172 483 q 228 551 182 519 q 365 594 275 583 l 446 597 l 508 597 q 575 596 542 597 q 726 592 649 614 q 815 492 821 563 q 768 413 813 456 q 722 392 744 404 q 661 367 700 381 q 444 342 585 342 z "},".":{"ha":326,"x_min":1,"x_max":294,"o":"m 294 -53 q 245 -112 278 -86 q 180 -148 213 -137 q 136 -158 147 -158 q 79 -151 125 -158 l 78 -151 q 74 -149 76 -151 q 1 -58 1 -115 q 53 42 1 -8 q 203 103 122 108 q 249 92 213 101 q 254 88 253 88 q 294 -53 333 26 z "},"/":{"ha":788,"x_min":-60,"x_max":939,"o":"m 459 799 q 483 842 459 799 q 533 937 507 885 q 575 1016 558 989 q 597 1049 592 1043 q 606 1063 603 1056 q 637 1124 603 1094 q 750 1169 671 1154 l 760 1169 q 864 1153 835 1167 q 939 1067 918 1128 q 927 1017 943 1040 q 894 974 911 993 q 871 882 911 929 q 767 763 813 826 q 659 615 721 700 q 524 413 597 529 q 378 178 451 296 q 72 -267 192 -119 q 4 -276 49 -296 q -58 -208 -42 -257 q -42 -90 -81 -151 q 206 378 53 125 q 342 601 274 489 q 459 799 411 713 z "},":":{"ha":471,"x_min":51,"x_max":519,"o":"m 478 692 q 519 642 508 672 q 511 576 531 613 q 454 518 492 539 q 374 490 417 497 q 289 485 332 482 q 214 506 246 489 q 169 621 142 542 q 315 717 210 701 q 478 692 414 731 m 400 269 q 306 139 389 188 q 149 108 228 93 q 84 139 111 115 q 51 206 57 163 l 56 172 q 75 250 49 215 q 143 309 101 285 q 234 345 185 333 q 324 353 283 357 q 387 331 364 350 q 399 274 410 311 l 400 269 z "},";":{"ha":471,"x_min":89,"x_max":519,"o":"m 478 706 q 519 656 508 686 q 511 590 531 626 q 454 532 492 553 q 374 503 417 511 q 289 499 332 496 q 214 519 246 503 q 169 635 142 556 q 315 731 210 715 q 478 706 414 744 m 400 349 q 408 338 404 343 q 415 328 413 333 l 440 303 q 444 269 439 286 q 447 228 449 253 q 422 174 444 204 q 371 118 400 143 q 242 24 317 49 q 99 47 160 -4 q 89 77 89 67 q 99 106 89 88 q 122 147 106 124 q 151 192 138 171 l 144 197 l 142 194 q 138 203 138 193 q 124 215 133 206 l 122 215 l 111 225 l 108 232 q 119 350 69 304 q 276 394 174 401 q 353 378 301 394 q 372 361 363 368 q 388 349 381 354 l 393 353 l 400 349 z "},"<":{"ha":792,"x_min":-19,"x_max":904,"o":"m 672 835 q 703 840 690 838 q 728 844 715 843 q 826 830 785 851 q 889 789 868 808 q 904 692 935 742 q 889 633 910 663 q 828 579 868 603 q 605 487 719 525 q 376 406 490 449 q 407 367 372 389 q 494 317 442 344 q 608 256 547 289 q 715 185 668 222 q 700 111 726 144 q 638 79 675 82 q 559 96 611 88 q 442 115 507 104 q 307 144 378 126 q 172 192 236 163 q -19 361 25 256 q -14 379 -19 369 q -3 400 -8 389 q -8 450 8 428 q 103 567 -8 503 q 147 593 129 582 q 277 660 214 626 q 403 726 340 694 q 672 835 546 799 z "},"=":{"ha":788,"x_min":-18,"x_max":806,"o":"m 113 201 q 26 215 60 194 q -18 266 -8 236 q -12 328 -28 296 q 57 381 4 360 q 178 410 110 401 q 317 423 247 419 q 458 428 388 426 q 585 439 528 429 q 675 440 643 449 q 722 413 707 432 q 735 369 738 394 q 715 317 733 343 q 575 236 674 257 q 314 210 443 213 q 113 201 185 207 m 657 751 q 774 712 738 743 q 805 647 810 681 q 754 585 800 613 q 626 557 708 557 q 578 560 610 560 q 631 561 588 560 q 619 563 643 561 q 564 561 579 565 l 547 558 q 219 493 492 471 q 124 543 154 507 q 128 615 94 579 q 197 668 136 649 q 267 688 229 681 q 361 706 304 694 q 497 733 418 718 q 657 751 576 749 z "},">":{"ha":1035,"x_min":60,"x_max":1044,"o":"m 674 429 l 617 465 q 476 549 549 510 q 338 638 403 589 q 329 757 279 699 q 407 842 346 797 q 440 856 424 849 q 485 873 457 864 q 547 883 513 882 q 611 878 581 885 q 714 821 661 864 q 756 790 725 813 q 828 735 788 767 q 911 667 868 703 q 988 594 954 631 q 1044 475 1064 511 q 1030 454 1042 468 q 1015 435 1018 440 q 1008 339 1026 392 q 978 298 993 311 q 935 268 963 285 q 758 228 868 244 q 563 190 649 211 q 392 147 478 169 q 76 89 169 93 q 69 108 74 97 q 60 131 64 119 q 60 173 49 160 q 81 199 72 186 q 106 229 90 213 q 160 267 121 246 q 247 306 199 288 q 349 342 296 325 q 452 372 403 358 q 542 394 501 385 q 607 411 583 404 l 674 429 z "},"?":{"ha":792,"x_min":76,"x_max":871,"o":"m 871 751 q 664 450 888 610 q 554 374 606 408 q 466 310 503 339 q 425 261 429 282 q 393 206 422 228 q 328 174 364 183 q 256 168 292 165 q 203 188 219 171 q 247 388 164 271 q 335 491 285 439 q 433 592 385 543 q 518 686 481 642 q 571 783 561 739 l 567 783 q 548 763 557 775 q 510 736 539 751 q 458 711 481 721 q 415 692 435 701 q 390 681 394 683 q 380 675 385 678 q 367 669 375 672 l 344 661 q 172 694 224 632 q 139 756 154 717 q 169 886 124 811 q 267 985 208 951 q 413 1042 325 1019 q 588 1065 501 1065 q 746 1039 674 1065 q 854 954 818 1013 q 863 897 868 928 q 852 849 857 867 q 848 818 847 832 q 858 787 849 804 q 871 751 868 769 m 340 -22 q 264 -108 311 -81 q 173 -135 217 -135 q 100 -111 129 -136 q 76 -37 71 -86 q 144 56 79 31 q 301 56 228 89 q 340 -22 369 25 z "},"@":{"ha":1132,"x_min":6,"x_max":1181,"o":"m 567 218 q 465 181 519 181 q 369 209 411 181 q 311 288 326 238 q 378 550 278 399 q 517 688 428 625 q 754 761 657 788 q 808 724 788 753 q 818 711 821 719 l 811 692 q 809 672 808 682 q 828 654 810 661 q 860 553 858 615 q 833 460 863 492 q 792 380 790 397 q 808 352 794 363 q 850 329 822 342 q 901 361 885 347 q 969 533 968 426 q 938 685 971 617 q 822 808 896 772 q 542 769 719 858 q 394 647 465 731 q 274 489 299 539 q 237 392 250 439 q 222 294 224 344 q 236 201 219 244 q 411 89 276 104 q 477 71 461 83 q 496 43 493 58 q 499 10 499 28 q 515 -21 499 -7 q 529 -72 546 -47 q 467 -113 513 -97 q 357 -132 422 -129 q 226 -119 292 -135 q 19 40 72 -83 q 6 292 -22 133 q 114 600 33 442 q 317 878 200 767 q 714 1078 492 1047 q 1078 992 929 1107 q 1154 880 1125 958 q 1181 695 1183 801 q 1135 461 1178 589 q 993 201 1092 333 q 828 83 932 118 q 653 75 728 49 q 576 182 574 103 q 567 218 569 199 m 438 308 q 510 363 478 328 q 561 419 543 397 q 599 461 579 440 q 578 472 592 469 q 478 422 524 475 q 438 308 435 371 z "},"A":{"ha":783,"x_min":-32,"x_max":828,"o":"m 768 942 q 828 868 815 917 q 778 559 800 713 q 735 302 756 406 q 706 147 714 199 q 689 44 699 96 l 681 15 q 675 -13 678 0 q 669 -42 672 -26 q 564 -86 631 -86 q 451 -50 493 -86 q 443 32 426 -31 q 452 97 450 57 q 457 163 454 136 l 457 165 q 382 126 415 150 q 340 95 349 101 q 318 85 332 89 q 293 81 304 82 q 257 72 267 79 q 113 -89 176 -72 q 32 -95 72 -101 q -32 -47 -8 -89 q -10 181 -76 -6 q 94 417 26 279 q 224 658 161 556 q 519 1031 358 879 q 576 1056 546 1042 q 637 1072 607 1071 q 699 1065 667 1074 q 753 1040 731 1057 q 768 942 804 1001 m 471 576 q 413 423 442 493 q 363 300 383 353 l 472 304 q 497 481 483 393 q 524 656 511 568 l 471 576 m 433 299 q 472 301 453 299 l 472 303 q 439 300 454 301 q 433 299 424 299 z "},"B":{"ha":813,"x_min":-19,"x_max":882,"o":"m 733 1047 l 739 1046 q 799 999 774 1025 q 847 945 825 974 q 881 883 868 917 q 789 597 933 756 q 651 483 728 531 q 688 463 671 469 q 738 440 706 457 q 779 374 769 422 q 774 267 789 326 q 722 144 760 207 q 622 31 683 81 q 300 -67 483 -85 q 267 -62 274 -67 q 256 -56 260 -58 q 238 -51 251 -53 q 158 -86 203 -79 q 74 -79 114 -93 q 8 -32 35 -65 q -19 56 -19 1 q -6 113 -15 92 q -10 143 -10 125 q 79 528 38 394 q 263 928 164 793 q 486 1075 343 1042 q 733 1047 624 1107 m 301 78 q 330 80 318 82 q 358 81 342 78 q 467 131 399 85 q 513 215 510 174 q 500 269 515 257 q 459 281 485 281 q 402 273 433 281 q 342 264 371 265 l 342 261 q 328 213 335 233 q 315 172 321 192 q 296 78 303 126 l 301 78 m 560 800 q 469 735 518 806 q 422 600 439 690 q 480 622 451 613 q 533 642 508 631 q 621 706 594 668 q 640 767 651 742 q 586 807 624 789 q 560 800 575 797 m 539 806 l 543 806 l 539 806 z "},"C":{"ha":796,"x_min":25,"x_max":903,"o":"m 624 692 q 594 733 624 733 q 568 728 583 733 q 539 718 553 722 q 459 658 488 690 q 401 585 431 625 q 351 499 372 544 q 319 413 331 453 q 350 213 279 264 q 412 192 379 192 q 465 206 444 193 q 504 229 485 218 q 549 245 524 240 q 613 238 575 250 q 654 207 651 226 q 654 167 657 188 q 653 129 651 146 q 683 108 656 113 q 650 28 710 75 q 621 4 635 15 q 367 -81 501 -72 q 186 -50 282 -86 q 25 193 43 4 q 69 556 1 368 q 242 849 126 714 q 447 1010 346 972 q 708 1058 568 1072 q 903 932 857 1039 q 888 675 949 825 q 808 592 867 622 q 700 564 758 564 q 625 601 642 564 q 624 692 608 638 z "},"D":{"ha":825,"x_min":0,"x_max":865,"o":"m 864 564 q 842 442 858 504 q 797 319 826 379 q 726 204 767 260 q 635 101 685 149 q 528 22 585 54 q 292 -29 406 -50 q 217 -98 267 -83 q 120 -98 168 -112 q 36 -43 72 -83 q 0 67 0 -3 q 10 211 0 138 q 36 353 19 285 q 101 564 63 465 q 206 878 193 788 q 272 1028 224 999 q 425 1068 353 1075 q 556 1033 497 1061 q 763 879 651 988 q 864 564 885 761 m 318 147 q 433 222 389 183 q 515 292 476 260 q 603 433 575 351 q 525 707 664 614 q 463 749 504 722 q 434 656 443 704 q 410 561 425 607 l 372 439 l 342 307 q 333 253 339 279 q 324 200 328 228 l 318 147 z "},"E":{"ha":728,"x_min":10,"x_max":825,"o":"m 314 175 q 434 167 394 167 q 554 178 474 167 q 583 157 579 169 q 586 131 588 144 q 588 106 585 118 q 614 85 590 93 q 622 60 626 81 q 599 17 617 40 q 490 -67 553 -43 q 333 -96 390 -92 q 128 -89 239 -103 q 10 13 6 -67 q 138 599 10 304 q 232 800 179 694 q 245 850 243 822 q 249 904 247 878 q 257 951 250 931 q 286 981 264 972 q 743 1069 575 1096 q 820 1030 801 1068 q 824 944 839 992 q 767 856 810 897 q 661 804 725 814 q 561 772 579 781 q 511 728 526 756 q 475 669 492 697 q 451 610 458 642 l 446 579 q 510 572 472 567 q 581 581 549 576 q 634 582 614 586 q 642 541 654 578 q 599 458 631 504 q 511 392 568 413 q 462 381 475 385 q 442 376 449 378 q 386 372 432 375 q 307 200 321 261 q 314 175 301 175 z "},"F":{"ha":589,"x_min":-42,"x_max":785,"o":"m 206 13 q 114 -75 188 -53 q -6 -61 47 -94 q -42 42 -62 -26 q 28 290 -24 119 q 100 531 79 461 q 161 758 149 703 q 223 931 204 897 q 256 977 242 964 q 301 1008 269 990 q 368 1036 332 1026 q 440 1049 404 1046 q 514 1055 476 1053 q 597 1068 551 1057 q 630 1071 615 1068 q 658 1075 644 1074 q 722 1068 690 1078 q 769 1033 753 1058 q 785 976 785 1008 q 772 908 785 944 q 735 839 758 872 q 606 736 683 767 q 528 719 551 719 q 495 725 504 719 q 485 733 486 731 q 475 724 483 736 q 457 683 463 706 q 444 651 451 661 q 426 610 438 640 q 396 559 414 579 q 375 535 378 539 l 497 547 q 548 535 526 550 q 578 500 569 521 q 583 459 588 479 q 558 428 579 439 q 531 408 538 418 q 521 388 525 397 q 510 368 517 378 q 483 350 504 358 q 313 317 439 329 q 294 267 306 296 q 269 208 282 239 q 228 96 233 115 q 221 64 224 76 q 206 13 213 26 z "},"G":{"ha":888,"x_min":-18,"x_max":933,"o":"m 551 1049 q 863 999 751 1089 q 933 874 915 956 q 914 690 950 792 q 861 619 899 643 q 784 592 824 596 q 713 602 744 589 q 678 640 681 615 l 665 668 q 550 681 632 718 q 408 569 479 649 q 311 417 333 485 q 286 318 286 342 q 324 224 283 265 q 440 190 382 186 q 544 216 499 193 q 619 268 590 239 q 649 310 649 297 q 657 326 653 318 q 664 343 661 335 q 667 344 658 343 q 671 344 675 344 q 675 342 667 343 l 683 339 q 551 314 615 278 q 507 347 526 329 q 471 363 488 364 q 457 428 440 379 q 483 465 464 447 q 531 489 501 482 q 788 517 669 549 q 860 460 840 503 q 878 365 881 418 q 855 258 875 313 q 811 172 835 204 q 745 94 788 139 q 639 8 703 50 q 303 -89 482 -93 q -4 124 43 -85 q -18 274 -19 190 q 126 725 -4 515 q 294 922 189 825 q 444 1014 361 982 q 551 1049 489 1032 z "},"H":{"ha":817,"x_min":-47,"x_max":967,"o":"m 332 303 l 265 133 q 240 53 251 94 q 217 -20 229 11 q 178 -69 204 -51 q 121 -97 153 -87 q 55 -104 89 -106 q -6 -92 21 -103 q -47 0 -65 -64 q 73 450 17 281 q 166 717 129 619 q 243 922 203 814 q 276 994 247 963 q 345 1047 306 1026 q 428 1077 385 1068 q 504 1079 471 1086 q 553 1049 538 1072 q 556 981 569 1025 q 485 800 506 853 q 447 706 464 747 l 408 614 q 482 622 438 613 q 599 635 563 640 q 606 658 599 642 q 693 969 644 828 q 872 1092 728 1086 q 958 1064 929 1092 q 967 985 990 1035 q 786 419 839 626 q 708 97 726 181 q 675 -1 689 14 q 647 -23 661 -17 q 618 -35 632 -29 q 596 -62 604 -40 l 592 -62 q 543 -101 581 -87 q 467 -112 506 -115 q 403 -84 429 -108 q 390 -10 378 -60 q 436 160 404 69 q 487 303 468 251 q 518 399 506 354 q 497 390 507 393 q 471 380 486 388 q 440 367 456 372 q 408 356 424 361 q 344 325 369 340 l 332 303 m 489 396 q 503 400 490 396 q 489 396 494 397 z "},"I":{"ha":510,"x_min":-24,"x_max":594,"o":"m 586 939 q 497 665 538 788 q 422 440 456 543 q 358 251 388 338 q 304 85 329 164 q 214 -44 290 -7 q 108 -65 169 -65 q 17 -52 47 -65 q -23 -14 -14 -39 q -23 47 -32 11 q 8 144 -14 82 q 65 311 31 206 q 136 525 99 417 q 283 900 229 796 q 325 952 304 939 q 365 972 346 965 q 401 986 385 978 q 431 1028 418 994 q 480 1074 444 1061 q 547 1076 515 1086 q 594 1031 578 1065 q 586 939 610 997 z "},"J":{"ha":779,"x_min":-29,"x_max":924,"o":"m 203 140 l 201 107 q 204 74 201 99 q 231 67 217 58 q 281 106 242 74 q 386 294 344 201 q 522 667 482 513 q 547 757 535 713 q 570 848 558 801 q 597 944 582 894 l 597 950 q 718 1078 621 1032 q 878 1092 811 1124 q 924 1040 910 1076 q 921 940 938 1003 q 857 739 889 844 q 789 527 825 633 q 708 319 753 421 q 606 133 664 218 q 300 -117 476 -56 q 267 -126 281 -125 q 229 -131 254 -128 q 166 -133 204 -135 q 92 -119 128 -131 q -11 -36 8 -96 q -28 85 -33 47 q -12 147 -24 124 q 15 197 -1 171 l 17 197 q 56 238 29 221 q 113 259 83 254 q 169 254 143 264 q 203 217 194 244 q 204 178 204 201 q 203 140 204 154 z "},"K":{"ha":804,"x_min":-21,"x_max":883,"o":"m 250 986 q 325 1032 276 1050 q 349 1071 339 1063 q 371 1084 360 1079 q 394 1094 382 1089 q 433 1104 407 1100 q 492 1109 460 1108 q 556 1106 524 1110 q 611 1088 589 1101 q 635 985 665 1056 q 633 982 638 986 l 621 958 l 611 946 q 568 861 604 939 q 508 751 539 806 q 447 632 458 658 q 560 708 496 658 q 714 819 681 801 q 760 842 747 838 q 786 844 774 846 q 813 836 799 842 l 847 822 q 883 742 881 811 q 856 639 885 674 q 571 419 729 475 q 471 389 522 401 q 611 292 544 381 q 690 143 665 219 q 728 30 714 67 q 740 -27 742 -7 q 716 -58 738 -47 q 643 -78 694 -68 q 546 -22 619 -82 q 478 35 514 4 q 406 94 442 67 q 289 163 322 160 q 278 165 286 163 l 253 103 q 213 6 233 57 q 165 -85 193 -44 q 65 -108 122 -114 q -21 -56 0 -101 q 25 197 -35 -12 q 94 456 65 344 q 144 640 124 567 q 175 753 165 713 q 194 833 185 794 q 250 986 218 924 z "},"L":{"ha":649,"x_min":-21,"x_max":644,"o":"m 481 -67 q 425 -76 451 -75 q 372 -78 399 -76 q 297 -79 344 -79 q 156 -76 250 -79 q 111 -78 133 -78 q 69 -69 89 -78 q 11 14 26 -51 q -5 57 4 44 q -19 81 -14 69 q -17 154 -33 103 q 24 281 -1 206 q 81 442 49 357 q 215 761 156 643 q 256 853 239 814 q 288 920 274 892 q 301 950 301 949 q 408 1039 315 1003 q 572 1058 499 1076 q 644 950 654 1038 q 587 778 625 864 q 500 597 549 692 q 394 397 451 503 q 282 168 338 292 q 288 158 281 163 q 338 169 306 160 q 406 187 371 179 q 476 194 442 194 q 535 176 511 194 q 547 137 533 151 q 575 108 561 122 q 581 13 610 72 q 481 -67 553 -46 z "},"M":{"ha":960,"x_min":-39,"x_max":1031,"o":"m 544 1014 q 560 964 558 976 q 540 919 563 938 q 538 915 540 918 q 543 793 550 850 q 525 683 536 736 q 644 871 600 811 q 815 1047 736 994 q 880 1070 842 1063 q 953 1072 918 1078 q 1010 1044 988 1067 q 1031 978 1033 1022 q 947 473 992 707 q 832 26 903 239 l 832 24 l 831 24 q 747 -47 814 -26 q 631 -50 682 -67 q 574 17 568 -32 l 575 49 l 575 51 q 581 97 581 85 q 583 114 582 108 q 595 181 586 150 q 608 232 604 213 q 617 269 613 251 q 622 296 621 286 q 547 208 569 224 q 418 172 492 169 q 365 193 372 175 q 346 239 351 232 q 332 276 338 250 q 261 50 296 117 q 233 3 247 24 q 144 -61 214 -43 q 19 -58 79 -79 q -39 11 -42 -39 q -19 137 -36 61 q 22 297 -1 213 q 123 646 93 565 q 174 772 153 726 q 263 928 224 879 q 406 1033 306 1015 q 544 1014 485 1049 z "},"N":{"ha":875,"x_min":-25,"x_max":978,"o":"m 94 539 q 140 683 122 632 q 174 774 157 733 q 212 851 190 814 q 259 920 233 889 q 314 969 285 951 q 375 988 343 988 q 442 963 407 988 q 510 776 497 824 q 540 581 526 707 q 569 648 553 613 q 600 719 585 683 q 654 858 643 811 q 781 1004 685 956 q 936 1031 864 1046 q 977 1007 965 1025 q 977 969 989 989 q 969 933 965 950 q 975 892 972 915 q 953 778 979 828 q 899 656 926 729 q 842 501 871 583 q 785 335 814 419 q 728 181 756 250 q 628 4 667 21 q 550 -33 575 -28 q 460 -33 518 -39 q 397 60 424 -31 q 369 194 382 108 q 339 360 347 344 q 260 132 283 179 q 226 69 238 85 q 197 29 214 54 q 111 -44 179 -21 q 6 -51 53 -67 q -25 13 -46 -35 q 94 539 -10 179 z "},"O":{"ha":888,"x_min":42,"x_max":915,"o":"m 282 919 q 476 1044 369 1019 q 615 1039 550 1063 q 749 1078 667 1093 q 876 993 824 1064 q 888 964 879 983 q 906 921 897 944 q 915 549 967 779 q 689 64 851 263 q 576 -37 639 3 q 338 -106 476 -114 q 193 -62 251 -101 q 42 418 -39 53 q 282 919 108 718 m 299 182 l 297 174 l 300 158 q 328 92 308 115 q 360 64 347 69 q 388 85 374 75 q 413 108 401 94 q 560 414 507 225 q 599 764 613 603 q 485 604 544 694 q 390 450 425 514 q 299 182 311 301 z "},"P":{"ha":842,"x_min":-42,"x_max":897,"o":"m 713 297 q 597 237 657 256 q 476 226 536 218 q 374 278 417 235 q 321 33 335 154 q 301 -7 315 11 q 192 -106 276 -81 q 36 -97 108 -129 q -19 -53 3 -82 q -42 18 -42 -24 q 143 563 54 350 q 174 635 163 607 q 196 682 186 663 q 213 716 206 701 q 232 749 221 731 q 290 847 257 790 q 345 931 322 903 q 394 978 368 958 q 451 1017 419 999 q 529 1064 482 1035 q 630 1099 576 1093 q 732 1090 683 1106 q 883 947 835 1058 q 897 671 925 844 q 713 297 854 406 m 422 421 q 581 569 536 446 q 596 806 618 674 q 538 693 564 751 q 492 589 513 635 q 422 421 446 486 z "},"Q":{"ha":1006,"x_min":67,"x_max":1065,"o":"m 785 111 q 779 33 797 64 q 728 -15 761 1 q 737 -49 728 -22 q 751 -94 746 -76 q 758 -162 764 -132 q 681 -219 743 -215 q 628 -212 654 -222 q 586 -182 601 -203 q 571 -159 583 -187 q 543 -94 558 -131 l 513 -33 q 390 -53 438 -57 q 235 -12 317 -44 q 78 146 121 32 q 67 425 35 260 q 160 781 82 619 q 389 1026 251 971 q 622 1086 529 1097 l 647 1094 q 712 1146 668 1131 q 806 1158 756 1161 q 903 1138 856 1156 q 981 1089 951 1119 q 1065 760 1085 988 q 863 238 1043 481 q 769 129 819 179 l 785 111 m 386 140 q 372 222 372 192 q 369 229 369 225 l 369 231 q 368 235 368 232 l 369 235 q 440 326 372 304 q 532 345 482 349 q 622 314 582 342 q 646 357 636 338 l 663 390 q 724 825 783 646 q 633 788 682 797 q 542 786 583 779 q 484 723 511 760 q 447 672 457 686 q 410 613 436 658 q 361 514 385 568 q 321 402 338 460 q 303 293 304 344 q 386 140 300 176 z "},"R":{"ha":808,"x_min":-32,"x_max":889,"o":"m 243 -4 q 157 -72 231 -60 q 28 -57 89 -85 q -32 25 -40 -28 q 53 375 -40 106 q 331 953 192 779 q 392 1010 367 997 q 451 1035 418 1024 q 521 1056 485 1046 q 658 1083 593 1075 q 774 1067 722 1090 q 853 1000 825 1044 q 889 895 882 956 q 885 769 896 835 q 844 635 874 703 q 771 510 815 568 q 543 344 674 382 l 557 321 q 601 260 575 293 q 652 192 626 226 q 699 122 678 157 q 729 57 719 88 q 694 -42 751 -11 q 622 -56 649 -69 q 600 -38 611 -49 q 569 -21 589 -28 q 444 21 488 -44 q 404 97 418 63 q 381 156 390 132 q 324 244 356 207 q 289 149 308 207 q 236 -4 265 75 l 243 -4 m 524 804 q 488 721 497 744 q 444 617 468 674 q 438 574 440 586 l 457 593 l 481 604 q 526 629 506 618 q 564 657 547 640 q 619 761 596 689 q 624 789 619 775 q 631 817 629 803 q 606 860 636 847 q 536 814 578 863 q 524 804 528 804 z "},"S":{"ha":767,"x_min":-42,"x_max":879,"o":"m 231 -81 q 101 -63 160 -83 q 5 -8 42 -43 q -42 73 -32 26 q -25 168 -51 119 q 119 203 11 226 q 233 185 201 186 q 286 193 264 183 q 400 265 388 226 q 364 333 408 294 q 324 367 346 350 q 286 400 301 383 q 177 519 217 451 q 144 665 138 586 q 171 797 151 744 q 219 889 190 849 q 353 1004 271 960 q 504 1067 447 1053 q 732 1071 617 1092 q 799 1044 771 1064 q 854 1004 826 1025 q 878 906 903 956 q 847 869 868 883 q 803 854 826 856 q 789 799 806 817 q 678 757 757 767 q 524 744 564 765 q 489 636 476 719 q 512 599 492 618 q 559 557 532 579 q 616 507 586 535 q 668 443 646 479 q 656 144 746 315 q 428 -47 589 17 q 231 -81 344 -81 z "},"T":{"ha":697,"x_min":104,"x_max":871,"o":"m 484 356 q 465 302 484 356 q 407 147 446 247 q 342 -5 368 47 q 297 -76 317 -57 q 258 -103 278 -96 q 217 -108 238 -110 q 176 -106 197 -107 q 104 63 60 -87 q 151 258 133 182 q 181 383 169 333 q 201 465 193 432 q 219 529 210 497 q 244 601 229 561 q 282 708 258 642 q 188 719 229 701 q 138 833 126 746 q 181 908 143 874 q 226 947 200 926 q 442 1039 281 990 q 728 1086 608 1089 q 794 1078 760 1092 q 849 1043 828 1065 q 870 994 869 1021 q 836 947 871 968 q 813 910 819 936 q 797 856 806 885 q 773 804 789 828 q 722 776 757 781 q 672 763 704 767 q 628 756 639 758 q 617 749 618 754 q 557 570 592 675 q 484 356 522 465 m 296 724 q 293 723 293 724 q 296 722 293 722 l 296 724 z "},"U":{"ha":951,"x_min":63,"x_max":1032,"o":"m 476 1006 l 476 1003 q 477 1001 476 1001 q 478 1000 478 1001 l 478 997 l 479 997 l 488 975 q 415 725 501 935 q 331 376 324 501 q 479 519 346 288 q 683 915 585 700 q 710 976 696 944 q 744 1028 724 1007 q 856 1054 790 1078 q 908 1090 878 1081 q 965 1094 938 1100 q 1011 1069 992 1089 q 1032 1015 1031 1049 q 1003 883 1036 988 q 943 693 971 779 q 886 506 915 607 q 774 53 815 265 q 735 -21 772 8 q 653 -59 699 -50 q 568 -56 608 -68 q 517 14 519 -42 q 515 44 517 29 q 447 -36 518 -3 q 411 -54 428 -46 q 207 -42 314 -83 q 117 15 157 -21 q 63 99 78 50 q 81 507 14 254 q 149 718 108 615 q 208 867 189 821 q 235 930 226 913 q 253 964 243 947 q 293 1028 276 1011 l 310 1043 q 315 1047 313 1046 q 322 1050 318 1047 q 346 1060 333 1057 l 365 1064 l 374 1064 q 443 1047 414 1069 q 446 1046 443 1046 l 457 1036 l 461 1032 l 465 1026 q 466 1025 465 1025 q 467 1024 467 1025 l 468 1022 l 468 1019 q 469 1018 469 1019 l 469 1017 q 472 1015 471 1015 l 472 1014 q 473 1013 472 1013 q 474 1012 474 1013 q 475 1010 474 1011 l 475 1008 q 476 1006 475 1007 m 514 81 l 514 85 q 513 74 513 83 q 514 79 513 78 l 514 81 z "},"V":{"ha":715,"x_min":100,"x_max":913,"o":"m 110 46 l 100 943 q 127 1001 100 976 q 189 1035 154 1025 q 254 1038 224 1044 q 293 1001 285 1031 q 329 856 319 949 q 347 556 347 682 q 382 535 361 533 q 514 815 442 681 q 607 988 586 950 q 657 1042 628 1026 q 719 1061 686 1057 q 856 1036 792 1069 q 913 979 904 1019 q 869 832 944 915 q 693 525 782 693 q 478 126 524 201 q 411 20 432 51 q 364 -32 390 -11 q 250 -62 317 -69 q 114 11 133 -58 q 110 46 110 31 z "},"W":{"ha":1074,"x_min":71,"x_max":1242,"o":"m 678 586 q 867 1013 819 1013 q 879 1011 872 1013 q 929 1029 901 1010 q 1013 1076 965 1060 q 1107 1089 1061 1093 q 1242 976 1214 1079 l 1242 972 q 1228 940 1235 953 l 1233 940 q 1167 828 1199 897 q 1118 722 1135 760 q 1071 625 1101 683 q 1001 482 1040 567 q 918 314 961 397 q 714 0 815 114 q 575 -61 663 -62 q 503 -42 538 -60 q 449 14 468 -24 l 419 101 q 378 63 401 86 q 328 14 354 39 q 233 -47 267 -44 q 176 -48 200 -50 q 132 -37 153 -46 q 71 32 85 -19 q 94 639 47 269 q 117 817 107 729 q 206 994 140 940 q 314 1022 261 1042 q 350 994 338 1014 q 358 947 363 975 q 357 821 361 863 q 353 717 351 750 q 352 662 354 683 q 349 622 350 640 q 351 591 349 603 q 361 586 353 579 q 415 685 393 654 q 463 749 438 715 q 531 775 501 783 q 563 765 546 772 q 607 751 579 757 q 631 718 625 736 q 639 710 635 714 q 645 702 643 707 q 652 681 647 697 q 663 645 657 664 q 672 609 668 626 q 678 586 676 592 m 711 4 q 712 3 711 1 q 713 8 713 6 l 711 4 z "},"X":{"ha":833,"x_min":-32,"x_max":997,"o":"m 460 718 l 600 903 q 611 993 585 946 q 776 1100 694 1076 q 936 1097 867 1124 q 990 1054 971 1083 q 997 976 1010 1025 q 863 794 964 904 q 779 707 821 750 q 706 626 738 664 q 650 551 675 589 q 597 475 625 513 q 658 294 611 417 q 722 108 704 171 q 743 -15 740 44 q 726 -42 738 -36 q 703 -49 715 -47 q 682 -49 692 -50 q 671 -57 672 -49 q 669 -85 679 -72 q 640 -103 660 -97 q 546 -99 594 -118 q 450 28 497 -65 q 388 197 421 85 q 338 120 360 160 q 292 43 315 81 q 185 -81 239 -44 q 0 -103 90 -128 q -31 58 -78 -61 q 0 111 -15 100 q 8 118 7 118 q 9 119 8 118 q 13 127 10 121 q 31 153 17 133 q 140 314 79 228 l 169 347 q 214 400 190 372 q 286 485 269 468 q 217 667 229 618 q 192 899 197 753 q 219 988 176 935 q 311 1050 258 1035 q 388 1017 369 1067 q 428 870 414 943 q 460 718 443 797 z "},"Y":{"ha":682,"x_min":4,"x_max":828,"o":"m 167 526 q 147 854 143 728 q 196 968 144 914 q 297 1025 244 1019 q 372 960 356 1029 q 400 869 383 921 q 432 761 417 818 q 481 835 447 782 q 543 929 514 888 q 668 1071 614 1031 q 759 1083 721 1092 q 815 1054 797 1074 q 828 997 832 1035 q 694 722 825 910 q 633 622 664 679 q 560 495 601 565 q 482 356 519 425 q 347 57 396 199 q 358 51 349 60 q 376 25 368 42 q 372 -44 399 -17 q 207 -122 306 -114 q 51 -89 117 -129 q 8 4 -14 -51 l 4 4 q 74 153 35 83 q 154 299 113 224 l 217 410 q 178 443 193 404 q 167 526 167 475 z "},"Z":{"ha":779,"x_min":3,"x_max":842,"o":"m 631 175 q 711 147 690 176 q 724 81 732 118 q 685 6 717 43 q 608 -44 654 -31 q 389 -94 524 -82 q 150 -92 268 -107 q 51 -57 79 -82 q 3 79 -4 -8 q 19 147 6 121 q 90 253 42 183 q 185 379 138 322 q 281 489 233 436 q 499 749 465 696 q 519 792 506 760 q 265 796 393 763 q 199 858 217 808 q 226 960 179 913 q 428 1069 294 1033 q 678 1094 553 1103 q 713 1081 700 1088 q 740 1057 725 1075 l 742 1031 q 765 1025 749 1028 q 789 1019 781 1022 q 807 1008 797 1015 q 825 989 817 1001 q 841 897 842 961 q 810 756 840 832 q 738 608 781 681 q 645 472 694 536 q 561 363 596 407 q 506 291 526 318 q 476 244 486 264 q 479 190 458 210 l 631 175 m 647 172 l 635 172 l 647 172 z "},"[":{"ha":744,"x_min":-56,"x_max":804,"o":"m 682 1001 q 575 989 575 990 q 574 988 575 988 l 574 985 l 551 960 l 524 942 q 465 785 488 863 l 453 721 q 428 610 442 668 q 400 492 414 551 q 357 260 364 325 q 331 125 350 196 q 297 -11 313 54 q 421 -4 357 -3 q 529 -33 485 -6 q 586 -96 574 -60 q 573 -169 599 -132 q 471 -228 547 -206 q 338 -226 406 -218 q 205 -243 271 -235 q 76 -252 139 -251 q -42 -226 14 -253 q -43 -224 -42 -225 q -55 -135 -71 -172 q 0 -79 -39 -99 q 58 171 26 43 q 119 429 89 299 q 231 986 218 851 q 247 1088 239 1067 q 260 1118 254 1110 q 267 1128 265 1126 q 271 1133 269 1131 q 274 1132 271 1132 q 307 1164 288 1149 q 528 1171 432 1211 q 594 1160 590 1164 l 608 1160 q 639 1161 615 1160 q 769 1151 717 1168 q 801 1104 792 1138 q 804 1043 811 1071 q 717 1003 782 1004 q 682 1001 699 1001 z "},"\\":{"ha":788,"x_min":14,"x_max":693,"o":"m 338 1092 l 347 1063 q 378 953 365 1010 q 417 801 392 896 q 483 581 443 707 q 563 332 524 456 q 692 -181 653 47 q 693 -276 710 -237 q 646 -335 676 -315 q 583 -352 615 -354 q 540 -325 551 -350 q 350 181 458 -150 q 263 442 306 313 q 180 669 219 572 q 110 840 140 767 q 38 981 81 913 q 35 1075 8 1038 q 14 1175 0 1146 q 156 1242 63 1251 q 222 1231 199 1238 q 322 1160 296 1197 q 338 1092 347 1124 z "},"]":{"ha":757,"x_min":-7,"x_max":856,"o":"m 394 476 q 401 506 394 476 q 424 605 408 536 q 453 725 440 674 q 470 806 465 776 q 481 871 475 836 q 501 974 499 965 q 503 989 503 982 q 443 983 475 983 q 378 985 411 983 q 313 991 346 988 q 244 997 281 994 q 174 1013 207 999 q 128 1050 140 1026 q 186 1174 101 1101 q 435 1207 290 1214 q 535 1209 486 1206 q 625 1215 583 1213 q 701 1218 667 1218 q 758 1208 735 1218 q 796 1118 806 1188 q 804 1106 794 1113 q 826 1090 814 1099 q 847 1075 838 1082 q 856 1063 857 1068 q 540 7 728 686 q 525 -72 532 -33 q 508 -144 518 -111 q 453 -237 489 -221 q 222 -272 388 -268 q 50 -250 118 -275 q 1 -214 17 -236 q -6 -175 -12 -190 q 19 -143 0 -160 q 117 -112 58 -121 q 201 -99 176 -103 q 229 -90 225 -96 q 311 125 265 -36 q 338 228 322 168 q 367 352 353 289 q 394 476 381 415 z "},"^":{"ha":749,"x_min":42,"x_max":750,"o":"m 631 1069 l 635 1036 q 701 803 674 932 q 731 728 715 769 q 750 650 747 688 q 669 550 757 563 q 603 556 633 547 q 554 599 572 564 q 552 628 551 614 q 553 657 553 642 q 517 735 542 697 q 471 808 493 772 q 356 679 411 731 q 200 639 279 633 q 57 678 110 633 q 42 804 0 728 q 188 969 139 921 q 372 1131 275 1057 q 399 1152 385 1140 q 428 1175 413 1164 q 501 1203 464 1199 q 579 1202 539 1208 q 651 1156 619 1196 q 631 1069 671 1110 z "},"_":{"ha":1157,"x_min":-85,"x_max":1124,"o":"m 443 29 q 647 33 501 33 q 1031 18 792 33 q 1093 -22 1067 8 q 1124 -89 1119 -53 q 1103 -158 1128 -125 q 1015 -204 1079 -192 q 978 -211 994 -207 q 944 -219 961 -215 q 868 -224 908 -228 q 653 -224 740 -224 q 520 -224 565 -224 q 413 -227 475 -225 q 263 -233 351 -229 q 42 -240 175 -236 q -57 -206 -28 -229 q -85 -153 -86 -182 q -53 -97 -83 -125 q 26 -49 -24 -69 q 67 46 1 18 q 338 44 107 60 q 478 32 461 38 q 443 29 486 29 z "},"`":{"ha":392,"x_min":60,"x_max":354,"o":"m 61 1110 q 108 1211 49 1178 q 226 1229 161 1239 q 303 1208 267 1228 q 354 1153 339 1189 q 344 1078 343 1117 q 346 969 347 994 q 329 932 344 944 q 294 917 314 919 q 218 931 253 911 q 206 950 211 944 q 197 958 200 951 q 161 1004 192 974 l 111 1054 q 85 1072 90 1064 q 61 1101 74 1085 l 60 1108 l 61 1110 z "},"a":{"ha":744,"x_min":11,"x_max":728,"o":"m 636 596 l 642 594 q 644 593 644 594 q 704 572 681 607 q 728 500 719 549 q 714 315 731 433 q 679 31 682 76 q 619 -36 682 -18 q 511 -35 565 -53 q 464 25 454 -15 q 442 -5 453 4 q 398 -30 431 -14 q 306 -56 365 -46 q 186 -62 246 -67 q 77 -33 126 -57 q 11 43 28 -8 q 19 297 -21 143 q 119 476 47 399 q 308 624 203 565 q 461 675 388 667 q 505 674 486 678 q 545 665 524 669 q 586 653 567 661 q 636 596 636 632 m 379 228 q 395 276 389 247 q 413 340 401 306 q 240 228 300 294 q 249 126 175 154 q 342 147 313 110 q 364 189 354 164 q 388 240 374 214 q 379 228 383 233 z "},"b":{"ha":736,"x_min":4,"x_max":724,"o":"m 265 -4 l 231 -36 q 176 -60 203 -56 l 178 -61 l 171 -67 q 25 -24 72 -75 q 4 118 -24 31 q 175 760 65 464 q 317 1028 249 960 q 383 1049 353 1063 q 413 1101 392 1082 q 458 1123 433 1119 q 507 1115 483 1126 q 544 1072 531 1103 q 555 1013 557 1042 q 542 958 553 985 q 517 904 532 931 q 490 851 503 878 q 364 535 401 638 l 376 543 q 572 597 468 604 q 655 573 618 593 q 709 513 692 553 q 723 409 726 472 q 699 278 719 346 q 642 147 678 211 q 564 36 607 83 q 376 -44 467 -71 q 286 -8 338 -50 q 265 7 275 1 l 265 -4 m 303 96 q 374 185 324 119 q 442 287 425 250 q 433 356 460 324 q 367 306 407 389 q 303 96 303 172 z "},"c":{"ha":618,"x_min":31,"x_max":657,"o":"m 569 682 q 642 644 624 675 q 657 577 661 613 q 631 513 653 542 q 583 483 610 485 q 553 443 574 454 q 507 428 532 432 q 455 419 482 424 q 404 394 428 414 q 365 356 381 375 q 339 319 349 338 q 310 244 322 289 q 339 188 307 214 q 421 162 376 158 q 492 158 465 165 q 533 136 519 150 q 528 63 564 104 q 294 -69 458 -49 q 197 -73 246 -76 q 103 -36 149 -69 q 31 54 57 -3 q 40 358 -28 185 q 236 608 106 521 q 569 682 379 706 z "},"d":{"ha":753,"x_min":-8,"x_max":910,"o":"m 282 568 q 400 589 333 603 q 475 531 467 574 q 492 583 486 557 q 629 1014 554 865 q 678 1078 653 1060 q 815 1089 743 1119 q 861 1055 844 1076 q 874 1015 878 1033 q 877 986 871 997 q 892 964 883 975 q 910 918 914 938 q 835 691 882 808 q 740 457 789 574 q 652 227 692 340 q 600 13 613 114 q 578 -35 600 -14 q 522 -69 556 -57 q 375 -58 443 -97 l 375 -50 q 355 -44 361 -46 q 346 -39 349 -43 q 339 4 342 -32 q 285 -49 311 -39 q 231 -58 258 -58 q 39 -10 96 -58 q -8 126 -11 32 q 69 363 -6 232 q 282 568 156 511 m 281 113 q 342 133 325 97 q 360 181 351 151 q 383 249 369 210 l 389 276 q 328 282 356 296 q 285 239 301 268 q 265 174 268 210 q 281 113 263 138 z "},"e":{"ha":669,"x_min":4,"x_max":653,"o":"m 485 206 q 433 186 458 193 q 375 172 408 179 q 249 151 288 154 q 290 118 253 138 q 345 126 315 114 q 408 148 375 138 q 472 160 440 158 q 531 136 503 161 q 549 107 542 111 q 561 103 556 103 q 574 99 567 103 q 594 67 581 94 q 587 14 607 39 q 525 -29 567 -11 q 428 -58 483 -47 q 317 -74 372 -69 q 126 -54 192 -83 q 4 72 32 -22 q 44 364 -32 197 q 154 531 79 442 q 300 643 219 608 q 494 681 393 683 q 644 586 603 678 q 653 450 665 538 q 594 289 631 336 q 485 206 558 243 m 404 425 q 289 342 331 440 q 269 286 276 315 q 369 339 317 281 q 399 387 389 363 q 404 425 408 411 z "},"f":{"ha":606,"x_min":-18,"x_max":831,"o":"m 479 636 q 640 661 532 654 q 660 604 665 647 q 628 539 656 561 q 557 471 594 489 q 506 453 536 461 q 433 433 476 446 q 372 222 406 356 q 324 44 338 89 q 278 -62 292 -58 q 208 -125 246 -112 q 138 -126 169 -137 q 88 -84 106 -114 q 81 -21 71 -54 q 93 174 76 14 q 110 357 110 333 q 96 364 104 363 q 85 371 88 365 q 65 386 72 375 q 39 414 53 406 q -2 428 14 411 q -18 469 -18 446 q -1 518 -18 493 q 56 557 15 543 l 197 601 q 303 857 214 714 q 348 931 324 892 q 415 1005 372 971 q 505 1058 458 1039 q 599 1081 551 1076 q 688 1079 647 1085 q 800 1022 772 1068 q 830 917 833 964 q 792 847 826 871 q 697 836 736 811 q 675 864 682 844 q 649 878 668 883 q 604 852 629 872 q 553 801 579 832 q 508 739 528 771 q 479 636 460 665 z "},"g":{"ha":753,"x_min":-54,"x_max":719,"o":"m 582 554 q 644 597 606 597 q 719 489 704 564 q 686 354 735 414 q 688 331 685 353 q 669 42 713 192 q 634 -51 654 -8 q 584 -160 614 -94 q 500 -289 554 -225 q 378 -390 446 -353 q 58 -425 235 -471 q -31 -367 -6 -400 q -53 -281 -62 -326 q 14 -218 -43 -224 q 83 -239 42 -215 q 160 -237 131 -249 q 206 -217 189 -226 q 250 -194 224 -208 q 354 -86 296 -171 q 418 33 386 -42 q 254 -31 367 -32 q 183 -28 222 -29 q 111 -1 143 -26 q 60 64 79 24 q 34 156 40 104 q 33 263 28 208 q 192 561 56 451 q 392 643 285 638 q 489 632 443 646 q 582 554 544 611 m 413 239 q 414 246 413 243 q 400 251 407 249 q 375 258 393 253 q 326 252 357 264 q 273 220 296 240 q 237 178 250 200 q 233 140 224 156 q 265 128 242 125 q 317 149 289 132 q 413 239 378 186 z "},"h":{"ha":821,"x_min":-22,"x_max":782,"o":"m 753 149 q 771 21 753 75 q 750 -42 771 -24 q 698 -62 729 -61 q 632 -49 667 -62 q 573 -17 597 -36 q 542 15 549 3 q 519 50 535 26 q 497 193 496 160 q 503 250 499 226 q 407 188 433 214 q 325 63 358 139 q 307 -2 314 1 q 289 -7 300 -6 q 265 -17 278 -8 q 242 -31 253 -25 q 219 -42 231 -36 q 185 -57 193 -57 q 33 -35 106 -82 q -14 19 3 -14 q -22 89 -31 51 q 142 613 38 346 q 264 869 206 775 q 292 917 278 892 q 332 985 321 967 q 333 1048 318 1021 q 377 1091 347 1075 q 446 1113 407 1107 q 519 1114 485 1118 q 608 1049 603 1101 q 585 989 600 1024 q 556 919 571 954 q 528 853 542 883 q 509 808 515 822 q 491 758 503 793 q 466 681 479 722 q 442 606 453 640 l 425 557 q 407 498 419 538 q 381 400 394 458 q 410 433 399 414 q 445 475 422 451 q 505 522 468 499 q 583 551 542 544 q 747 493 674 567 q 782 326 803 438 q 762 234 774 281 q 753 149 750 188 z "},"i":{"ha":446,"x_min":-12,"x_max":532,"o":"m 183 601 q 269 664 201 647 q 389 660 333 681 q 440 588 446 638 q 402 469 425 539 q 358 325 379 399 q 294 58 303 136 q 225 -76 274 -67 q 199 -81 211 -79 q 160 -97 168 -82 q 132 -120 151 -112 q 90 -127 113 -128 q 43 -116 67 -126 q 3 -86 19 -106 q -12 40 -36 -39 q 100 425 10 192 q 183 601 143 540 m 446 810 q 335 818 378 796 q 286 872 293 840 q 306 936 279 903 q 397 990 336 978 q 438 993 425 993 q 468 988 450 993 q 528 947 514 983 q 531 878 547 917 q 446 810 515 839 z "},"j":{"ha":497,"x_min":-301,"x_max":579,"o":"m 139 278 q 190 449 171 404 q 315 586 235 542 q 383 615 349 614 q 447 592 444 618 q 459 557 450 565 q 478 542 468 549 q 498 524 489 536 q 510 479 507 513 q 81 -362 311 -253 q -143 -386 -26 -411 q -300 -286 -254 -361 q -274 -124 -350 -207 q -172 -106 -236 -79 q -143 -117 -156 -111 q -113 -146 -119 -133 q -103 -168 -107 -158 q -92 -190 -100 -178 q -67 -208 -82 -196 q -56 -201 -58 -204 l -25 -165 q 14 -85 -1 -122 q 46 -8 29 -49 q 76 72 63 33 q 99 142 90 111 q 117 203 108 174 q 139 278 125 233 m 329 911 q 454 1000 375 999 q 567 943 524 1003 q 579 821 611 882 q 475 761 549 761 q 361 806 408 761 q 329 911 308 854 z "},"k":{"ha":661,"x_min":-26,"x_max":696,"o":"m 274 1090 q 347 1132 304 1128 q 431 1119 390 1136 q 499 1066 471 1101 q 531 988 528 1031 l 518 947 q 545 918 533 929 q 558 883 557 907 q 489 729 567 864 q 422 613 457 674 q 364 506 386 553 q 397 513 381 510 q 431 519 414 515 q 569 547 533 546 q 629 539 606 547 q 696 461 693 514 q 550 333 676 415 q 503 303 521 315 l 382 217 q 368 188 372 201 l 368 186 q 403 167 371 179 q 460 144 436 154 q 558 76 515 119 q 576 31 572 61 q 567 -24 581 1 q 521 -60 554 -49 q 428 -50 488 -71 q 221 124 340 -11 q 194 28 207 75 q 165 -67 181 -18 q 68 -111 144 -114 q 13 -99 38 -111 q -15 -65 -11 -86 q -26 -20 -26 -35 q -19 14 -26 -6 q 21 142 13 94 q 32 199 29 190 q -14 278 -7 224 q 11 372 -22 331 q 75 397 56 389 q 103 511 83 450 q 156 701 138 621 q 210 884 175 782 q 274 1090 246 986 z "},"l":{"ha":408,"x_min":-17,"x_max":578,"o":"m 273 54 q 268 40 273 54 q 253 3 264 25 q 219 -39 242 -19 q 167 -76 197 -58 q 108 -100 136 -93 q 42 -62 44 -114 q 24 -47 38 -49 q 0 -39 11 -44 q -17 29 -29 -26 q 32 215 6 106 q 100 454 58 324 q 344 1025 199 771 q 367 1058 354 1038 q 399 1094 379 1078 q 518 1115 447 1139 q 526 1083 517 1097 q 549 1053 536 1068 q 578 988 581 1017 q 313 208 431 639 q 290 121 299 158 q 273 54 282 83 z "},"m":{"ha":1065,"x_min":-35,"x_max":1050,"o":"m 193 604 q 226 647 196 631 q 294 664 257 664 q 367 647 332 664 q 415 588 403 629 q 631 667 533 690 q 688 628 664 660 q 844 717 758 696 q 1000 667 953 721 q 1014 651 1007 660 q 1036 624 1033 631 q 1050 444 1061 585 q 981 79 1035 263 q 928 -17 951 -14 q 902 -17 914 -19 q 881 -13 890 -14 q 871 -29 872 -12 q 786 -65 843 -65 q 692 -31 731 -65 q 662 55 649 6 q 692 156 675 104 q 728 264 708 208 q 801 467 761 361 q 722 341 772 433 q 660 231 672 249 q 621 156 636 183 q 580 113 606 129 q 533 93 554 97 q 492 92 511 89 q 426 131 446 99 q 418 153 422 142 q 411 183 414 164 q 422 324 407 226 l 419 319 q 431 328 436 336 q 364 226 375 249 q 340 177 353 204 q 311 115 328 150 q 285 51 294 79 q 261 -3 275 24 q 42 -90 199 -111 q -15 -74 8 -86 q -35 -39 -39 -62 q 17 146 -24 17 q 111 475 96 401 q 128 526 121 500 q 144 572 136 553 q 193 604 161 618 m 675 261 l 675 258 q 675 261 678 264 z "},"n":{"ha":906,"x_min":-17,"x_max":903,"o":"m 232 601 q 357 603 325 639 q 374 549 374 583 l 374 542 q 553 642 425 601 q 775 665 688 683 q 903 517 889 642 q 854 249 914 411 q 824 181 835 207 q 806 135 814 156 q 749 42 788 96 q 680 -22 726 0 q 588 -48 633 -44 q 514 -34 543 -51 q 497 21 485 -17 q 550 178 529 107 q 593 299 571 249 q 599 388 614 369 q 556 383 586 401 q 518 344 529 367 q 424 200 493 326 q 385 131 404 165 q 351 68 367 97 q 323 19 335 39 q 302 -6 311 0 q 287 -15 293 -12 q 276 -19 281 -17 q 269 -37 272 -22 q 203 -85 264 -69 q 25 -76 104 -110 q -17 -46 -1 -65 q 93 389 -49 18 q 158 544 143 519 q 203 604 193 597 q 232 601 214 611 z "},"o":{"ha":728,"x_min":15,"x_max":713,"o":"m 194 593 q 267 603 224 614 q 283 601 275 601 q 389 667 314 664 q 443 674 408 668 q 527 671 478 679 q 614 642 576 663 q 713 514 696 597 q 703 247 746 392 q 547 -8 657 88 q 442 -65 497 -53 q 342 -78 386 -76 q 260 -78 297 -79 q 189 -71 224 -78 q 65 0 114 -56 q 17 194 8 63 q 76 430 22 311 q 194 593 129 549 m 439 314 q 374 304 404 303 q 347 272 358 289 q 315 240 335 254 q 296 228 296 225 q 257 159 272 194 q 257 88 242 124 q 339 90 313 82 q 388 122 365 99 q 424 178 411 146 q 439 314 449 238 z "},"p":{"ha":817,"x_min":-93,"x_max":803,"o":"m 335 568 q 528 693 404 672 q 627 703 568 700 q 728 676 686 706 q 792 601 771 647 q 803 400 828 519 q 769 256 789 335 q 711 101 750 178 q 610 -42 672 25 q 447 -147 547 -108 q 342 -165 388 -171 q 275 -146 297 -158 q 244 -110 253 -133 q 192 -270 217 -189 q 128 -425 168 -351 q 60 -452 100 -443 q -19 -448 19 -461 q -76 -401 -58 -435 q -93 -326 -93 -367 q -67 -194 -93 -272 q -3 -17 -28 -79 q 28 65 21 46 q 42 104 35 83 q 87 235 72 185 q 114 324 101 286 l 114 325 q 158 455 128 386 q 199 539 188 524 q 247 568 222 563 q 304 575 272 574 l 308 575 l 335 568 m 440 336 q 385 282 424 307 l 372 253 q 346 179 358 217 q 318 106 333 142 q 339 79 332 92 q 481 258 417 147 q 513 350 506 304 q 517 408 521 396 q 503 421 513 421 q 485 416 494 421 q 472 406 476 411 q 472 406 467 401 q 450 374 457 388 q 440 336 443 361 z "},"q":{"ha":800,"x_min":-24,"x_max":822,"o":"m 169 535 q 288 601 222 572 q 415 642 354 631 q 524 644 476 654 q 586 596 571 635 q 589 599 589 603 q 588 590 589 594 q 588 585 588 586 q 589 582 589 583 q 614 594 592 589 q 661 614 656 607 q 689 653 664 647 q 743 647 714 658 q 797 610 772 635 q 822 560 821 586 q 801 494 821 556 q 750 347 781 432 q 694 200 719 263 q 649 88 669 138 q 613 -11 629 39 q 547 -261 574 -128 q 540 -279 546 -286 q 529 -253 535 -272 q 526 -185 513 -193 q 700 -164 663 -115 q 708 -222 715 -185 q 677 -299 700 -260 q 619 -375 654 -339 q 543 -429 583 -411 q 385 -422 461 -457 q 344 -404 364 -414 q 261 -282 268 -368 q 266 -170 256 -207 q 288 -108 276 -133 q 313 -44 299 -82 q 181 -103 292 -96 q 29 -69 72 -110 q -24 13 -19 -21 q 6 311 -56 157 q 169 535 65 458 m 368 214 q 385 251 375 231 q 396 290 394 271 q 400 326 397 308 l 397 326 q 288 299 314 315 q 247 262 263 283 q 223 222 232 240 q 210 193 214 203 q 206 171 207 183 q 212 129 200 138 q 235 121 224 121 q 260 122 247 121 q 368 214 335 136 z "},"r":{"ha":551,"x_min":-15,"x_max":606,"o":"m 144 575 q 199 651 164 625 q 267 683 235 676 q 322 675 300 689 q 336 632 343 661 q 413 681 363 658 q 492 711 463 703 q 542 719 521 719 q 568 669 588 717 q 603 639 592 665 q 606 581 614 613 q 568 518 597 549 q 490 476 539 488 q 408 426 440 465 q 350 328 375 386 q 275 49 308 229 q 185 -61 264 -17 q 47 -86 110 -104 q -15 18 -24 -67 q 21 177 -12 78 q 72 327 54 276 q 97 404 90 378 l 144 575 z "},"s":{"ha":703,"x_min":-50,"x_max":661,"o":"m 501 -33 q 373 -101 447 -78 q 224 -125 299 -124 q 83 -107 149 -126 q -19 -46 18 -87 q -50 49 -64 1 q -26 79 -43 68 q 17 85 -8 90 q 41 94 33 83 q 54 117 49 104 q 67 142 60 131 q 89 154 74 154 q 343 197 333 147 q 302 224 326 213 q 253 246 278 235 q 171 307 192 274 q 131 374 144 321 q 124 422 124 397 q 132 468 124 447 q 199 588 128 522 q 247 626 218 606 q 335 667 276 647 q 451 695 393 686 q 555 701 508 704 q 622 679 601 699 q 653 631 642 660 q 661 574 665 601 q 558 488 650 511 q 447 457 443 471 q 438 450 447 454 q 586 306 544 376 q 603 89 643 208 q 533 -8 610 50 q 501 -33 515 -22 z "},"t":{"ha":606,"x_min":15,"x_max":714,"o":"m 376 1039 l 378 1044 l 390 1057 q 424 1100 406 1093 q 449 1107 433 1103 q 489 1128 464 1111 q 529 1145 499 1147 q 590 1126 560 1143 q 638 1078 619 1108 q 647 1015 657 1047 q 631 966 638 982 q 619 936 625 950 q 603 905 613 922 q 581 858 594 888 l 535 763 q 523 742 528 744 q 514 732 518 739 q 535 736 526 735 q 551 739 543 738 q 596 744 571 742 q 622 742 611 742 l 642 742 q 682 733 658 742 q 713 701 706 724 q 714 656 719 679 q 692 614 708 633 q 649 593 675 594 q 476 557 528 560 l 468 547 l 468 546 q 438 462 454 513 q 403 352 422 411 q 365 230 385 293 q 325 108 346 167 q 228 -104 258 -87 q 205 -112 217 -110 q 192 -115 193 -114 q 111 -96 143 -112 q 68 -64 79 -79 q 63 -29 57 -49 q 168 500 89 213 q 129 494 140 500 q 79 482 108 483 l 78 482 q 38 503 56 483 q 15 547 19 522 q 24 599 11 572 q 74 640 36 625 q 139 661 118 653 q 206 685 179 678 q 237 694 233 692 q 242 697 240 696 q 263 700 246 700 q 279 782 271 740 q 300 867 288 824 q 376 1039 328 967 z "},"u":{"ha":842,"x_min":7,"x_max":913,"o":"m 181 610 q 267 653 219 647 q 352 643 315 660 q 406 590 389 626 q 401 506 424 553 q 326 356 354 436 q 275 193 299 275 q 489 433 403 274 q 543 529 514 481 l 564 568 l 606 635 q 635 669 614 661 q 680 676 656 676 q 729 676 704 676 q 775 689 754 675 q 824 699 796 703 q 876 681 853 696 q 910 644 899 665 q 913 601 922 622 q 753 136 854 476 q 708 8 729 60 q 621 -50 674 -35 q 522 -59 568 -65 q 447 -27 475 -53 q 435 38 419 -1 q 354 -21 396 6 q 253 -56 313 -47 q 140 -51 194 -64 q 48 0 86 -37 q 7 100 10 38 q 181 610 -1 319 z "},"v":{"ha":707,"x_min":44,"x_max":786,"o":"m 307 617 q 319 449 314 533 q 336 282 325 365 q 383 390 361 333 q 429 503 404 447 q 561 694 489 633 q 694 743 606 743 q 761 710 747 743 q 757 665 768 693 q 786 553 825 617 q 764 522 775 536 q 654 338 704 422 q 507 97 572 197 q 445 23 485 64 q 358 -47 406 -18 q 182 -74 247 -119 q 101 -46 139 -68 q 44 13 64 -24 q 58 363 15 89 q 71 454 68 424 q 78 510 74 485 q 85 557 82 535 q 90 602 88 579 q 103 644 93 625 q 189 693 126 689 l 206 693 q 253 681 231 688 q 303 628 290 667 q 307 617 304 624 z "},"w":{"ha":985,"x_min":1,"x_max":1032,"o":"m 660 507 q 644 401 650 426 q 636 354 639 375 q 642 350 635 343 q 663 376 650 357 q 693 421 676 394 q 725 475 710 447 q 765 576 760 542 q 765 587 764 582 q 762 608 765 592 q 764 647 758 624 q 785 688 769 671 q 883 715 818 724 q 963 701 942 713 q 1032 626 1000 681 q 1014 475 1047 593 q 883 136 974 326 q 836 51 858 86 q 772 -7 814 17 q 683 -40 731 -31 q 507 -21 579 -61 q 485 -4 496 -11 q 458 22 474 3 q 403 204 410 88 q 353 92 382 133 q 244 -25 308 33 q 89 -58 176 -65 q 38 -46 60 -57 q 10 -17 18 -29 q 1 31 1 -6 q 35 211 1 94 q 55 285 43 242 q 78 374 67 328 q 112 542 108 508 q 118 589 115 576 q 157 625 131 613 q 212 638 183 638 q 264 624 240 638 q 296 581 288 610 l 297 581 l 297 579 q 339 421 339 501 q 405 495 376 471 q 461 531 433 519 q 524 549 503 546 q 571 556 546 551 q 619 561 596 561 q 660 507 674 558 z "},"x":{"ha":649,"x_min":-24,"x_max":722,"o":"m 499 620 q 517 634 499 620 q 549 661 535 647 q 578 688 563 675 q 607 703 593 700 q 638 701 621 706 q 670 692 656 696 q 688 686 685 688 q 713 646 703 671 q 722 607 722 621 q 714 582 722 593 q 567 378 686 510 q 515 324 538 344 q 533 214 528 282 q 551 53 547 74 q 557 22 556 32 q 565 3 558 13 q 551 -35 571 -21 q 500 -56 531 -49 q 392 -60 436 -71 q 360 -18 369 -43 q 317 103 346 11 q 288 69 301 86 q 260 36 274 53 l 240 10 q 224 -12 232 -1 q 207 -36 217 -24 q 149 -82 188 -58 q 79 -96 111 -97 q 14 -64 19 -92 q -24 -30 -18 -53 q -17 43 -29 -7 q 204 354 108 271 q 185 414 192 374 q 157 511 169 489 q 107 547 122 521 q 115 621 92 574 l 132 640 q 244 699 186 689 q 350 671 301 708 q 429 593 386 657 q 443 565 440 576 q 499 620 464 593 z "},"y":{"ha":792,"x_min":36,"x_max":825,"o":"m 51 425 q 51 453 51 425 q 42 518 51 482 q 42 578 32 554 q 76 613 53 603 q 130 619 99 622 q 192 600 161 615 q 294 506 265 567 q 290 430 301 475 q 263 337 278 385 q 233 244 247 289 q 222 168 219 199 q 285 235 258 190 q 335 330 313 279 q 378 431 358 381 q 417 510 399 481 q 447 556 436 539 q 469 588 458 574 q 517 633 488 611 q 567 631 525 640 q 630 619 610 622 q 657 621 650 615 l 676 635 q 768 633 715 654 q 822 565 819 611 q 821 560 821 564 l 825 558 l 815 550 q 801 526 806 532 q 781 507 796 519 q 564 131 686 406 q 508 8 533 63 q 565 -53 546 -15 q 565 -135 585 -90 q 436 -307 450 -226 q 419 -378 429 -357 q 386 -418 408 -399 q 210 -390 311 -474 q 203 -210 138 -318 q 235 -149 219 -181 q 306 -8 257 -101 q 86 -6 186 -78 q 36 240 15 49 q 51 425 50 368 z "},"z":{"ha":719,"x_min":3,"x_max":742,"o":"m 378 135 q 468 140 419 146 q 553 113 517 135 q 602 51 589 90 q 585 -42 615 13 q 523 -51 569 -43 q 415 -69 476 -60 q 284 -87 353 -79 q 156 -97 215 -96 q 3 -65 18 -103 q 122 231 -51 56 q 207 312 168 275 q 270 375 246 349 q 288 414 294 401 q 256 422 261 419 q 208 434 246 429 q 149 460 169 439 q 133 510 129 482 q 160 569 136 539 q 226 621 185 599 q 316 658 268 643 q 414 683 364 674 q 611 708 497 701 q 633 698 626 708 q 644 676 639 688 q 659 655 650 664 q 696 649 668 646 q 735 626 724 653 q 742 558 747 599 q 715 476 736 518 q 661 408 694 433 q 453 204 494 242 l 378 135 m 67 108 q 67 108 68 110 q 63 106 65 107 q 67 108 64 106 z "},"{":{"ha":703,"x_min":40,"x_max":775,"o":"m 594 1154 l 649 1153 q 675 1147 651 1153 q 731 1122 699 1140 q 775 1081 764 1103 q 704 979 797 1029 q 647 965 692 975 q 669 971 656 967 q 628 903 636 940 q 620 828 621 867 q 618 751 619 790 q 595 674 617 713 q 554 608 574 636 q 514 558 535 579 q 404 497 479 524 q 410 470 421 488 q 394 440 400 453 q 392 402 388 428 q 388 342 396 376 q 369 274 381 307 q 348 210 358 242 q 339 150 338 179 q 414 42 340 86 q 511 -26 488 0 q 540 -131 556 -76 q 491 -176 522 -160 q 432 -199 460 -193 q 308 -197 389 -207 q 246 -176 267 -189 q 136 -83 203 -157 q 62 35 69 -11 q 72 126 54 81 q 104 201 90 171 q 138 264 118 231 q 172 333 157 297 q 164 447 208 424 q 154 450 163 447 q 133 456 146 453 q 90 474 113 463 q 42 497 49 483 q 64 551 26 524 q 139 568 104 571 q 367 658 300 597 q 395 708 393 682 q 393 757 397 733 q 390 747 397 738 q 347 883 361 800 q 383 1044 332 976 q 439 1103 422 1094 q 471 1118 456 1113 q 569 1153 506 1142 q 594 1154 582 1154 z "},"|":{"ha":585,"x_min":26,"x_max":558,"o":"m 272 1047 q 275 1064 272 1047 q 288 1106 278 1081 q 318 1156 297 1132 q 368 1201 339 1179 q 425 1231 397 1222 q 494 1192 488 1253 q 513 1174 500 1176 q 539 1168 526 1172 q 558 1092 567 1158 q 522 876 542 1001 q 469 600 503 750 q 263 -65 389 225 q 242 -105 254 -81 q 211 -150 231 -129 q 94 -179 165 -201 q 60 -110 94 -149 q 26 -37 26 -71 q 197 639 128 300 q 256 953 247 892 q 272 1047 265 1014 z "},"}":{"ha":808,"x_min":47,"x_max":751,"o":"m 455 -53 q 451 -62 455 -53 q 435 -90 447 -71 q 407 -127 422 -108 q 379 -153 392 -146 q 351 -167 367 -160 q 254 -206 318 -192 q 215 -210 235 -210 l 176 -210 q 104 -187 149 -210 q 47 -142 60 -165 q 113 -39 21 -90 q 140 -31 122 -36 q 168 -22 157 -26 q 147 -29 161 -25 q 180 39 178 3 q 176 113 182 75 q 165 190 169 151 q 178 264 160 228 q 296 391 221 349 q 461 457 371 433 q 406 672 365 514 q 424 738 414 706 q 442 803 433 771 q 436 847 433 824 q 437 883 439 871 q 422 910 435 894 q 391 933 407 921 q 358 956 375 944 q 225 1025 249 960 q 224 1078 217 1049 q 322 1149 260 1136 q 453 1156 385 1163 q 484 1149 472 1151 q 517 1138 496 1147 q 561 1110 538 1128 q 606 1069 585 1092 q 661 972 653 1017 q 687 854 686 911 q 676 770 688 797 q 654 724 664 743 q 633 681 644 704 q 613 632 622 657 q 600 585 604 607 q 626 518 593 533 q 649 513 631 518 q 681 503 668 507 q 701 496 693 500 q 751 474 743 486 q 732 418 767 449 q 657 399 693 399 q 504 347 551 372 q 408 242 411 297 q 413 197 406 224 q 415 208 408 214 q 464 72 442 168 q 467 0 472 36 q 455 -53 463 -36 z "},"~":{"ha":644,"x_min":4,"x_max":638,"o":"m 103 635 l 114 638 l 150 667 q 288 703 238 724 q 331 680 314 694 q 356 643 349 665 q 370 609 363 621 q 390 577 378 597 q 418 542 401 557 q 488 561 453 543 l 511 583 q 535 607 522 596 q 596 627 574 632 q 628 608 618 622 q 638 563 638 593 q 576 472 632 518 q 479 385 510 399 q 365 375 429 358 q 335 393 350 378 l 303 425 q 228 458 261 467 q 190 425 208 443 q 156 392 172 407 q 89 368 114 358 q 53 392 64 378 q 7 439 18 408 q 4 504 -4 469 q 103 635 22 581 m 74 610 q 76 610 69 606 q 92 619 82 614 l 74 610 z "},"":{"ha":514,"x_min":44,"x_max":725,"o":"m 68 -76 q 56 -53 63 -60 q 46 -44 49 -47 q 53 -19 39 -37 q 88 39 65 6 q 139 126 128 99 q 228 335 196 240 q 282 507 260 431 q 325 642 304 583 q 383 743 350 710 q 443 781 400 771 q 531 784 486 790 q 606 756 575 778 q 629 697 638 733 q 583 478 614 567 q 528 331 551 389 q 489 226 506 272 q 458 145 472 179 q 424 73 443 111 q 381 -5 404 35 q 335 -78 358 -44 q 243 -169 281 -154 q 167 -186 206 -183 q 101 -178 129 -189 q 61 -142 72 -167 q 68 -76 50 -117 m 400 971 q 463 1056 415 1028 q 565 1087 511 1085 q 666 1066 619 1089 q 724 995 713 1043 q 709 913 736 947 q 644 869 682 879 q 556 854 607 858 q 464 860 506 850 q 400 896 422 869 q 400 971 378 922 z "},"":{"ha":682,"x_min":17,"x_max":638,"o":"m 551 674 q 636 604 619 658 q 631 513 653 553 q 568 483 606 469 q 538 430 558 446 q 490 407 517 414 q 436 394 464 400 q 385 368 408 388 q 346 334 361 349 q 322 307 331 319 q 294 244 306 285 q 325 188 292 215 q 406 162 361 158 q 478 158 451 165 q 519 136 506 150 q 514 63 550 104 q 281 -69 444 -49 q 183 -73 232 -76 q 89 -36 135 -69 q 17 54 43 -3 q 25 358 -43 185 q 225 614 90 524 q 551 674 371 714 m 322 727 q 327 739 322 727 q 342 767 332 750 q 376 810 353 785 q 423 865 399 836 q 488 896 447 893 q 528 882 506 885 q 569 874 550 879 q 599 856 588 868 q 606 813 610 843 q 440 585 515 693 q 321 371 365 478 q 269 153 276 264 q 307 -81 261 43 q 285 -115 300 -92 q 250 -161 271 -139 q 143 -201 194 -218 q 104 -211 115 -218 q 90 -185 93 -204 q 89 -142 86 -165 q 94 -62 92 -118 q 114 87 97 -6 q 156 268 131 179 q 242 525 194 406 q 301 674 289 644 q 322 727 313 704 z "},"":{"ha":804,"x_min":-50,"x_max":992,"o":"m 739 647 q 789 558 807 607 q 683 472 771 510 q 669 467 676 469 q 656 463 663 465 q 592 385 678 404 q 417 375 550 375 l 400 375 q 390 327 399 374 q 372 244 381 281 q 325 104 354 167 l 415 99 q 714 79 617 119 q 769 -12 788 35 q 672 -78 751 -57 q 524 -79 601 -64 q 368 -114 447 -94 q 211 -146 289 -133 q 61 -137 133 -158 q -40 -37 -43 -106 q -50 5 -57 -18 q -30 40 -43 28 q 0 58 -17 51 q 75 81 25 71 q 125 93 97 89 q 165 160 150 107 q 200 364 190 246 q 132 361 165 361 q 64 364 99 361 q -14 400 7 374 q 8 469 -40 431 q 215 543 72 499 q 267 806 231 678 q 385 1044 303 933 q 496 1144 436 1111 q 626 1185 556 1176 q 765 1181 697 1194 q 890 1131 833 1168 q 970 1038 946 1093 q 991 949 994 983 q 967 892 988 914 q 916 859 947 869 q 850 851 885 849 q 735 914 772 858 q 706 936 735 922 q 647 967 647 961 q 526 813 568 900 q 456 631 483 726 q 581 668 538 660 q 663 668 624 676 q 739 647 701 660 z "},"":{"ha":682,"x_min":-121,"x_max":828,"o":"m 167 526 q 147 854 143 728 q 196 968 144 914 q 297 1025 244 1019 q 372 960 356 1029 q 400 869 383 921 q 432 761 417 818 q 481 835 447 782 q 543 929 514 888 q 668 1071 614 1031 q 759 1083 721 1092 q 815 1054 797 1074 q 828 997 832 1035 q 694 722 825 910 q 633 622 664 679 q 560 495 601 565 q 482 356 519 425 q 347 57 396 199 q 358 51 349 60 q 376 25 368 42 q 372 -44 399 -17 q 207 -122 306 -114 q 51 -89 117 -129 q 8 4 -14 -51 l 4 4 q 74 153 35 83 q 154 299 113 224 l 217 410 q 178 443 193 404 q 167 526 167 475 m 253 182 q 228 181 253 182 q 150 176 203 179 q 31 168 97 172 q -73 180 -36 164 q -120 219 -110 196 q -113 267 -131 243 q -38 308 -96 292 q 93 331 19 324 q 243 341 167 339 q 396 344 319 343 q 535 352 472 344 q 631 353 597 360 q 682 333 665 347 q 697 298 699 318 q 675 258 696 278 q 522 196 626 211 q 365 188 426 192 q 253 182 304 185 m 613 601 q 740 571 700 594 q 774 520 779 547 q 719 472 768 493 q 581 451 669 451 q 553 453 569 453 l 526 453 q 528 453 518 453 q 585 454 539 454 q 574 456 600 454 q 513 454 528 458 l 494 453 q 229 397 443 394 q 139 401 176 399 q 36 442 67 413 q 21 468 21 454 q 39 496 21 482 q 115 536 49 522 q 190 552 150 547 q 292 567 231 557 q 613 601 488 597 z "},"":{"ha":694,"x_min":104,"x_max":660,"o":"m 350 919 q 308 869 336 890 q 250 838 281 847 q 208 829 219 829 q 167 835 197 829 l 165 835 l 163 838 q 104 893 113 860 q 113 958 96 926 q 165 1015 131 990 q 223 1045 199 1040 q 256 1051 247 1050 q 273 1050 265 1051 q 290 1047 281 1049 q 311 1042 299 1044 l 315 1038 q 350 919 383 986 m 660 946 q 617 887 646 913 q 560 851 589 861 q 524 840 532 840 q 476 847 515 840 l 475 847 q 471 850 474 847 q 413 916 421 876 q 422 993 404 956 q 473 1060 439 1031 q 531 1095 507 1090 q 565 1101 556 1100 q 582 1100 574 1101 q 621 1090 592 1100 q 660 946 690 1021 z "},"":{"ha":1204,"x_min":46,"x_max":1171,"o":"m 1153 486 q 910 74 1122 185 q 493 0 749 -11 q 247 69 374 -3 q 78 224 125 139 q 47 375 49 311 q 118 765 39 603 q 236 908 168 869 q 515 1038 406 1010 q 625 1048 565 1050 q 746 1041 685 1046 q 864 1021 807 1036 q 1079 897 983 989 q 1169 594 1192 792 q 1153 486 1164 538 m 561 175 q 683 191 621 172 q 797 244 744 210 q 892 323 849 278 q 964 417 935 368 q 1026 606 1026 519 q 956 824 1026 736 q 913 863 932 854 q 889 875 893 872 q 879 881 885 878 q 835 842 868 853 q 738 831 803 832 q 600 835 644 840 q 493 793 556 831 q 380 700 431 756 q 297 575 329 644 q 263 435 264 506 q 347 247 243 322 q 561 175 436 183 m 728 517 q 678 533 719 517 q 633 471 640 503 q 619 451 631 458 l 618 450 q 639 379 606 394 q 694 369 661 369 l 696 369 q 703 376 700 372 q 756 392 717 386 q 836 357 818 392 q 836 325 842 344 q 771 275 814 289 q 529 253 653 207 q 400 365 435 286 q 431 553 368 442 q 496 636 457 600 q 644 731 560 706 q 808 722 731 754 q 881 697 851 715 q 906 643 911 679 l 910 640 q 889 558 911 588 q 833 517 867 528 q 728 517 785 486 m 817 310 l 821 315 l 819 315 l 817 310 m 701 371 l 700 371 q 701 371 701 372 z "},"":{"ha":1018,"x_min":4,"x_max":986,"o":"m 361 788 q 390 796 381 793 q 415 794 399 799 q 447 776 432 789 q 472 747 463 764 q 481 661 497 707 q 467 620 483 636 q 411 569 450 604 q 208 413 296 467 q 224 379 206 399 q 269 336 242 360 q 383 218 350 263 q 350 160 390 171 q 332 157 340 157 q 261 153 311 143 q 175 179 211 164 q 106 219 139 194 q 4 374 26 279 q 13 408 4 389 q 10 451 21 426 q 67 553 10 499 q 90 576 81 565 q 222 693 158 635 q 361 788 286 751 m 844 842 q 878 851 867 847 q 909 849 889 854 q 947 830 929 844 q 978 794 965 815 q 986 693 1004 744 q 939 576 992 626 q 803 481 872 519 q 664 397 733 442 q 682 358 661 381 q 736 306 703 335 q 871 168 833 218 q 861 92 878 124 q 824 58 844 61 q 775 75 807 67 q 703 96 743 83 q 620 126 664 108 q 538 175 576 144 q 421 351 447 243 q 424 370 421 360 q 431 392 428 381 q 435 415 435 403 q 428 443 435 428 q 497 564 428 494 q 524 592 513 579 q 602 662 564 626 q 681 731 640 697 q 844 842 778 810 z "},"":{"ha":1351,"x_min":22,"x_max":1304,"o":"m 171 700 q 258 803 221 761 q 325 867 296 844 q 385 913 354 890 q 424 960 404 944 q 551 1032 499 1001 q 654 1081 604 1063 q 894 1088 750 1115 q 1069 1008 986 1071 q 1210 856 1151 946 q 1295 655 1268 765 q 1304 431 1322 544 q 1219 203 1285 296 q 1147 117 1188 158 q 1057 24 1107 75 q 825 -76 1003 -31 q 336 -108 535 -151 q 230 -66 268 -94 q 159 -17 192 -37 q 106 36 126 4 q 76 90 90 64 q 46 145 61 117 q 28 211 31 174 q 23 282 26 249 q 25 352 19 315 q 42 425 31 389 q 171 700 97 607 m 899 813 q 868 807 871 807 q 710 803 783 810 q 561 764 636 797 l 560 764 q 515 741 553 764 q 438 686 478 718 q 350 589 397 654 q 276 449 303 524 q 297 153 215 274 q 330 119 311 133 q 377 83 349 104 q 454 51 406 61 q 556 44 503 42 q 760 82 657 47 q 792 92 772 86 q 833 106 813 97 q 901 143 885 124 q 964 213 936 183 q 1011 272 992 242 q 1063 432 1053 335 q 1028 651 1075 542 q 899 813 983 756 m 919 419 q 854 364 885 381 q 764 328 804 339 q 780 309 772 318 q 797 290 788 300 q 820 267 807 279 q 844 242 833 256 q 857 172 869 206 q 811 143 839 154 q 732 168 767 133 q 726 175 726 172 q 721 181 725 178 l 725 178 q 679 228 700 203 l 660 249 q 617 200 646 217 q 500 156 578 150 q 440 174 468 157 q 401 225 413 192 q 410 329 397 275 q 410 382 406 347 q 415 424 415 417 q 425 458 415 431 q 519 613 454 544 q 596 678 560 654 q 661 715 632 701 q 719 739 697 733 q 772 756 756 756 q 801 754 789 757 q 829 750 814 751 q 853 749 844 749 q 881 742 863 749 q 969 625 961 697 q 919 419 1006 531 m 782 610 q 671 453 708 540 q 735 485 704 463 q 783 528 767 508 q 799 603 822 574 q 782 610 790 608 m 440 -28 q 735 -6 567 -47 q 440 -28 583 -40 m 710 194 l 713 190 l 710 194 m 710 194 l 704 200 q 710 194 706 196 z "},"":{"ha":644,"x_min":-10,"x_max":622,"o":"m 229 1194 q 317 1219 274 1213 q 401 1217 357 1217 q 496 1193 446 1217 q 581 1126 546 1169 q 622 1032 615 1082 q 531 833 635 924 q 394 776 485 796 q 256 765 324 761 q 157 774 188 769 q 115 786 126 779 q 90 801 103 793 q 67 814 78 808 q -10 968 -17 865 q 54 1119 -4 1056 q 92 1149 75 1143 q 149 1172 110 1154 q 229 1194 189 1189 m 368 983 q 300 974 344 978 q 275 976 290 976 q 246 978 260 976 q 226 908 214 940 q 246 889 231 897 q 285 884 261 881 q 331 900 310 888 q 369 976 378 929 q 368 983 368 978 z "},"":{"ha":446,"x_min":93,"x_max":404,"o":"m 282 1208 q 403 1167 364 1203 q 397 1086 447 1128 q 381 1053 393 1071 q 236 936 294 967 q 111 914 157 896 q 93 996 64 932 l 101 1006 q 169 1146 106 1058 q 196 1175 185 1167 q 278 1208 233 1197 l 282 1208 z "},"":{"ha":326,"x_min":1,"x_max":294,"o":"m 294 361 q 245 302 278 328 q 180 266 213 276 q 136 256 147 256 q 79 263 125 256 l 78 263 q 74 265 76 263 q 1 356 1 299 q 53 456 1 406 q 203 517 122 522 q 249 506 213 515 q 254 501 253 501 q 294 361 333 440 z "},"":{"ha":560,"x_min":-18,"x_max":521,"o":"m 176 -225 q 200 -224 190 -222 l 201 -224 q 347 -197 307 -218 q 351 -157 386 -176 q 278 -156 318 -157 q 208 -142 239 -154 q 171 -24 136 -111 q 203 24 188 6 q 238 67 214 42 q 308 89 274 96 q 326 26 344 81 l 319 18 q 315 4 322 19 q 300 -26 307 -11 q 345 -37 321 -29 q 390 -50 369 -46 q 442 -68 418 -60 q 483 -89 465 -76 q 521 -178 518 -117 q 474 -292 528 -233 q 363 -374 446 -321 q 128 -422 274 -424 q 58 -412 88 -421 q 3 -383 28 -410 q -18 -299 -21 -357 q 7 -232 -3 -244 q 69 -193 26 -206 q 124 -188 108 -181 q 149 -205 139 -196 q 176 -225 160 -214 z "},"":{"ha":449,"x_min":60,"x_max":467,"o":"m 272 1175 q 333 1203 308 1194 q 384 1202 357 1201 q 429 1188 411 1203 q 467 1019 488 1132 q 354 810 446 907 q 254 746 319 769 q 160 729 208 729 q 128 734 144 732 q 101 738 111 736 q 86 747 92 740 q 75 761 81 754 q 65 775 69 768 q 60 783 61 782 q 63 932 31 833 q 160 1108 100 1049 q 178 1122 169 1117 q 213 1145 188 1128 q 272 1175 238 1163 m 297 960 q 253 947 292 957 q 239 949 249 950 q 221 950 229 949 q 194 861 176 879 q 250 872 211 839 q 297 953 289 906 q 297 960 294 956 z "},"":{"ha":1069,"x_min":-17,"x_max":1036,"o":"m 360 436 l 325 471 q 239 551 283 514 q 154 635 194 588 q 149 749 121 692 q 197 829 161 788 q 217 843 207 836 q 317 866 276 886 q 385 810 357 846 q 411 780 392 801 q 455 728 431 758 q 506 663 479 697 q 553 594 532 628 q 588 481 600 514 q 569 442 582 467 q 565 350 575 403 q 547 311 556 324 q 519 283 538 299 q 413 246 481 263 q 292 209 344 229 q 188 169 240 189 q -6 113 50 117 q -16 152 -8 128 q -16 190 -24 176 q -3 217 -8 204 q 15 251 3 229 q 71 301 28 272 q 162 353 114 329 q 254 394 210 376 q 319 419 299 411 l 360 436 m 839 426 l 808 457 q 734 526 772 493 q 661 599 696 558 q 657 697 631 647 q 699 767 667 732 q 715 778 707 772 q 801 799 765 815 q 860 750 836 782 q 883 724 865 743 q 921 679 900 706 q 965 623 942 653 q 1006 564 988 593 q 1036 465 1046 496 q 1028 448 1033 460 q 1019 432 1022 436 q 1017 353 1025 400 q 1000 319 1008 329 q 976 294 992 308 q 885 263 944 276 q 788 228 826 249 q 715 190 749 207 q 656 165 682 172 q 614 176 629 158 q 595 197 613 185 q 572 215 578 208 q 569 231 565 221 q 589 269 579 246 q 756 392 629 333 q 804 413 785 404 l 839 426 z "},"":{"ha":792,"x_min":-4,"x_max":790,"o":"m -4 181 q 203 482 -21 322 q 313 558 261 524 q 401 622 364 593 q 442 671 438 650 q 474 726 444 704 q 539 758 503 749 q 611 764 575 767 q 664 744 647 761 q 619 544 703 661 q 532 441 582 493 q 434 340 482 389 q 349 246 386 290 q 296 149 306 193 l 300 149 q 319 169 310 157 q 357 196 328 181 q 409 221 386 211 q 452 240 432 231 q 477 251 472 249 q 487 257 482 254 q 500 263 492 260 l 522 271 q 694 238 643 300 q 728 176 713 215 q 697 46 743 121 q 600 -53 658 -19 q 453 -110 542 -87 q 279 -133 365 -133 q 121 -107 193 -133 q 13 -22 49 -80 q 4 35 -1 4 q 15 83 10 65 q 19 114 19 100 q 8 145 18 128 q -4 181 -1 163 m 526 954 q 603 1040 556 1012 q 694 1067 650 1067 q 767 1043 738 1068 q 790 969 796 1018 q 722 876 788 901 q 565 876 639 843 q 526 954 497 907 z "},"":{"ha":783,"x_min":-32,"x_max":838,"o":"m 768 942 q 828 868 815 917 q 778 559 800 713 q 735 302 756 406 q 706 147 714 199 q 689 44 699 96 l 681 15 q 675 -13 678 0 q 669 -42 672 -26 q 564 -86 631 -86 q 451 -50 493 -86 q 443 32 426 -31 q 452 97 450 57 q 457 163 454 136 l 457 165 q 382 126 415 150 q 340 95 349 101 q 318 85 332 89 q 293 81 304 82 q 257 72 267 79 q 113 -89 176 -72 q 32 -95 72 -101 q -32 -47 -8 -89 q -10 181 -76 -6 q 94 417 26 279 q 224 658 161 556 q 519 1031 358 879 q 576 1056 546 1042 q 637 1072 607 1071 q 699 1065 667 1074 q 753 1040 731 1057 q 768 942 804 1001 m 471 576 q 413 423 442 493 q 363 300 383 353 l 472 304 q 497 481 483 393 q 524 656 511 568 l 471 576 m 433 299 q 472 301 453 299 l 472 303 q 439 300 454 301 q 433 299 424 299 m 544 1333 q 592 1435 532 1401 q 710 1453 644 1463 q 786 1432 750 1451 q 838 1376 822 1413 q 828 1301 826 1340 q 829 1193 831 1218 q 813 1156 828 1168 q 778 1140 797 1143 q 701 1154 736 1135 q 689 1174 694 1168 q 681 1182 683 1175 q 644 1228 675 1197 l 594 1278 q 568 1296 574 1288 q 544 1325 557 1308 l 543 1332 l 544 1333 z "},"":{"ha":783,"x_min":-32,"x_max":908,"o":"m 768 942 q 828 868 815 917 q 778 559 800 713 q 735 302 756 406 q 706 147 714 199 q 689 44 699 96 l 681 15 q 675 -13 678 0 q 669 -42 672 -26 q 564 -86 631 -86 q 451 -50 493 -86 q 443 32 426 -31 q 452 97 450 57 q 457 163 454 136 l 457 165 q 382 126 415 150 q 340 95 349 101 q 318 85 332 89 q 293 81 304 82 q 257 72 267 79 q 113 -89 176 -72 q 32 -95 72 -101 q -32 -47 -8 -89 q -10 181 -76 -6 q 94 417 26 279 q 224 658 161 556 q 519 1031 358 879 q 576 1056 546 1042 q 637 1072 607 1071 q 699 1065 667 1074 q 753 1040 731 1057 q 768 942 804 1001 m 471 576 q 413 423 442 493 q 363 300 383 353 l 472 304 q 497 481 483 393 q 524 656 511 568 l 471 576 m 433 299 q 472 301 453 299 l 472 303 q 439 300 454 301 q 433 299 424 299 m 786 1490 q 907 1449 868 1485 q 901 1368 951 1410 q 885 1335 897 1353 q 740 1218 799 1249 q 615 1196 661 1178 q 597 1278 568 1214 l 606 1288 q 674 1428 610 1340 q 700 1457 689 1449 q 782 1490 738 1479 l 786 1490 z "},"":{"ha":783,"x_min":-32,"x_max":951,"o":"m 768 942 q 828 868 815 917 q 778 559 800 713 q 735 302 756 406 q 706 147 714 199 q 689 44 699 96 l 681 15 q 675 -13 678 0 q 669 -42 672 -26 q 564 -86 631 -86 q 451 -50 493 -86 q 443 32 426 -31 q 452 97 450 57 q 457 163 454 136 l 457 165 q 382 126 415 150 q 340 95 349 101 q 318 85 332 89 q 293 81 304 82 q 257 72 267 79 q 113 -89 176 -72 q 32 -95 72 -101 q -32 -47 -8 -89 q -10 181 -76 -6 q 94 417 26 279 q 224 658 161 556 q 519 1031 358 879 q 576 1056 546 1042 q 637 1072 607 1071 q 699 1065 667 1074 q 753 1040 731 1057 q 768 942 804 1001 m 471 576 q 413 423 442 493 q 363 300 383 353 l 472 304 q 497 481 483 393 q 524 656 511 568 l 471 576 m 433 299 q 472 301 453 299 l 472 303 q 439 300 454 301 q 433 299 424 299 m 806 1125 q 813 1165 806 1142 q 798 1214 810 1193 q 775 1256 786 1235 q 676 1142 710 1175 q 563 1082 621 1097 q 468 1081 499 1057 q 453 1112 453 1090 q 474 1167 453 1133 q 651 1368 596 1313 q 738 1452 707 1424 q 794 1503 769 1481 q 847 1539 818 1526 q 949 1538 921 1571 q 921 1471 957 1507 l 921 1450 q 936 1300 936 1383 q 948 1254 942 1279 q 951 1203 954 1229 q 881 1115 944 1143 q 834 1106 854 1106 q 806 1125 814 1106 z "},"":{"ha":783,"x_min":-32,"x_max":978,"o":"m 768 942 q 828 868 815 917 q 778 559 800 713 q 735 302 756 406 q 706 147 714 199 q 689 44 699 96 l 681 15 q 675 -13 678 0 q 669 -42 672 -26 q 564 -86 631 -86 q 451 -50 493 -86 q 443 32 426 -31 q 452 97 450 57 q 457 163 454 136 l 457 165 q 382 126 415 150 q 340 95 349 101 q 318 85 332 89 q 293 81 304 82 q 257 72 267 79 q 113 -89 176 -72 q 32 -95 72 -101 q -32 -47 -8 -89 q -10 181 -76 -6 q 94 417 26 279 q 224 658 161 556 q 519 1031 358 879 q 576 1056 546 1042 q 637 1072 607 1071 q 699 1065 667 1074 q 753 1040 731 1057 q 768 942 804 1001 m 471 576 q 413 423 442 493 q 363 300 383 353 l 472 304 q 497 481 483 393 q 524 656 511 568 l 471 576 m 433 299 q 472 301 453 299 l 472 303 q 439 300 454 301 q 433 299 424 299 m 469 1207 q 513 1268 482 1235 q 579 1317 544 1301 l 611 1340 q 726 1371 688 1388 q 758 1353 746 1364 q 772 1314 769 1342 q 774 1299 768 1308 q 785 1273 779 1289 q 801 1244 792 1257 q 860 1261 831 1249 q 882 1281 871 1271 q 906 1299 893 1290 q 935 1313 919 1308 q 961 1317 950 1318 q 978 1267 988 1311 q 915 1193 965 1231 q 832 1128 856 1136 q 747 1125 797 1114 q 724 1137 736 1126 q 699 1158 713 1147 q 639 1175 665 1183 q 604 1148 622 1163 q 569 1121 586 1133 q 511 1101 532 1092 q 488 1118 499 1107 q 469 1207 440 1142 m 543 1293 q 544 1292 539 1289 q 558 1301 549 1296 l 543 1293 z "},"":{"ha":783,"x_min":-32,"x_max":983,"o":"m 768 942 q 828 868 815 917 q 778 559 800 713 q 735 302 756 406 q 706 147 714 199 q 689 44 699 96 l 681 15 q 675 -13 678 0 q 669 -42 672 -26 q 564 -86 631 -86 q 451 -50 493 -86 q 443 32 426 -31 q 452 97 450 57 q 457 163 454 136 l 457 165 q 382 126 415 150 q 340 95 349 101 q 318 85 332 89 q 293 81 304 82 q 257 72 267 79 q 113 -89 176 -72 q 32 -95 72 -101 q -32 -47 -8 -89 q -10 181 -76 -6 q 94 417 26 279 q 224 658 161 556 q 519 1031 358 879 q 576 1056 546 1042 q 637 1072 607 1071 q 699 1065 667 1074 q 753 1040 731 1057 q 768 942 804 1001 m 471 576 q 413 423 442 493 q 363 300 383 353 l 472 304 q 497 481 483 393 q 524 656 511 568 l 471 576 m 433 299 q 472 301 453 299 l 472 303 q 439 300 454 301 q 433 299 424 299 m 674 1193 q 632 1142 660 1164 q 574 1112 604 1121 q 532 1103 543 1103 q 490 1108 521 1103 l 489 1108 l 486 1111 q 428 1167 436 1133 q 437 1232 419 1200 q 488 1289 454 1264 q 547 1319 522 1314 q 580 1324 571 1324 q 597 1324 589 1325 q 613 1320 604 1322 q 635 1315 622 1318 l 639 1311 q 674 1193 707 1260 m 983 1219 q 941 1160 969 1186 q 884 1124 913 1135 q 847 1114 856 1114 q 800 1121 839 1114 l 799 1121 q 794 1124 797 1121 q 736 1190 744 1150 q 745 1267 728 1229 q 797 1334 763 1304 q 855 1369 831 1364 q 888 1374 879 1374 q 906 1374 897 1375 q 944 1364 915 1374 q 983 1219 1014 1294 z "},"":{"ha":783,"x_min":-32,"x_max":986,"o":"m 768 942 q 828 868 815 917 q 778 559 800 713 q 735 302 756 406 q 706 147 714 199 q 689 44 699 96 l 681 15 q 675 -13 678 0 q 669 -42 672 -26 q 564 -86 631 -86 q 451 -50 493 -86 q 443 32 426 -31 q 452 97 450 57 q 457 163 454 136 l 457 165 q 382 126 415 150 q 340 95 349 101 q 318 85 332 89 q 293 81 304 82 q 257 72 267 79 q 113 -89 176 -72 q 32 -95 72 -101 q -32 -47 -8 -89 q -10 181 -76 -6 q 94 417 26 279 q 224 658 161 556 q 519 1031 358 879 q 576 1056 546 1042 q 637 1072 607 1071 q 699 1065 667 1074 q 753 1040 731 1057 q 768 942 804 1001 m 471 576 q 413 423 442 493 q 363 300 383 353 l 472 304 q 497 481 483 393 q 524 656 511 568 l 471 576 m 433 299 q 472 301 453 299 l 472 303 q 439 300 454 301 q 433 299 424 299 m 593 1381 q 681 1406 638 1399 q 765 1403 721 1403 q 860 1379 810 1403 q 944 1312 910 1356 q 986 1218 979 1268 q 894 1019 999 1110 q 758 963 849 982 q 619 951 688 947 q 521 960 551 956 q 478 972 490 965 q 454 987 467 979 q 431 1000 442 994 q 354 1154 347 1051 q 418 1306 360 1242 q 456 1335 439 1329 q 513 1358 474 1340 q 593 1381 553 1375 m 732 1169 q 664 1160 708 1164 q 639 1163 654 1163 q 610 1164 624 1163 q 590 1094 578 1126 q 610 1075 594 1083 q 649 1070 625 1067 q 694 1086 674 1074 q 733 1163 742 1115 q 732 1169 732 1164 z "},"":{"ha":1174,"x_min":-32,"x_max":1289,"o":"m 768 942 q 828 868 815 917 q 778 559 800 713 q 735 302 756 406 q 706 147 714 199 q 689 44 699 96 l 681 15 q 675 -13 678 0 q 669 -42 672 -26 q 564 -86 631 -86 q 451 -50 493 -86 q 443 32 426 -31 q 452 97 450 57 q 457 163 454 136 l 457 165 q 382 126 415 150 q 340 95 349 101 q 318 85 332 89 q 293 81 304 82 q 257 72 267 79 q 113 -89 176 -72 q 32 -95 72 -101 q -32 -47 -8 -89 q -10 181 -76 -6 q 94 417 26 279 q 224 658 161 556 q 519 1031 358 879 q 576 1056 546 1042 q 637 1072 607 1071 q 699 1065 667 1074 q 753 1040 731 1057 q 768 942 804 1001 m 471 576 q 413 423 442 493 q 363 300 383 353 l 472 304 q 497 481 483 393 q 524 656 511 568 l 471 576 m 433 299 q 472 301 453 299 l 472 303 q 439 300 454 301 q 433 299 424 299 m 778 196 q 898 188 858 188 q 1018 199 938 188 q 1047 178 1043 190 q 1050 152 1051 165 q 1051 126 1049 139 q 1078 106 1054 114 q 1085 81 1090 101 q 1063 38 1081 61 q 954 -46 1017 -22 q 797 -75 854 -71 q 592 -68 703 -82 q 474 33 469 -46 q 601 619 474 325 q 696 821 643 715 q 709 871 707 843 q 713 925 711 899 q 721 972 714 951 q 750 1001 728 993 q 1207 1090 1039 1117 q 1284 1051 1265 1089 q 1288 965 1303 1013 q 1231 876 1274 918 q 1125 825 1189 835 q 1025 793 1043 801 q 975 749 990 776 q 939 690 956 718 q 915 631 922 663 l 910 600 q 974 592 936 588 q 1045 602 1013 597 q 1098 603 1078 607 q 1106 562 1118 599 q 1063 479 1094 525 q 975 413 1032 433 q 926 402 939 406 q 906 397 913 399 q 850 393 896 396 q 771 221 785 282 q 778 196 765 196 z "},"":{"ha":796,"x_min":22,"x_max":903,"o":"m 624 692 q 594 733 624 733 q 568 728 583 733 q 539 718 553 722 q 459 658 488 690 q 401 585 431 625 q 351 499 372 544 q 319 413 331 453 q 350 213 279 264 q 412 192 379 192 q 465 206 444 193 q 504 229 485 218 q 549 245 524 240 q 613 238 575 250 q 654 207 651 226 q 654 167 657 188 q 653 129 651 146 q 683 108 656 113 q 650 28 710 75 q 621 4 635 15 q 367 -81 501 -72 q 186 -50 282 -86 q 25 193 43 4 q 69 556 1 368 q 242 849 126 714 q 447 1010 346 972 q 708 1058 568 1072 q 903 932 857 1039 q 888 675 949 825 q 808 592 867 622 q 700 564 758 564 q 625 601 642 564 q 624 692 608 638 m 217 -310 q 240 -308 231 -307 l 242 -308 q 387 -282 347 -303 q 392 -242 426 -261 q 319 -240 358 -242 q 249 -226 279 -239 q 211 -108 176 -196 q 243 -61 228 -79 q 278 -18 254 -43 q 349 4 314 11 q 367 -58 385 -4 l 360 -67 q 355 -81 363 -65 q 340 -111 347 -96 q 385 -122 361 -114 q 431 -135 410 -131 q 482 -153 458 -144 q 524 -174 506 -161 q 561 -262 558 -201 q 514 -376 568 -318 q 403 -458 486 -406 q 168 -507 314 -508 q 99 -497 128 -506 q 44 -468 68 -494 q 22 -383 19 -442 q 47 -317 38 -329 q 110 -278 67 -290 q 164 -273 149 -265 q 190 -290 179 -281 q 217 -310 200 -299 z "},"":{"ha":728,"x_min":10,"x_max":825,"o":"m 314 175 q 434 167 394 167 q 554 178 474 167 q 583 157 579 169 q 586 131 588 144 q 588 106 585 118 q 614 85 590 93 q 622 60 626 81 q 599 17 617 40 q 490 -67 553 -43 q 333 -96 390 -92 q 128 -89 239 -103 q 10 13 6 -67 q 138 599 10 304 q 232 800 179 694 q 245 850 243 822 q 249 904 247 878 q 257 951 250 931 q 286 981 264 972 q 743 1069 575 1096 q 820 1030 801 1068 q 824 944 839 992 q 767 856 810 897 q 661 804 725 814 q 561 772 579 781 q 511 728 526 756 q 475 669 492 697 q 451 610 458 642 l 446 579 q 510 572 472 567 q 581 581 549 576 q 634 582 614 586 q 642 541 654 578 q 599 458 631 504 q 511 392 568 413 q 462 381 475 385 q 442 376 449 378 q 386 372 432 375 q 307 200 321 261 q 314 175 301 175 m 432 1338 q 479 1439 419 1406 q 597 1457 532 1467 q 674 1436 638 1456 q 725 1381 710 1417 q 715 1306 714 1344 q 717 1197 718 1222 q 700 1160 715 1172 q 665 1144 685 1147 q 589 1158 624 1139 q 576 1178 582 1172 q 568 1186 571 1179 q 532 1232 563 1201 l 482 1282 q 456 1300 461 1292 q 432 1329 444 1313 l 431 1336 l 432 1338 z "},"":{"ha":728,"x_min":10,"x_max":825,"o":"m 314 175 q 434 167 394 167 q 554 178 474 167 q 583 157 579 169 q 586 131 588 144 q 588 106 585 118 q 614 85 590 93 q 622 60 626 81 q 599 17 617 40 q 490 -67 553 -43 q 333 -96 390 -92 q 128 -89 239 -103 q 10 13 6 -67 q 138 599 10 304 q 232 800 179 694 q 245 850 243 822 q 249 904 247 878 q 257 951 250 931 q 286 981 264 972 q 743 1069 575 1096 q 820 1030 801 1068 q 824 944 839 992 q 767 856 810 897 q 661 804 725 814 q 561 772 579 781 q 511 728 526 756 q 475 669 492 697 q 451 610 458 642 l 446 579 q 510 572 472 567 q 581 581 549 576 q 634 582 614 586 q 642 541 654 578 q 599 458 631 504 q 511 392 568 413 q 462 381 475 385 q 442 376 449 378 q 386 372 432 375 q 307 200 321 261 q 314 175 301 175 m 674 1469 q 794 1428 756 1464 q 789 1347 839 1389 q 772 1314 785 1332 q 628 1197 686 1228 q 503 1175 549 1157 q 485 1257 456 1193 l 493 1267 q 561 1407 497 1319 q 588 1436 576 1428 q 669 1469 625 1458 l 674 1469 z "},"":{"ha":728,"x_min":10,"x_max":872,"o":"m 314 175 q 434 167 394 167 q 554 178 474 167 q 583 157 579 169 q 586 131 588 144 q 588 106 585 118 q 614 85 590 93 q 622 60 626 81 q 599 17 617 40 q 490 -67 553 -43 q 333 -96 390 -92 q 128 -89 239 -103 q 10 13 6 -67 q 138 599 10 304 q 232 800 179 694 q 245 850 243 822 q 249 904 247 878 q 257 951 250 931 q 286 981 264 972 q 743 1069 575 1096 q 820 1030 801 1068 q 824 944 839 992 q 767 856 810 897 q 661 804 725 814 q 561 772 579 781 q 511 728 526 756 q 475 669 492 697 q 451 610 458 642 l 446 579 q 510 572 472 567 q 581 581 549 576 q 634 582 614 586 q 642 541 654 578 q 599 458 631 504 q 511 392 568 413 q 462 381 475 385 q 442 376 449 378 q 386 372 432 375 q 307 200 321 261 q 314 175 301 175 m 726 1140 q 733 1181 726 1157 q 719 1229 731 1208 q 696 1271 707 1250 q 597 1157 631 1190 q 483 1097 542 1113 q 389 1096 419 1072 q 374 1127 374 1106 q 394 1182 374 1149 q 572 1383 517 1328 q 659 1467 628 1439 q 715 1519 690 1496 q 768 1554 739 1542 q 869 1553 842 1586 q 842 1486 878 1522 l 842 1465 q 857 1315 857 1399 q 869 1269 863 1294 q 872 1218 875 1244 q 801 1131 865 1158 q 755 1121 775 1121 q 726 1140 735 1121 z "},"":{"ha":728,"x_min":10,"x_max":914,"o":"m 314 175 q 434 167 394 167 q 554 178 474 167 q 583 157 579 169 q 586 131 588 144 q 588 106 585 118 q 614 85 590 93 q 622 60 626 81 q 599 17 617 40 q 490 -67 553 -43 q 333 -96 390 -92 q 128 -89 239 -103 q 10 13 6 -67 q 138 599 10 304 q 232 800 179 694 q 245 850 243 822 q 249 904 247 878 q 257 951 250 931 q 286 981 264 972 q 743 1069 575 1096 q 820 1030 801 1068 q 824 944 839 992 q 767 856 810 897 q 661 804 725 814 q 561 772 579 781 q 511 728 526 756 q 475 669 492 697 q 451 610 458 642 l 446 579 q 510 572 472 567 q 581 581 549 576 q 634 582 614 586 q 642 541 654 578 q 599 458 631 504 q 511 392 568 413 q 462 381 475 385 q 442 376 449 378 q 386 372 432 375 q 307 200 321 261 q 314 175 301 175 m 604 1188 q 563 1137 590 1158 q 504 1106 535 1115 q 463 1097 474 1097 q 421 1103 451 1097 l 419 1103 l 417 1106 q 358 1161 367 1128 q 367 1226 350 1194 q 419 1283 385 1258 q 477 1313 453 1308 q 510 1319 501 1318 q 527 1318 519 1319 q 544 1315 535 1317 q 565 1310 553 1313 l 569 1306 q 604 1188 638 1254 m 914 1214 q 872 1155 900 1181 q 815 1119 843 1129 q 778 1108 786 1108 q 731 1115 769 1108 l 729 1115 q 725 1118 728 1115 q 667 1184 675 1144 q 676 1261 658 1224 q 727 1328 693 1299 q 785 1363 761 1358 q 819 1369 810 1368 q 836 1368 828 1369 q 875 1358 846 1368 q 914 1214 944 1289 z "},"":{"ha":471,"x_min":-24,"x_max":681,"o":"m 586 939 q 497 665 538 788 q 422 440 456 543 q 358 251 388 338 q 304 85 329 164 q 214 -44 290 -7 q 108 -65 169 -65 q 17 -52 47 -65 q -23 -14 -14 -39 q -23 47 -32 11 q 8 144 -14 82 q 65 311 31 206 q 136 525 99 417 q 283 900 229 796 q 325 952 304 939 q 365 972 346 965 q 401 986 385 978 q 431 1028 418 994 q 480 1074 444 1061 q 547 1076 515 1086 q 594 1031 578 1065 q 586 939 610 997 m 388 1353 q 435 1454 375 1421 q 553 1472 488 1482 q 629 1451 593 1471 q 681 1396 665 1432 q 671 1321 669 1360 q 672 1213 674 1238 q 656 1175 671 1188 q 621 1160 640 1163 q 544 1174 579 1154 q 532 1193 538 1188 q 524 1201 526 1194 q 488 1247 518 1217 l 438 1297 q 411 1315 417 1307 q 388 1344 400 1328 l 386 1351 l 388 1353 z "},"":{"ha":471,"x_min":-24,"x_max":761,"o":"m 586 939 q 497 665 538 788 q 422 440 456 543 q 358 251 388 338 q 304 85 329 164 q 214 -44 290 -7 q 108 -65 169 -65 q 17 -52 47 -65 q -23 -14 -14 -39 q -23 47 -32 11 q 8 144 -14 82 q 65 311 31 206 q 136 525 99 417 q 283 900 229 796 q 325 952 304 939 q 365 972 346 965 q 401 986 385 978 q 431 1028 418 994 q 480 1074 444 1061 q 547 1076 515 1086 q 594 1031 578 1065 q 586 939 610 997 m 639 1482 q 760 1440 721 1476 q 754 1360 804 1401 q 738 1326 750 1344 q 593 1210 651 1240 q 468 1188 514 1169 q 450 1269 421 1206 l 458 1279 q 526 1419 463 1332 q 553 1449 542 1440 q 635 1482 590 1471 l 639 1482 z "},"":{"ha":471,"x_min":-24,"x_max":754,"o":"m 586 939 q 497 665 538 788 q 422 440 456 543 q 358 251 388 338 q 304 85 329 164 q 214 -44 290 -7 q 108 -65 169 -65 q 17 -52 47 -65 q -23 -14 -14 -39 q -23 47 -32 11 q 8 144 -14 82 q 65 311 31 206 q 136 525 99 417 q 283 900 229 796 q 325 952 304 939 q 365 972 346 965 q 401 986 385 978 q 431 1028 418 994 q 480 1074 444 1061 q 547 1076 515 1086 q 594 1031 578 1065 q 586 939 610 997 m 608 1103 q 615 1143 608 1119 q 601 1192 613 1171 q 578 1233 589 1213 q 479 1119 513 1153 q 365 1060 424 1075 q 271 1058 301 1035 q 256 1090 256 1068 q 276 1144 256 1111 q 454 1346 399 1290 q 541 1430 510 1401 q 597 1481 572 1458 q 650 1517 621 1504 q 751 1515 724 1549 q 724 1449 760 1485 l 724 1428 q 739 1278 739 1361 q 751 1232 744 1257 q 754 1181 757 1207 q 683 1093 747 1121 q 637 1083 657 1083 q 608 1103 617 1083 z "},"":{"ha":471,"x_min":-24,"x_max":814,"o":"m 586 939 q 497 665 538 788 q 422 440 456 543 q 358 251 388 338 q 304 85 329 164 q 214 -44 290 -7 q 108 -65 169 -65 q 17 -52 47 -65 q -23 -14 -14 -39 q -23 47 -32 11 q 8 144 -14 82 q 65 311 31 206 q 136 525 99 417 q 283 900 229 796 q 325 952 304 939 q 365 972 346 965 q 401 986 385 978 q 431 1028 418 994 q 480 1074 444 1061 q 547 1076 515 1086 q 594 1031 578 1065 q 586 939 610 997 m 504 1189 q 463 1138 490 1160 q 404 1108 435 1117 q 363 1099 374 1099 q 321 1104 351 1099 l 319 1104 l 317 1107 q 258 1163 267 1129 q 267 1228 250 1196 q 319 1285 285 1260 q 377 1315 353 1310 q 410 1320 401 1319 q 427 1319 419 1321 q 444 1316 435 1318 q 465 1311 453 1314 l 469 1307 q 504 1189 538 1256 m 814 1215 q 772 1156 800 1182 q 715 1120 743 1131 q 678 1110 686 1110 q 631 1117 669 1110 l 629 1117 q 625 1119 628 1117 q 567 1185 575 1146 q 576 1263 558 1225 q 627 1330 593 1300 q 685 1365 661 1360 q 719 1370 710 1369 q 736 1369 728 1371 q 775 1360 746 1369 q 814 1215 844 1290 z "},"":{"ha":926,"x_min":-146,"x_max":944,"o":"m 944 564 q 922 442 938 504 q 876 319 906 379 q 805 204 846 260 q 714 101 764 149 q 608 22 664 54 q 371 -29 485 -50 q 297 -98 346 -83 q 199 -98 247 -112 q 115 -43 151 -83 q 79 67 79 -3 q 89 211 79 138 q 114 353 99 285 q 181 564 142 465 q 286 878 272 788 q 353 1028 303 999 q 504 1068 432 1075 q 636 1033 576 1061 q 842 879 731 988 q 944 564 964 761 m 397 147 q 512 222 468 183 q 594 292 556 260 q 682 433 654 351 q 604 707 743 614 q 542 749 583 722 q 513 656 522 704 q 489 561 504 607 l 451 439 l 421 307 q 413 253 418 279 q 403 200 407 228 l 397 147 m 226 325 l -11 329 q -17 328 -14 328 q -24 326 -19 328 l -25 329 q -102 342 -69 329 q -145 376 -135 356 q -140 421 -156 397 q -71 464 -124 444 l -46 467 q 10 535 -36 503 q 147 578 57 567 l 228 581 l 290 581 q 357 579 324 581 q 508 575 431 597 q 597 475 603 546 q 550 396 594 439 q 504 376 526 388 q 443 350 482 364 q 226 325 367 325 z "},"":{"ha":875,"x_min":-25,"x_max":978,"o":"m 94 539 q 140 683 122 632 q 174 774 157 733 q 212 851 190 814 q 259 920 233 889 q 314 969 285 951 q 375 988 343 988 q 442 963 407 988 q 510 776 497 824 q 540 581 526 707 q 569 648 553 613 q 600 719 585 683 q 654 858 643 811 q 781 1004 685 956 q 936 1031 864 1046 q 977 1007 965 1025 q 977 969 989 989 q 969 933 965 950 q 975 892 972 915 q 953 778 979 828 q 899 656 926 729 q 842 501 871 583 q 785 335 814 419 q 728 181 756 250 q 628 4 667 21 q 550 -33 575 -28 q 460 -33 518 -39 q 397 60 424 -31 q 369 194 382 108 q 339 360 347 344 q 260 132 283 179 q 226 69 238 85 q 197 29 214 54 q 111 -44 179 -21 q 6 -51 53 -67 q -25 13 -46 -35 q 94 539 -10 179 m 414 1161 q 458 1222 426 1189 q 524 1271 489 1256 l 556 1294 q 671 1325 632 1342 q 702 1307 690 1318 q 717 1268 714 1296 q 718 1253 713 1263 q 730 1227 724 1243 q 746 1199 736 1211 q 804 1215 775 1203 q 826 1235 815 1225 q 851 1253 838 1244 q 879 1267 864 1263 q 906 1271 894 1272 q 922 1221 932 1265 q 860 1147 910 1185 q 776 1082 800 1090 q 692 1079 742 1068 q 669 1091 681 1081 q 643 1113 657 1101 q 583 1129 610 1138 q 549 1102 567 1117 q 514 1075 531 1088 q 456 1056 476 1046 q 432 1072 443 1061 q 414 1161 385 1096 m 488 1247 q 488 1247 483 1243 q 503 1256 493 1250 l 488 1247 z "},"":{"ha":888,"x_min":42,"x_max":915,"o":"m 282 919 q 476 1044 369 1019 q 615 1039 550 1063 q 749 1078 667 1093 q 876 993 824 1064 q 888 964 879 983 q 906 921 897 944 q 915 549 967 779 q 689 64 851 263 q 576 -37 639 3 q 338 -106 476 -114 q 193 -62 251 -101 q 42 418 -39 53 q 282 919 108 718 m 299 182 l 297 174 l 300 158 q 328 92 308 115 q 360 64 347 69 q 388 85 374 75 q 413 108 401 94 q 560 414 507 225 q 599 764 613 603 q 485 604 544 694 q 390 450 425 514 q 299 182 311 301 m 596 1333 q 643 1435 583 1401 q 761 1453 696 1463 q 838 1432 801 1451 q 889 1376 874 1413 q 879 1301 878 1340 q 881 1193 882 1218 q 864 1156 879 1168 q 829 1140 849 1143 q 753 1154 788 1135 q 740 1174 746 1168 q 732 1182 735 1175 q 696 1228 726 1197 l 646 1278 q 619 1296 625 1288 q 596 1325 608 1308 l 594 1332 l 596 1333 z "},"":{"ha":888,"x_min":42,"x_max":983,"o":"m 282 919 q 476 1044 369 1019 q 615 1039 550 1063 q 749 1078 667 1093 q 876 993 824 1064 q 888 964 879 983 q 906 921 897 944 q 915 549 967 779 q 689 64 851 263 q 576 -37 639 3 q 338 -106 476 -114 q 193 -62 251 -101 q 42 418 -39 53 q 282 919 108 718 m 299 182 l 297 174 l 300 158 q 328 92 308 115 q 360 64 347 69 q 388 85 374 75 q 413 108 401 94 q 560 414 507 225 q 599 764 613 603 q 485 604 544 694 q 390 450 425 514 q 299 182 311 301 m 861 1481 q 982 1439 943 1475 q 976 1358 1026 1400 q 960 1325 972 1343 q 815 1208 874 1239 q 690 1186 736 1168 q 672 1268 643 1204 l 681 1278 q 749 1418 685 1331 q 775 1447 764 1439 q 857 1481 813 1469 l 861 1481 z "},"":{"ha":888,"x_min":42,"x_max":949,"o":"m 282 919 q 476 1044 369 1019 q 615 1039 550 1063 q 749 1078 667 1093 q 876 993 824 1064 q 888 964 879 983 q 906 921 897 944 q 915 549 967 779 q 689 64 851 263 q 576 -37 639 3 q 338 -106 476 -114 q 193 -62 251 -101 q 42 418 -39 53 q 282 919 108 718 m 299 182 l 297 174 l 300 158 q 328 92 308 115 q 360 64 347 69 q 388 85 374 75 q 413 108 401 94 q 560 414 507 225 q 599 764 613 603 q 485 604 544 694 q 390 450 425 514 q 299 182 311 301 m 803 1128 q 810 1168 803 1144 q 795 1217 807 1196 q 772 1258 783 1238 q 674 1144 707 1178 q 560 1085 618 1100 q 465 1083 496 1060 q 450 1115 450 1093 q 471 1169 450 1136 q 649 1371 593 1315 q 735 1455 704 1426 q 791 1506 767 1483 q 844 1542 815 1529 q 946 1540 918 1574 q 918 1474 954 1510 l 918 1453 q 933 1303 933 1386 q 945 1257 939 1282 q 949 1206 951 1232 q 878 1118 942 1146 q 831 1108 851 1108 q 803 1128 811 1108 z "},"":{"ha":888,"x_min":42,"x_max":983,"o":"m 282 919 q 476 1044 369 1019 q 615 1039 550 1063 q 749 1078 667 1093 q 876 993 824 1064 q 888 964 879 983 q 906 921 897 944 q 915 549 967 779 q 689 64 851 263 q 576 -37 639 3 q 338 -106 476 -114 q 193 -62 251 -101 q 42 418 -39 53 q 282 919 108 718 m 299 182 l 297 174 l 300 158 q 328 92 308 115 q 360 64 347 69 q 388 85 374 75 q 413 108 401 94 q 560 414 507 225 q 599 764 613 603 q 485 604 544 694 q 390 450 425 514 q 299 182 311 301 m 475 1215 q 519 1276 488 1243 q 585 1325 550 1310 l 617 1349 q 732 1379 693 1396 q 763 1361 751 1372 q 778 1322 775 1350 q 779 1307 774 1317 q 791 1281 785 1297 q 807 1253 797 1265 q 865 1269 836 1257 q 888 1289 876 1279 q 912 1308 899 1299 q 940 1322 925 1317 q 967 1325 956 1326 q 983 1275 993 1319 q 921 1201 971 1239 q 838 1136 861 1144 q 753 1133 803 1122 q 730 1145 742 1135 q 704 1167 718 1156 q 644 1183 671 1192 q 610 1156 628 1171 q 575 1129 592 1142 q 517 1110 538 1100 q 493 1126 504 1115 q 475 1215 446 1150 m 549 1301 q 549 1301 544 1297 q 564 1310 554 1304 l 549 1301 z "},"":{"ha":888,"x_min":42,"x_max":1006,"o":"m 282 919 q 476 1044 369 1019 q 615 1039 550 1063 q 749 1078 667 1093 q 876 993 824 1064 q 888 964 879 983 q 906 921 897 944 q 915 549 967 779 q 689 64 851 263 q 576 -37 639 3 q 338 -106 476 -114 q 193 -62 251 -101 q 42 418 -39 53 q 282 919 108 718 m 299 182 l 297 174 l 300 158 q 328 92 308 115 q 360 64 347 69 q 388 85 374 75 q 413 108 401 94 q 560 414 507 225 q 599 764 613 603 q 485 604 544 694 q 390 450 425 514 q 299 182 311 301 m 696 1210 q 654 1159 682 1181 q 596 1128 626 1138 q 554 1119 565 1119 q 513 1125 543 1119 l 511 1125 l 508 1128 q 450 1183 458 1150 q 459 1249 442 1217 q 510 1306 476 1281 q 569 1335 544 1331 q 602 1341 593 1340 q 619 1340 611 1342 q 635 1337 626 1339 q 657 1332 644 1335 l 661 1328 q 696 1210 729 1276 m 1006 1236 q 963 1177 992 1203 q 906 1141 935 1151 q 869 1131 878 1131 q 822 1138 861 1131 l 821 1138 q 817 1140 819 1138 q 758 1206 767 1167 q 767 1283 750 1246 q 819 1351 785 1321 q 877 1385 853 1381 q 910 1391 901 1390 q 928 1390 919 1392 q 967 1381 938 1390 q 1006 1236 1036 1311 z "},"":{"ha":871,"x_min":-18,"x_max":933,"o":"m 889 861 q 933 794 933 824 q 922 772 933 782 q 838 679 901 735 q 669 550 736 592 q 699 420 688 507 q 715 317 710 333 q 723 292 721 301 q 733 276 725 283 q 715 244 742 256 q 650 225 689 232 q 511 222 564 211 q 471 257 485 238 q 415 361 451 286 q 343 304 383 339 l 318 282 q 298 263 307 272 q 276 243 289 253 q 201 203 246 219 q 113 192 154 190 q 29 219 38 196 q -18 247 -11 228 q -10 310 -25 267 q 272 576 151 506 q 247 628 257 593 l 231 679 q 213 711 225 697 q 148 742 168 719 q 158 806 128 765 l 181 822 q 323 871 250 863 q 458 847 396 879 q 514 819 482 843 q 576 757 567 781 q 626 790 589 768 q 679 820 664 813 q 713 840 694 828 q 749 862 731 851 q 786 875 768 872 q 826 874 804 878 q 885 863 847 869 l 886 863 q 888 862 888 863 q 889 861 888 861 z "},"":{"ha":888,"x_min":33,"x_max":1032,"o":"m 282 919 q 476 1044 369 1019 q 615 1039 550 1063 q 749 1078 667 1093 q 876 993 824 1064 q 888 964 879 983 q 906 921 897 944 q 915 549 967 779 q 689 64 851 263 q 576 -37 639 3 q 338 -106 476 -114 q 193 -62 251 -101 q 42 418 -39 53 q 282 919 108 718 m 299 182 l 297 174 l 300 158 q 328 92 308 115 q 360 64 347 69 q 388 85 374 75 q 413 108 401 94 q 560 414 507 225 q 599 764 613 603 q 485 604 544 694 q 390 450 425 514 q 299 182 311 301 m 552 896 q 576 939 552 896 q 626 1034 600 982 q 668 1113 651 1086 q 690 1147 685 1140 q 699 1160 696 1153 q 730 1222 696 1192 q 843 1267 764 1251 l 853 1267 q 957 1250 928 1264 q 1032 1164 1011 1225 q 1020 1114 1036 1138 q 988 1071 1004 1090 q 964 979 1004 1026 q 860 860 906 924 q 752 712 814 797 q 617 510 690 626 q 471 275 544 393 q 165 -169 285 -22 q 97 -179 142 -199 q 35 -111 51 -160 q 51 7 13 -54 q 299 475 146 222 q 435 698 367 586 q 552 896 504 810 z "},"":{"ha":888,"x_min":63,"x_max":1032,"o":"m 476 1006 l 476 1003 q 477 1001 476 1001 q 478 1000 478 1001 l 478 997 l 479 997 l 488 975 q 415 725 501 935 q 331 376 324 501 q 479 519 346 288 q 683 915 585 700 q 710 976 696 944 q 744 1028 724 1007 q 856 1054 790 1078 q 908 1090 878 1081 q 965 1094 938 1100 q 1011 1069 992 1089 q 1032 1015 1031 1049 q 1003 883 1036 988 q 943 693 971 779 q 886 506 915 607 q 774 53 815 265 q 735 -21 772 8 q 653 -59 699 -50 q 568 -56 608 -68 q 517 14 519 -42 q 515 44 517 29 q 447 -36 518 -3 q 411 -54 428 -46 q 207 -42 314 -83 q 117 15 157 -21 q 63 99 78 50 q 81 507 14 254 q 149 718 108 615 q 208 867 189 821 q 235 930 226 913 q 253 964 243 947 q 293 1028 276 1011 l 310 1043 q 315 1047 313 1046 q 322 1050 318 1047 q 346 1060 333 1057 l 365 1064 l 374 1064 q 443 1047 414 1069 q 446 1046 443 1046 l 457 1036 l 461 1032 l 465 1026 q 466 1025 465 1025 q 467 1024 467 1025 l 468 1022 l 468 1019 q 469 1018 469 1019 l 469 1017 q 472 1015 471 1015 l 472 1014 q 473 1013 472 1013 q 474 1012 474 1013 q 475 1010 474 1011 l 475 1008 q 476 1006 475 1007 m 514 81 l 514 85 q 513 74 513 83 q 514 79 513 78 l 514 81 m 513 1307 q 560 1408 500 1375 q 678 1426 613 1436 q 754 1406 718 1425 q 806 1350 790 1386 q 796 1275 794 1314 q 797 1167 799 1192 q 781 1129 796 1142 q 746 1114 765 1117 q 669 1128 704 1108 q 657 1147 663 1142 q 649 1156 651 1149 q 613 1201 643 1171 l 563 1251 q 536 1269 542 1261 q 513 1299 525 1282 l 511 1306 l 513 1307 z "},"":{"ha":888,"x_min":63,"x_max":1032,"o":"m 476 1006 l 476 1003 q 477 1001 476 1001 q 478 1000 478 1001 l 478 997 l 479 997 l 488 975 q 415 725 501 935 q 331 376 324 501 q 479 519 346 288 q 683 915 585 700 q 710 976 696 944 q 744 1028 724 1007 q 856 1054 790 1078 q 908 1090 878 1081 q 965 1094 938 1100 q 1011 1069 992 1089 q 1032 1015 1031 1049 q 1003 883 1036 988 q 943 693 971 779 q 886 506 915 607 q 774 53 815 265 q 735 -21 772 8 q 653 -59 699 -50 q 568 -56 608 -68 q 517 14 519 -42 q 515 44 517 29 q 447 -36 518 -3 q 411 -54 428 -46 q 207 -42 314 -83 q 117 15 157 -21 q 63 99 78 50 q 81 507 14 254 q 149 718 108 615 q 208 867 189 821 q 235 930 226 913 q 253 964 243 947 q 293 1028 276 1011 l 310 1043 q 315 1047 313 1046 q 322 1050 318 1047 q 346 1060 333 1057 l 365 1064 l 374 1064 q 443 1047 414 1069 q 446 1046 443 1046 l 457 1036 l 461 1032 l 465 1026 q 466 1025 465 1025 q 467 1024 467 1025 l 468 1022 l 468 1019 q 469 1018 469 1019 l 469 1017 q 472 1015 471 1015 l 472 1014 q 473 1013 472 1013 q 474 1012 474 1013 q 475 1010 474 1011 l 475 1008 q 476 1006 475 1007 m 514 81 l 514 85 q 513 74 513 83 q 514 79 513 78 l 514 81 m 746 1406 q 867 1364 828 1400 q 861 1283 911 1325 q 844 1250 857 1268 q 700 1133 758 1164 q 575 1111 621 1093 q 557 1193 528 1129 l 565 1203 q 633 1343 569 1256 q 660 1372 649 1364 q 742 1406 697 1394 l 746 1406 z "},"":{"ha":888,"x_min":63,"x_max":1032,"o":"m 476 1006 l 476 1003 q 477 1001 476 1001 q 478 1000 478 1001 l 478 997 l 479 997 l 488 975 q 415 725 501 935 q 331 376 324 501 q 479 519 346 288 q 683 915 585 700 q 710 976 696 944 q 744 1028 724 1007 q 856 1054 790 1078 q 908 1090 878 1081 q 965 1094 938 1100 q 1011 1069 992 1089 q 1032 1015 1031 1049 q 1003 883 1036 988 q 943 693 971 779 q 886 506 915 607 q 774 53 815 265 q 735 -21 772 8 q 653 -59 699 -50 q 568 -56 608 -68 q 517 14 519 -42 q 515 44 517 29 q 447 -36 518 -3 q 411 -54 428 -46 q 207 -42 314 -83 q 117 15 157 -21 q 63 99 78 50 q 81 507 14 254 q 149 718 108 615 q 208 867 189 821 q 235 930 226 913 q 253 964 243 947 q 293 1028 276 1011 l 310 1043 q 315 1047 313 1046 q 322 1050 318 1047 q 346 1060 333 1057 l 365 1064 l 374 1064 q 443 1047 414 1069 q 446 1046 443 1046 l 457 1036 l 461 1032 l 465 1026 q 466 1025 465 1025 q 467 1024 467 1025 l 468 1022 l 468 1019 q 469 1018 469 1019 l 469 1017 q 472 1015 471 1015 l 472 1014 q 473 1013 472 1013 q 474 1012 474 1013 q 475 1010 474 1011 l 475 1008 q 476 1006 475 1007 m 514 81 l 514 85 q 513 74 513 83 q 514 79 513 78 l 514 81 m 821 1140 q 828 1181 821 1157 q 813 1229 825 1208 q 790 1271 801 1250 q 692 1157 725 1190 q 578 1097 636 1113 q 483 1096 514 1072 q 468 1127 468 1106 q 489 1182 468 1149 q 667 1383 611 1328 q 753 1467 722 1439 q 809 1519 785 1496 q 863 1554 833 1542 q 964 1553 936 1586 q 936 1486 972 1522 l 936 1465 q 951 1315 951 1399 q 963 1269 957 1294 q 967 1218 969 1244 q 896 1131 960 1158 q 849 1121 869 1121 q 821 1140 829 1121 z "},"":{"ha":888,"x_min":63,"x_max":1032,"o":"m 476 1006 l 476 1003 q 477 1001 476 1001 q 478 1000 478 1001 l 478 997 l 479 997 l 488 975 q 415 725 501 935 q 331 376 324 501 q 479 519 346 288 q 683 915 585 700 q 710 976 696 944 q 744 1028 724 1007 q 856 1054 790 1078 q 908 1090 878 1081 q 965 1094 938 1100 q 1011 1069 992 1089 q 1032 1015 1031 1049 q 1003 883 1036 988 q 943 693 971 779 q 886 506 915 607 q 774 53 815 265 q 735 -21 772 8 q 653 -59 699 -50 q 568 -56 608 -68 q 517 14 519 -42 q 515 44 517 29 q 447 -36 518 -3 q 411 -54 428 -46 q 207 -42 314 -83 q 117 15 157 -21 q 63 99 78 50 q 81 507 14 254 q 149 718 108 615 q 208 867 189 821 q 235 930 226 913 q 253 964 243 947 q 293 1028 276 1011 l 310 1043 q 315 1047 313 1046 q 322 1050 318 1047 q 346 1060 333 1057 l 365 1064 l 374 1064 q 443 1047 414 1069 q 446 1046 443 1046 l 457 1036 l 461 1032 l 465 1026 q 466 1025 465 1025 q 467 1024 467 1025 l 468 1022 l 468 1019 q 469 1018 469 1019 l 469 1017 q 472 1015 471 1015 l 472 1014 q 473 1013 472 1013 q 474 1012 474 1013 q 475 1010 474 1011 l 475 1008 q 476 1006 475 1007 m 514 81 l 514 85 q 513 74 513 83 q 514 79 513 78 l 514 81 m 679 1222 q 638 1172 665 1193 q 579 1141 610 1150 q 538 1132 549 1132 q 496 1138 526 1132 l 494 1138 l 492 1140 q 433 1196 442 1163 q 442 1261 425 1229 q 494 1318 460 1293 q 552 1348 528 1343 q 585 1353 576 1353 q 602 1353 594 1354 q 619 1349 610 1351 q 640 1344 628 1347 l 644 1340 q 679 1222 713 1289 m 989 1249 q 947 1190 975 1215 q 890 1153 918 1164 q 853 1143 861 1143 q 806 1150 844 1143 l 804 1150 q 800 1153 803 1150 q 742 1219 750 1179 q 751 1296 733 1258 q 802 1363 768 1333 q 860 1398 836 1393 q 894 1403 885 1403 q 911 1403 903 1404 q 950 1393 921 1403 q 989 1249 1019 1324 z "},"":{"ha":682,"x_min":4,"x_max":828,"o":"m 167 526 q 147 854 143 728 q 196 968 144 914 q 297 1025 244 1019 q 372 960 356 1029 q 400 869 383 921 q 432 761 417 818 q 481 835 447 782 q 543 929 514 888 q 668 1071 614 1031 q 759 1083 721 1092 q 815 1054 797 1074 q 828 997 832 1035 q 694 722 825 910 q 633 622 664 679 q 560 495 601 565 q 482 356 519 425 q 347 57 396 199 q 358 51 349 60 q 376 25 368 42 q 372 -44 399 -17 q 207 -122 306 -114 q 51 -89 117 -129 q 8 4 -14 -51 l 4 4 q 74 153 35 83 q 154 299 113 224 l 217 410 q 178 443 193 404 q 167 526 167 475 m 588 1406 q 708 1364 669 1400 q 703 1283 753 1325 q 686 1250 699 1268 q 542 1133 600 1164 q 417 1111 463 1093 q 399 1193 369 1129 l 407 1203 q 475 1343 411 1256 q 501 1372 490 1364 q 583 1406 539 1394 l 588 1406 z "},"":{"ha":1157,"x_min":0,"x_max":0,"o":""},"":{"ha":989,"x_min":-4,"x_max":957,"o":"m 613 656 l 618 657 q 700 725 676 692 q 750 889 740 782 q 747 918 751 906 q 703 930 726 928 q 649 908 679 932 q 592 850 619 885 q 492 693 536 781 l 481 669 q 471 624 475 646 q 463 587 467 601 q 456 560 460 572 q 431 436 453 526 q 401 313 408 346 q 383 224 394 279 q 358 115 372 169 q 293 -92 328 -12 q 171 -161 246 -150 q 44 -131 96 -171 q -4 6 -12 -85 q 73 191 42 88 q 120 356 104 294 q 161 502 136 417 q 223 695 186 588 q 294 911 260 803 q 375 978 321 961 q 472 967 424 993 q 560 1052 528 1033 q 621 1081 592 1071 q 719 1093 683 1101 q 779 1081 756 1085 q 825 1069 803 1076 q 956 846 964 1021 q 914 664 953 747 q 854 582 897 629 l 847 574 q 933 256 965 460 q 891 109 924 188 q 800 -36 858 31 q 599 -150 707 -140 q 527 -151 561 -154 q 465 -132 493 -147 q 417 -89 436 -117 q 389 69 374 -26 q 488 154 429 142 q 532 161 507 158 l 549 163 q 601 147 583 156 q 675 296 656 213 q 663 456 697 385 l 653 463 l 632 467 q 569 503 594 479 q 537 555 543 528 q 547 609 531 582 q 613 656 564 636 m 508 782 q 510 793 513 796 q 501 764 508 790 l 508 782 m 443 515 l 442 508 l 443 515 m 500 754 q 499 750 499 753 q 500 754 499 753 z "},"":{"ha":744,"x_min":11,"x_max":728,"o":"m 636 596 l 642 594 q 644 593 644 594 q 704 572 681 607 q 728 500 719 549 q 714 315 731 433 q 679 31 682 76 q 619 -36 682 -18 q 511 -35 565 -53 q 464 25 454 -15 q 442 -5 453 4 q 398 -30 431 -14 q 306 -56 365 -46 q 186 -62 246 -67 q 77 -33 126 -57 q 11 43 28 -8 q 19 297 -21 143 q 119 476 47 399 q 308 624 203 565 q 461 675 388 667 q 505 674 486 678 q 545 665 524 669 q 586 653 567 661 q 636 596 636 632 m 379 228 q 395 276 389 247 q 413 340 401 306 q 240 228 300 294 q 249 126 175 154 q 342 147 313 110 q 364 189 354 164 q 388 240 374 214 q 379 228 383 233 m 378 922 q 425 1024 365 990 q 543 1042 478 1051 q 619 1021 583 1040 q 671 965 656 1001 q 661 890 660 929 q 663 782 664 807 q 646 744 661 757 q 611 729 631 732 q 535 743 569 724 q 522 763 528 757 q 514 771 517 764 q 478 817 508 786 l 428 867 q 401 885 407 876 q 378 914 390 897 l 376 921 l 378 922 z "},"":{"ha":744,"x_min":11,"x_max":757,"o":"m 636 596 l 642 594 q 644 593 644 594 q 704 572 681 607 q 728 500 719 549 q 714 315 731 433 q 679 31 682 76 q 619 -36 682 -18 q 511 -35 565 -53 q 464 25 454 -15 q 442 -5 453 4 q 398 -30 431 -14 q 306 -56 365 -46 q 186 -62 246 -67 q 77 -33 126 -57 q 11 43 28 -8 q 19 297 -21 143 q 119 476 47 399 q 308 624 203 565 q 461 675 388 667 q 505 674 486 678 q 545 665 524 669 q 586 653 567 661 q 636 596 636 632 m 379 228 q 395 276 389 247 q 413 340 401 306 q 240 228 300 294 q 249 126 175 154 q 342 147 313 110 q 364 189 354 164 q 388 240 374 214 q 379 228 383 233 m 635 1046 q 756 1004 717 1040 q 750 924 800 965 q 733 890 746 908 q 589 774 647 804 q 464 751 510 733 q 446 833 417 769 l 454 843 q 522 983 458 896 q 549 1013 538 1004 q 631 1046 586 1035 l 635 1046 z "},"":{"ha":779,"x_min":11,"x_max":774,"o":"m 636 596 l 642 594 q 644 593 644 594 q 704 572 681 607 q 728 500 719 549 q 714 315 731 433 q 679 31 682 76 q 619 -36 682 -18 q 511 -35 565 -53 q 464 25 454 -15 q 442 -5 453 4 q 398 -30 431 -14 q 306 -56 365 -46 q 186 -62 246 -67 q 77 -33 126 -57 q 11 43 28 -8 q 19 297 -21 143 q 119 476 47 399 q 308 624 203 565 q 461 675 388 667 q 505 674 486 678 q 545 665 524 669 q 586 653 567 661 q 636 596 636 632 m 379 228 q 395 276 389 247 q 413 340 401 306 q 240 228 300 294 q 249 126 175 154 q 342 147 313 110 q 364 189 354 164 q 388 240 374 214 q 379 228 383 233 m 628 758 q 635 799 628 775 q 620 847 632 826 q 597 889 608 868 q 499 775 532 808 q 385 715 443 731 q 290 714 321 690 q 275 745 275 724 q 296 800 275 767 q 474 1001 418 946 q 560 1085 529 1057 q 616 1137 592 1114 q 669 1172 640 1160 q 771 1171 743 1204 q 743 1104 779 1140 l 743 1083 q 758 933 758 1017 q 770 888 764 913 q 774 836 776 863 q 703 749 767 776 q 656 739 676 739 q 628 758 636 739 z "},"":{"ha":753,"x_min":11,"x_max":813,"o":"m 636 596 l 642 594 q 644 593 644 594 q 704 572 681 607 q 728 500 719 549 q 714 315 731 433 q 679 31 682 76 q 619 -36 682 -18 q 511 -35 565 -53 q 464 25 454 -15 q 442 -5 453 4 q 398 -30 431 -14 q 306 -56 365 -46 q 186 -62 246 -67 q 77 -33 126 -57 q 11 43 28 -8 q 19 297 -21 143 q 119 476 47 399 q 308 624 203 565 q 461 675 388 667 q 505 674 486 678 q 545 665 524 669 q 586 653 567 661 q 636 596 636 632 m 379 228 q 395 276 389 247 q 413 340 401 306 q 240 228 300 294 q 249 126 175 154 q 342 147 313 110 q 364 189 354 164 q 388 240 374 214 q 379 228 383 233 m 304 906 q 348 967 317 933 q 414 1015 379 1000 l 446 1039 q 561 1069 522 1086 q 592 1051 581 1063 q 607 1013 604 1040 q 608 997 603 1007 q 620 972 614 988 q 636 943 626 956 q 694 960 665 947 q 717 979 706 969 q 741 998 728 989 q 769 1012 754 1007 q 796 1015 785 1017 q 813 965 822 1010 q 750 892 800 929 q 667 826 690 835 q 582 824 632 813 q 559 835 571 825 q 533 857 547 846 q 474 874 500 882 q 439 847 457 861 q 404 819 421 832 q 346 800 367 790 q 322 817 333 806 q 304 906 275 840 m 378 992 q 378 991 374 988 q 393 1000 383 994 l 378 992 z "},"":{"ha":744,"x_min":11,"x_max":796,"o":"m 636 596 l 642 594 q 644 593 644 594 q 704 572 681 607 q 728 500 719 549 q 714 315 731 433 q 679 31 682 76 q 619 -36 682 -18 q 511 -35 565 -53 q 464 25 454 -15 q 442 -5 453 4 q 398 -30 431 -14 q 306 -56 365 -46 q 186 -62 246 -67 q 77 -33 126 -57 q 11 43 28 -8 q 19 297 -21 143 q 119 476 47 399 q 308 624 203 565 q 461 675 388 667 q 505 674 486 678 q 545 665 524 669 q 586 653 567 661 q 636 596 636 632 m 379 228 q 395 276 389 247 q 413 340 401 306 q 240 228 300 294 q 249 126 175 154 q 342 147 313 110 q 364 189 354 164 q 388 240 374 214 q 379 228 383 233 m 486 838 q 444 787 472 808 q 386 756 417 765 q 344 747 356 747 q 303 753 333 747 l 301 753 l 299 756 q 240 811 249 778 q 249 876 232 844 q 301 933 267 908 q 359 963 335 958 q 392 969 383 968 q 409 968 401 969 q 426 965 417 967 q 447 960 435 963 l 451 956 q 486 838 519 904 m 796 864 q 753 805 782 831 q 697 769 725 779 q 660 758 668 758 q 613 765 651 758 l 611 765 q 607 768 610 765 q 549 834 557 794 q 558 911 540 874 q 609 978 575 949 q 667 1013 643 1008 q 701 1019 692 1018 q 718 1018 710 1019 q 757 1008 728 1018 q 796 864 826 939 z "},"":{"ha":719,"x_min":11,"x_max":879,"o":"m 636 596 l 642 594 q 644 593 644 594 q 704 572 681 607 q 728 500 719 549 q 714 315 731 433 q 679 31 682 76 q 619 -36 682 -18 q 511 -35 565 -53 q 464 25 454 -15 q 442 -5 453 4 q 398 -30 431 -14 q 306 -56 365 -46 q 186 -62 246 -67 q 77 -33 126 -57 q 11 43 28 -8 q 19 297 -21 143 q 119 476 47 399 q 308 624 203 565 q 461 675 388 667 q 505 674 486 678 q 545 665 524 669 q 586 653 567 661 q 636 596 636 632 m 379 228 q 395 276 389 247 q 413 340 401 306 q 240 228 300 294 q 249 126 175 154 q 342 147 313 110 q 364 189 354 164 q 388 240 374 214 q 379 228 383 233 m 486 1157 q 574 1182 531 1175 q 658 1179 614 1179 q 753 1156 703 1179 q 838 1088 803 1132 q 879 994 872 1044 q 788 796 892 886 q 651 739 742 758 q 513 728 581 724 q 414 737 444 732 q 372 749 383 742 q 347 763 360 756 q 324 776 335 771 q 247 931 240 828 q 311 1082 253 1018 q 349 1111 332 1106 q 406 1134 367 1117 q 486 1157 446 1151 m 625 946 q 557 936 601 940 q 532 939 547 939 q 503 940 517 939 q 483 871 471 903 q 503 851 488 860 q 542 847 518 843 q 588 863 567 850 q 626 939 635 892 q 625 946 625 940 z "},"":{"ha":1119,"x_min":11,"x_max":1086,"o":"m 636 596 l 642 594 q 644 593 644 594 q 704 572 681 607 q 728 500 719 549 q 714 315 731 433 q 679 31 682 76 q 619 -36 682 -18 q 511 -35 565 -53 q 464 25 454 -15 q 442 -5 453 4 q 398 -30 431 -14 q 306 -56 365 -46 q 186 -62 246 -67 q 77 -33 126 -57 q 11 43 28 -8 q 19 297 -21 143 q 119 476 47 399 q 308 624 203 565 q 461 675 388 667 q 505 674 486 678 q 545 665 524 669 q 586 653 567 661 q 636 596 636 632 m 379 228 q 395 276 389 247 q 413 340 401 306 q 240 228 300 294 q 249 126 175 154 q 342 147 313 110 q 364 189 354 164 q 388 240 374 214 q 379 228 383 233 m 918 185 q 867 165 892 172 q 808 151 842 158 q 682 131 721 133 q 724 97 686 117 q 778 105 749 93 q 841 127 808 117 q 905 139 874 138 q 964 115 936 140 q 982 86 975 90 q 994 82 989 82 q 1007 78 1000 82 q 1027 46 1014 74 q 1020 -7 1040 18 q 958 -50 1000 -32 q 861 -79 917 -68 q 750 -94 806 -90 q 560 -75 625 -104 q 438 51 465 -43 q 478 343 401 176 q 588 510 513 421 q 733 622 653 588 q 928 660 826 663 q 1078 565 1036 657 q 1086 429 1099 517 q 1028 268 1064 315 q 918 185 992 222 m 838 404 q 722 321 764 419 q 703 265 710 294 q 803 318 750 260 q 832 366 822 342 q 838 404 842 390 z "},"":{"ha":597,"x_min":-35,"x_max":657,"o":"m 569 682 q 642 644 624 675 q 657 577 661 613 q 631 513 653 542 q 583 483 610 485 q 553 443 574 454 q 507 428 532 432 q 455 419 482 424 q 404 394 428 414 q 365 356 381 375 q 339 319 349 338 q 310 244 322 289 q 339 188 307 214 q 421 162 376 158 q 492 158 465 165 q 533 136 519 150 q 528 63 564 104 q 294 -69 458 -49 q 197 -73 246 -76 q 103 -36 149 -69 q 31 54 57 -3 q 40 358 -28 185 q 236 608 106 521 q 569 682 379 706 m 137 -267 q 157 -266 149 -265 l 159 -266 q 286 -243 251 -261 q 290 -207 321 -224 q 226 -206 261 -207 q 165 -194 192 -205 q 132 -90 101 -167 q 160 -49 146 -65 q 190 -11 170 -33 q 253 9 222 15 q 268 -46 284 1 l 262 -54 q 258 -66 265 -52 q 245 -93 251 -79 q 285 -102 263 -95 q 324 -113 306 -110 q 370 -129 349 -122 q 406 -148 390 -137 q 439 -226 437 -172 q 398 -326 445 -275 q 300 -398 373 -351 q 94 -441 222 -442 q 33 -432 59 -439 q -15 -406 6 -430 q -34 -332 -36 -383 q -12 -273 -20 -284 q 43 -239 5 -250 q 90 -235 77 -228 q 113 -249 104 -242 q 137 -267 122 -257 z "},"":{"ha":636,"x_min":4,"x_max":653,"o":"m 485 206 q 433 186 458 193 q 375 172 408 179 q 249 151 288 154 q 290 118 253 138 q 345 126 315 114 q 408 148 375 138 q 472 160 440 158 q 531 136 503 161 q 549 107 542 111 q 561 103 556 103 q 574 99 567 103 q 594 67 581 94 q 587 14 607 39 q 525 -29 567 -11 q 428 -58 483 -47 q 317 -74 372 -69 q 126 -54 192 -83 q 4 72 32 -22 q 44 364 -32 197 q 154 531 79 442 q 300 643 219 608 q 494 681 393 683 q 644 586 603 678 q 653 450 665 538 q 594 289 631 336 q 485 206 558 243 m 404 425 q 289 342 331 440 q 269 286 276 315 q 369 339 317 281 q 399 387 389 363 q 404 425 408 411 m 344 989 q 392 1090 332 1057 q 510 1108 444 1118 q 586 1088 550 1107 q 638 1032 622 1068 q 628 957 626 996 q 629 849 631 874 q 613 811 628 824 q 578 796 597 799 q 501 810 536 790 q 489 829 494 824 q 481 838 483 831 q 444 883 475 853 l 394 933 q 368 951 374 943 q 344 981 357 964 l 343 988 l 344 989 z "},"":{"ha":636,"x_min":4,"x_max":704,"o":"m 485 206 q 433 186 458 193 q 375 172 408 179 q 249 151 288 154 q 290 118 253 138 q 345 126 315 114 q 408 148 375 138 q 472 160 440 158 q 531 136 503 161 q 549 107 542 111 q 561 103 556 103 q 574 99 567 103 q 594 67 581 94 q 587 14 607 39 q 525 -29 567 -11 q 428 -58 483 -47 q 317 -74 372 -69 q 126 -54 192 -83 q 4 72 32 -22 q 44 364 -32 197 q 154 531 79 442 q 300 643 219 608 q 494 681 393 683 q 644 586 603 678 q 653 450 665 538 q 594 289 631 336 q 485 206 558 243 m 404 425 q 289 342 331 440 q 269 286 276 315 q 369 339 317 281 q 399 387 389 363 q 404 425 408 411 m 582 1083 q 703 1042 664 1078 q 697 961 747 1003 q 681 928 693 946 q 536 811 594 842 q 411 789 457 771 q 393 871 364 807 l 401 881 q 469 1021 406 933 q 496 1050 485 1042 q 578 1083 533 1072 l 582 1083 z "},"":{"ha":636,"x_min":4,"x_max":743,"o":"m 485 206 q 433 186 458 193 q 375 172 408 179 q 249 151 288 154 q 290 118 253 138 q 345 126 315 114 q 408 148 375 138 q 472 160 440 158 q 531 136 503 161 q 549 107 542 111 q 561 103 556 103 q 574 99 567 103 q 594 67 581 94 q 587 14 607 39 q 525 -29 567 -11 q 428 -58 483 -47 q 317 -74 372 -69 q 126 -54 192 -83 q 4 72 32 -22 q 44 364 -32 197 q 154 531 79 442 q 300 643 219 608 q 494 681 393 683 q 644 586 603 678 q 653 450 665 538 q 594 289 631 336 q 485 206 558 243 m 404 425 q 289 342 331 440 q 269 286 276 315 q 369 339 317 281 q 399 387 389 363 q 404 425 408 411 m 597 744 q 604 785 597 761 q 590 833 601 813 q 567 875 578 854 q 468 761 501 794 q 354 701 413 717 q 260 700 290 676 q 244 731 244 710 q 265 786 244 753 q 443 988 388 932 q 530 1072 499 1043 q 585 1123 561 1100 q 639 1158 610 1146 q 740 1157 713 1190 q 713 1090 749 1126 l 713 1069 q 728 919 728 1003 q 740 874 733 899 q 743 822 746 849 q 672 735 736 763 q 626 725 646 725 q 597 744 606 725 z "},"":{"ha":636,"x_min":4,"x_max":779,"o":"m 485 206 q 433 186 458 193 q 375 172 408 179 q 249 151 288 154 q 290 118 253 138 q 345 126 315 114 q 408 148 375 138 q 472 160 440 158 q 531 136 503 161 q 549 107 542 111 q 561 103 556 103 q 574 99 567 103 q 594 67 581 94 q 587 14 607 39 q 525 -29 567 -11 q 428 -58 483 -47 q 317 -74 372 -69 q 126 -54 192 -83 q 4 72 32 -22 q 44 364 -32 197 q 154 531 79 442 q 300 643 219 608 q 494 681 393 683 q 644 586 603 678 q 653 450 665 538 q 594 289 631 336 q 485 206 558 243 m 404 425 q 289 342 331 440 q 269 286 276 315 q 369 339 317 281 q 399 387 389 363 q 404 425 408 411 m 469 836 q 428 785 456 807 q 369 755 400 764 q 328 746 339 746 q 286 751 317 746 l 285 751 l 282 754 q 224 810 232 776 q 233 875 215 843 q 284 932 250 907 q 342 962 318 957 q 376 967 367 967 q 392 967 385 968 q 409 963 400 965 q 431 958 418 961 l 435 954 q 469 836 503 903 m 779 863 q 737 803 765 829 q 680 767 708 778 q 643 757 651 757 q 596 764 635 757 l 594 764 q 590 767 593 764 q 532 833 540 793 q 541 910 524 872 q 592 977 558 947 q 651 1012 626 1007 q 684 1017 675 1017 q 701 1017 693 1018 q 740 1007 711 1017 q 779 863 810 938 z "},"":{"ha":404,"x_min":6,"x_max":560,"o":"m 197 601 q 283 664 215 647 q 403 660 347 681 q 454 588 460 638 q 416 471 439 539 q 372 331 393 403 q 308 72 317 150 q 261 -58 308 -50 q 236 -61 249 -60 q 193 -89 203 -65 q 119 -119 188 -128 q 11 -64 51 -111 q 6 56 -35 -11 q 114 421 42 225 q 197 601 161 546 m 267 975 q 314 1076 254 1043 q 432 1094 367 1104 q 508 1074 472 1093 q 560 1018 544 1054 q 550 943 549 982 q 551 835 553 860 q 535 797 550 810 q 500 782 519 785 q 424 796 458 776 q 411 815 417 810 q 403 825 406 817 q 367 869 397 839 l 317 919 q 289 938 296 931 q 267 967 279 950 l 265 974 l 267 975 z "},"":{"ha":404,"x_min":6,"x_max":601,"o":"m 197 601 q 283 664 215 647 q 403 660 347 681 q 454 588 460 638 q 416 471 439 539 q 372 331 393 403 q 308 72 317 150 q 261 -58 308 -50 q 236 -61 249 -60 q 193 -89 203 -65 q 119 -119 188 -128 q 11 -64 51 -111 q 6 56 -35 -11 q 114 421 42 225 q 197 601 161 546 m 479 1057 q 600 1015 561 1051 q 594 935 644 976 q 578 901 590 919 q 433 786 492 815 q 308 761 354 744 q 290 844 261 781 l 299 854 q 367 994 303 907 q 393 1024 382 1015 q 475 1057 431 1046 l 479 1057 z "},"":{"ha":404,"x_min":6,"x_max":625,"o":"m 197 601 q 283 664 215 647 q 403 660 347 681 q 454 588 460 638 q 416 471 439 539 q 372 331 393 403 q 308 72 317 150 q 261 -58 308 -50 q 236 -61 249 -60 q 193 -89 203 -65 q 119 -119 188 -128 q 11 -64 51 -111 q 6 56 -35 -11 q 114 421 42 225 q 197 601 161 546 m 479 754 q 486 794 479 769 q 472 843 483 822 q 449 885 460 864 q 350 771 383 804 q 236 711 294 726 q 142 708 172 686 q 126 741 126 719 q 147 796 126 763 q 325 997 269 942 q 412 1081 381 1053 q 467 1133 443 1110 q 521 1168 492 1156 q 622 1167 594 1200 q 594 1100 631 1136 l 594 1079 q 610 929 610 1013 q 622 883 615 908 q 625 833 628 858 q 554 744 618 772 q 508 735 528 735 q 479 754 488 735 z "},"":{"ha":404,"x_min":6,"x_max":689,"o":"m 197 601 q 283 664 215 647 q 403 660 347 681 q 454 588 460 638 q 416 471 439 539 q 372 331 393 403 q 308 72 317 150 q 261 -58 308 -50 q 236 -61 249 -60 q 193 -89 203 -65 q 119 -119 188 -128 q 11 -64 51 -111 q 6 56 -35 -11 q 114 421 42 225 q 197 601 161 546 m 379 872 q 338 822 365 843 q 279 791 310 800 q 238 782 249 782 q 196 788 226 782 l 194 788 l 192 790 q 133 846 142 813 q 142 911 125 879 q 194 968 160 943 q 252 998 228 993 q 285 1003 276 1003 q 302 1003 294 1004 q 319 999 310 1001 q 340 994 328 997 l 344 990 q 379 872 413 939 m 689 899 q 647 840 675 865 q 590 803 618 814 q 553 793 561 793 q 506 800 544 793 l 504 800 q 500 803 503 800 q 442 869 450 829 q 451 946 433 908 q 502 1013 468 983 q 560 1048 536 1043 q 594 1053 585 1053 q 611 1053 603 1054 q 650 1043 621 1053 q 689 899 719 974 z "},"":{"ha":926,"x_min":26,"x_max":910,"o":"m 425 775 q 290 925 256 868 q 353 957 303 944 q 503 915 399 957 q 549 900 526 906 q 548 898 550 900 q 547 896 546 896 q 620 947 585 922 q 692 985 656 972 q 836 956 769 1013 q 894 858 904 915 q 864 804 889 831 q 792 760 839 778 q 783 760 789 757 q 857 624 842 686 q 908 319 900 483 q 836 17 921 106 q 576 -136 749 -75 q 288 -194 422 -192 q 276 -194 275 -194 q 280 -191 276 -193 q 283 -187 283 -189 q 271 -183 283 -185 q 158 -99 188 -153 q 54 -8 106 -74 q 26 278 -40 122 q 112 405 56 347 q 222 488 168 463 q 303 526 276 514 q 356 546 331 538 q 446 565 389 557 q 578 583 542 582 q 500 679 539 644 q 407 635 454 656 q 322 617 360 615 q 306 630 306 618 q 317 658 306 642 q 388 740 338 688 q 401 753 390 747 q 413 763 407 758 q 425 775 418 768 m 235 25 q 333 40 269 38 q 370 38 363 36 q 390 44 378 40 l 428 54 q 515 133 483 90 q 622 436 635 274 q 576 435 600 438 q 520 427 553 432 q 436 406 488 422 q 335 363 385 389 q 242 304 285 338 q 179 229 200 271 q 225 33 132 136 l 235 25 m 361 625 q 358 625 358 625 q 361 625 360 625 z "},"":{"ha":892,"x_min":-17,"x_max":903,"o":"m 232 601 q 357 603 325 639 q 374 549 374 583 l 374 542 q 553 642 425 601 q 775 665 688 683 q 903 517 889 642 q 854 249 914 411 q 824 181 835 207 q 806 135 814 156 q 749 42 788 96 q 680 -22 726 0 q 588 -48 633 -44 q 514 -34 543 -51 q 497 21 485 -17 q 550 178 529 107 q 593 299 571 249 q 599 388 614 369 q 556 383 586 401 q 518 344 529 367 q 424 200 493 326 q 385 131 404 165 q 351 68 367 97 q 323 19 335 39 q 302 -6 311 0 q 287 -15 293 -12 q 276 -19 281 -17 q 269 -37 272 -22 q 203 -85 264 -69 q 25 -76 104 -110 q -17 -46 -1 -65 q 93 389 -49 18 q 158 544 143 519 q 203 604 193 597 q 232 601 214 611 m 289 851 q 333 913 301 879 q 399 961 364 946 l 431 985 q 546 1015 507 1032 q 577 997 565 1008 q 592 958 589 986 q 593 943 588 953 q 605 917 599 933 q 621 889 611 901 q 679 906 650 893 q 701 925 690 915 q 726 944 713 935 q 754 958 739 953 q 781 961 769 963 q 797 911 807 956 q 735 838 785 875 q 651 772 675 781 q 567 769 617 758 q 544 781 556 771 q 518 803 532 792 q 458 819 485 828 q 424 792 442 807 q 389 765 406 778 q 331 746 351 736 q 307 763 318 751 q 289 851 260 786 m 363 938 q 363 937 358 933 q 378 946 368 940 l 363 938 z "},"":{"ha":711,"x_min":15,"x_max":713,"o":"m 194 593 q 267 603 224 614 q 283 601 275 601 q 389 667 314 664 q 443 674 408 668 q 527 671 478 679 q 614 642 576 663 q 713 514 696 597 q 703 247 746 392 q 547 -8 657 88 q 442 -65 497 -53 q 342 -78 386 -76 q 260 -78 297 -79 q 189 -71 224 -78 q 65 0 114 -56 q 17 194 8 63 q 76 430 22 311 q 194 593 129 549 m 439 314 q 374 304 404 303 q 347 272 358 289 q 315 240 335 254 q 296 228 296 225 q 257 159 272 194 q 257 88 242 124 q 339 90 313 82 q 388 122 365 99 q 424 178 411 146 q 439 314 449 238 m 374 968 q 421 1069 361 1036 q 539 1088 474 1097 q 615 1067 579 1086 q 667 1011 651 1047 q 657 936 656 975 q 658 828 660 853 q 642 790 657 803 q 607 775 626 778 q 531 789 565 769 q 518 808 524 803 q 510 817 513 810 q 474 863 504 832 l 424 913 q 397 931 403 922 q 374 960 386 943 l 372 967 l 374 968 z "},"":{"ha":711,"x_min":15,"x_max":713,"o":"m 194 593 q 267 603 224 614 q 283 601 275 601 q 389 667 314 664 q 443 674 408 668 q 527 671 478 679 q 614 642 576 663 q 713 514 696 597 q 703 247 746 392 q 547 -8 657 88 q 442 -65 497 -53 q 342 -78 386 -76 q 260 -78 297 -79 q 189 -71 224 -78 q 65 0 114 -56 q 17 194 8 63 q 76 430 22 311 q 194 593 129 549 m 439 314 q 374 304 404 303 q 347 272 358 289 q 315 240 335 254 q 296 228 296 225 q 257 159 272 194 q 257 88 242 124 q 339 90 313 82 q 388 122 365 99 q 424 178 411 146 q 439 314 449 238 m 589 1071 q 710 1029 671 1065 q 704 949 754 990 q 688 915 700 933 q 543 799 601 829 q 418 776 464 758 q 400 858 371 794 l 408 868 q 476 1008 413 921 q 503 1038 492 1029 q 585 1071 540 1060 l 589 1071 z "},"":{"ha":711,"x_min":15,"x_max":735,"o":"m 194 593 q 267 603 224 614 q 283 601 275 601 q 389 667 314 664 q 443 674 408 668 q 527 671 478 679 q 614 642 576 663 q 713 514 696 597 q 703 247 746 392 q 547 -8 657 88 q 442 -65 497 -53 q 342 -78 386 -76 q 260 -78 297 -79 q 189 -71 224 -78 q 65 0 114 -56 q 17 194 8 63 q 76 430 22 311 q 194 593 129 549 m 439 314 q 374 304 404 303 q 347 272 358 289 q 315 240 335 254 q 296 228 296 225 q 257 159 272 194 q 257 88 242 124 q 339 90 313 82 q 388 122 365 99 q 424 178 411 146 q 439 314 449 238 m 589 763 q 596 803 589 779 q 581 851 593 831 q 558 893 569 872 q 460 779 493 813 q 346 719 404 735 q 251 718 282 694 q 236 749 236 728 q 257 804 236 771 q 435 1006 379 950 q 522 1090 490 1061 q 577 1141 553 1118 q 631 1176 601 1164 q 732 1175 704 1208 q 704 1108 740 1144 l 704 1088 q 719 938 719 1021 q 731 892 725 917 q 735 840 738 867 q 664 753 728 781 q 617 743 638 743 q 589 763 597 743 z "},"":{"ha":711,"x_min":15,"x_max":778,"o":"m 194 593 q 267 603 224 614 q 283 601 275 601 q 389 667 314 664 q 443 674 408 668 q 527 671 478 679 q 614 642 576 663 q 713 514 696 597 q 703 247 746 392 q 547 -8 657 88 q 442 -65 497 -53 q 342 -78 386 -76 q 260 -78 297 -79 q 189 -71 224 -78 q 65 0 114 -56 q 17 194 8 63 q 76 430 22 311 q 194 593 129 549 m 439 314 q 374 304 404 303 q 347 272 358 289 q 315 240 335 254 q 296 228 296 225 q 257 159 272 194 q 257 88 242 124 q 339 90 313 82 q 388 122 365 99 q 424 178 411 146 q 439 314 449 238 m 269 876 q 313 938 282 904 q 379 986 344 971 l 411 1010 q 526 1040 488 1057 q 558 1022 546 1033 q 572 983 569 1011 q 574 968 568 978 q 585 942 579 958 q 601 914 592 926 q 660 931 631 918 q 682 950 671 940 q 706 969 693 960 q 735 983 719 978 q 761 986 750 988 q 778 936 788 981 q 715 863 765 900 q 632 797 656 806 q 547 794 597 783 q 524 806 536 796 q 499 828 513 817 q 439 844 465 853 q 404 817 422 832 q 369 790 386 803 q 311 771 332 761 q 288 788 299 776 q 269 876 240 811 m 343 963 q 344 962 339 958 q 358 971 349 965 l 343 963 z "},"":{"ha":711,"x_min":15,"x_max":804,"o":"m 194 593 q 267 603 224 614 q 283 601 275 601 q 389 667 314 664 q 443 674 408 668 q 527 671 478 679 q 614 642 576 663 q 713 514 696 597 q 703 247 746 392 q 547 -8 657 88 q 442 -65 497 -53 q 342 -78 386 -76 q 260 -78 297 -79 q 189 -71 224 -78 q 65 0 114 -56 q 17 194 8 63 q 76 430 22 311 q 194 593 129 549 m 439 314 q 374 304 404 303 q 347 272 358 289 q 315 240 335 254 q 296 228 296 225 q 257 159 272 194 q 257 88 242 124 q 339 90 313 82 q 388 122 365 99 q 424 178 411 146 q 439 314 449 238 m 494 865 q 453 815 481 836 q 394 784 425 793 q 353 775 364 775 q 311 781 342 775 l 310 781 l 307 783 q 249 839 257 806 q 258 904 240 872 q 309 961 275 936 q 367 991 343 986 q 401 997 392 996 q 417 996 410 997 q 434 992 425 994 q 456 988 443 990 l 460 983 q 494 865 528 932 m 804 892 q 762 833 790 858 q 705 797 733 807 q 668 786 676 786 q 621 793 660 786 l 619 793 q 615 796 618 793 q 557 862 565 822 q 566 939 549 901 q 617 1006 583 976 q 676 1041 651 1036 q 709 1047 700 1046 q 726 1046 718 1047 q 765 1036 736 1046 q 804 892 835 967 z "},"":{"ha":711,"x_min":-14,"x_max":744,"o":"m 194 593 q 267 603 224 614 q 283 601 275 601 q 389 667 314 664 q 443 674 408 668 q 527 671 478 679 q 614 642 576 663 q 713 514 696 597 q 703 247 746 392 q 547 -8 657 88 q 442 -65 497 -53 q 342 -78 386 -76 q 260 -78 297 -79 q 189 -71 224 -78 q 65 0 114 -56 q 17 194 8 63 q 76 430 22 311 q 194 593 129 549 m 439 314 q 374 304 404 303 q 347 272 358 289 q 315 240 335 254 q 296 228 296 225 q 257 159 272 194 q 257 88 242 124 q 339 90 313 82 q 388 122 365 99 q 424 178 411 146 q 439 314 449 238 m 380 625 q 398 658 380 625 q 436 730 416 690 q 468 790 455 769 q 485 815 481 810 q 491 825 489 820 q 515 872 489 849 q 601 906 541 895 l 608 906 q 687 894 665 904 q 744 828 728 875 q 735 790 747 808 q 710 758 723 773 q 692 688 723 724 q 613 598 648 646 q 532 486 579 550 q 430 332 485 421 q 318 154 374 244 q 87 -183 177 -71 q 35 -190 69 -205 q -12 -139 0 -175 q 0 -49 -29 -95 q 188 306 72 114 q 292 475 239 390 q 380 625 344 560 z "},"":{"ha":842,"x_min":7,"x_max":913,"o":"m 181 610 q 267 653 219 647 q 352 643 315 660 q 406 590 389 626 q 401 506 424 553 q 326 356 354 436 q 275 193 299 275 q 489 433 403 274 q 543 529 514 481 l 564 568 l 606 635 q 635 669 614 661 q 680 676 656 676 q 729 676 704 676 q 775 689 754 675 q 824 699 796 703 q 876 681 853 696 q 910 644 899 665 q 913 601 922 622 q 753 136 854 476 q 708 8 729 60 q 621 -50 674 -35 q 522 -59 568 -65 q 447 -27 475 -53 q 435 38 419 -1 q 354 -21 396 6 q 253 -56 313 -47 q 140 -51 194 -64 q 48 0 86 -37 q 7 100 10 38 q 181 610 -1 319 m 414 993 q 461 1094 401 1061 q 579 1113 514 1122 q 656 1092 619 1111 q 707 1036 692 1072 q 697 961 696 1000 q 699 853 700 878 q 682 815 697 828 q 647 800 667 803 q 571 814 606 794 q 558 833 564 828 q 550 842 553 835 q 514 888 544 857 l 464 938 q 438 956 443 947 q 414 985 426 968 l 413 992 l 414 993 z "},"":{"ha":842,"x_min":7,"x_max":913,"o":"m 181 610 q 267 653 219 647 q 352 643 315 660 q 406 590 389 626 q 401 506 424 553 q 326 356 354 436 q 275 193 299 275 q 489 433 403 274 q 543 529 514 481 l 564 568 l 606 635 q 635 669 614 661 q 680 676 656 676 q 729 676 704 676 q 775 689 754 675 q 824 699 796 703 q 876 681 853 696 q 910 644 899 665 q 913 601 922 622 q 753 136 854 476 q 708 8 729 60 q 621 -50 674 -35 q 522 -59 568 -65 q 447 -27 475 -53 q 435 38 419 -1 q 354 -21 396 6 q 253 -56 313 -47 q 140 -51 194 -64 q 48 0 86 -37 q 7 100 10 38 q 181 610 -1 319 m 663 1088 q 783 1046 744 1082 q 778 965 828 1007 q 761 932 774 950 q 617 815 675 846 q 492 793 538 775 q 474 875 444 811 l 482 885 q 550 1025 486 938 q 576 1054 565 1046 q 658 1088 614 1076 l 663 1088 z "},"":{"ha":842,"x_min":7,"x_max":913,"o":"m 181 610 q 267 653 219 647 q 352 643 315 660 q 406 590 389 626 q 401 506 424 553 q 326 356 354 436 q 275 193 299 275 q 489 433 403 274 q 543 529 514 481 l 564 568 l 606 635 q 635 669 614 661 q 680 676 656 676 q 729 676 704 676 q 775 689 754 675 q 824 699 796 703 q 876 681 853 696 q 910 644 899 665 q 913 601 922 622 q 753 136 854 476 q 708 8 729 60 q 621 -50 674 -35 q 522 -59 568 -65 q 447 -27 475 -53 q 435 38 419 -1 q 354 -21 396 6 q 253 -56 313 -47 q 140 -51 194 -64 q 48 0 86 -37 q 7 100 10 38 q 181 610 -1 319 m 717 757 q 724 797 717 774 q 709 846 721 825 q 686 888 697 867 q 588 774 621 807 q 474 714 532 729 q 379 713 410 689 q 364 744 364 722 q 385 799 364 765 q 563 1000 507 944 q 649 1084 618 1056 q 705 1135 681 1113 q 758 1171 729 1158 q 860 1169 832 1203 q 832 1103 868 1139 l 832 1082 q 847 932 847 1015 q 859 886 853 911 q 863 835 865 861 q 792 747 856 775 q 745 738 765 738 q 717 757 725 738 z "},"":{"ha":842,"x_min":7,"x_max":913,"o":"m 181 610 q 267 653 219 647 q 352 643 315 660 q 406 590 389 626 q 401 506 424 553 q 326 356 354 436 q 275 193 299 275 q 489 433 403 274 q 543 529 514 481 l 564 568 l 606 635 q 635 669 614 661 q 680 676 656 676 q 729 676 704 676 q 775 689 754 675 q 824 699 796 703 q 876 681 853 696 q 910 644 899 665 q 913 601 922 622 q 753 136 854 476 q 708 8 729 60 q 621 -50 674 -35 q 522 -59 568 -65 q 447 -27 475 -53 q 435 38 419 -1 q 354 -21 396 6 q 253 -56 313 -47 q 140 -51 194 -64 q 48 0 86 -37 q 7 100 10 38 q 181 610 -1 319 m 575 874 q 533 823 561 844 q 475 792 506 801 q 433 783 444 783 q 392 789 422 783 l 390 789 l 388 792 q 329 847 338 814 q 338 913 321 881 q 390 969 356 944 q 448 999 424 994 q 481 1005 472 1004 q 498 1004 490 1006 q 515 1001 506 1003 q 536 996 524 999 l 540 992 q 575 874 608 940 m 885 900 q 842 841 871 867 q 785 805 814 815 q 749 794 757 794 q 701 801 740 794 l 700 801 q 696 804 699 801 q 638 870 646 831 q 647 947 629 910 q 698 1015 664 985 q 756 1049 732 1044 q 790 1055 781 1054 q 807 1054 799 1056 q 846 1044 817 1054 q 885 900 915 975 z "},"":{"ha":804,"x_min":36,"x_max":825,"o":"m 51 425 q 51 453 51 425 q 42 518 51 482 q 42 578 32 554 q 76 613 53 603 q 130 619 99 622 q 192 600 161 615 q 294 506 265 567 q 290 430 301 475 q 263 337 278 385 q 233 244 247 289 q 222 168 219 199 q 285 235 258 190 q 335 330 313 279 q 378 431 358 381 q 417 510 399 481 q 447 556 436 539 q 469 588 458 574 q 517 633 488 611 q 567 631 525 640 q 630 619 610 622 q 657 621 650 615 l 676 635 q 768 633 715 654 q 822 565 819 611 q 821 560 821 564 l 825 558 l 815 550 q 801 526 806 532 q 781 507 796 519 q 564 131 686 406 q 508 8 533 63 q 565 -53 546 -15 q 565 -135 585 -90 q 436 -307 450 -226 q 419 -378 429 -357 q 386 -418 408 -399 q 210 -390 311 -474 q 203 -210 138 -318 q 235 -149 219 -181 q 306 -8 257 -101 q 86 -6 186 -78 q 36 240 15 49 q 51 425 50 368 m 593 1004 q 714 963 675 999 q 708 882 758 924 q 692 849 704 867 q 547 732 606 763 q 422 710 468 692 q 404 792 375 728 l 413 801 q 481 942 417 854 q 507 971 496 963 q 589 1004 544 993 l 593 1004 z "},"":{"ha":585,"x_min":-167,"x_max":639,"o":"m 75 -228 q 33 -286 54 -264 q -12 -325 13 -308 q -61 -347 -37 -342 q -117 -312 -114 -362 q -131 -298 -121 -300 q -153 -292 -142 -296 q -167 -226 -178 -282 q -122 -25 -147 -143 q -57 236 -97 93 q 121 799 11 533 q 242 1029 190 965 q 283 1058 267 1061 q 338 1057 317 1050 q 377 1072 360 1064 q 413 1085 394 1081 q 458 1074 431 1089 q 433 913 497 1051 q 394 825 418 878 q 279 535 329 669 l 292 543 q 486 597 383 604 q 570 573 533 593 q 624 513 607 553 q 638 409 642 472 q 614 278 635 346 q 558 147 593 211 q 479 36 522 83 q 292 -44 382 -71 q 203 -8 253 -50 q 181 7 190 1 l 181 -4 l 168 -15 q 75 -228 142 -119 m 218 96 q 290 185 239 119 q 358 287 340 250 q 349 356 375 324 q 283 306 322 389 q 218 96 218 172 m 86 -67 l 74 -67 q 73 -99 67 -99 q 103 -57 79 -99 l 92 -60 l 93 -61 l 86 -67 z "},"":{"ha":804,"x_min":36,"x_max":825,"o":"m 51 425 q 51 453 51 425 q 42 518 51 482 q 42 578 32 554 q 76 613 53 603 q 130 619 99 622 q 192 600 161 615 q 294 506 265 567 q 290 430 301 475 q 263 337 278 385 q 233 244 247 289 q 222 168 219 199 q 285 235 258 190 q 335 330 313 279 q 378 431 358 381 q 417 510 399 481 q 447 556 436 539 q 469 588 458 574 q 517 633 488 611 q 567 631 525 640 q 630 619 610 622 q 657 621 650 615 l 676 635 q 768 633 715 654 q 822 565 819 611 q 821 560 821 564 l 825 558 l 815 550 q 801 526 806 532 q 781 507 796 519 q 564 131 686 406 q 508 8 533 63 q 565 -53 546 -15 q 565 -135 585 -90 q 436 -307 450 -226 q 419 -378 429 -357 q 386 -418 408 -399 q 210 -390 311 -474 q 203 -210 138 -318 q 235 -149 219 -181 q 306 -8 257 -101 q 86 -6 186 -78 q 36 240 15 49 q 51 425 50 368 m 478 807 q 436 756 464 778 q 378 726 408 735 q 336 717 347 717 q 294 722 325 717 l 293 722 l 290 725 q 232 781 240 747 q 241 846 224 814 q 292 903 258 878 q 351 933 326 928 q 384 938 375 938 q 401 938 393 939 q 417 934 408 936 q 439 929 426 932 l 443 925 q 478 807 511 874 m 788 833 q 745 774 774 800 q 688 738 717 749 q 651 728 660 728 q 604 735 643 728 l 603 735 q 599 738 601 735 q 540 803 549 764 q 549 881 532 843 q 601 948 567 918 q 659 983 635 978 q 692 988 683 988 q 710 988 701 989 q 749 978 719 988 q 788 833 818 908 z "},"":{"ha":1335,"x_min":42,"x_max":1321,"o":"m 282 919 q 476 1044 369 1019 q 615 1039 550 1063 q 749 1078 667 1093 q 876 993 824 1064 q 888 964 879 983 q 906 921 897 944 q 915 549 967 779 q 689 64 851 263 q 576 -37 639 3 q 338 -106 476 -114 q 193 -62 251 -101 q 42 418 -39 53 q 282 919 108 718 m 299 182 l 297 174 l 300 158 q 328 92 308 115 q 360 64 347 69 q 388 85 374 75 q 413 108 401 94 q 560 414 507 225 q 599 764 613 603 q 485 604 544 694 q 390 450 425 514 q 299 182 311 301 m 810 175 q 930 167 890 167 q 1050 178 969 167 q 1079 157 1075 169 q 1082 131 1083 144 q 1083 106 1081 118 q 1110 85 1086 93 q 1117 60 1122 81 q 1094 17 1113 40 q 986 -67 1049 -43 q 829 -96 886 -92 q 624 -89 735 -103 q 506 13 501 -67 q 633 599 506 304 q 728 800 675 694 q 741 850 739 822 q 744 904 743 878 q 753 951 746 931 q 782 981 760 972 q 1239 1069 1071 1096 q 1316 1030 1297 1068 q 1320 944 1335 992 q 1263 856 1306 897 q 1157 804 1221 814 q 1057 772 1075 781 q 1007 728 1022 756 q 971 669 988 697 q 947 610 954 642 l 942 579 q 1006 572 968 567 q 1077 581 1044 576 q 1130 582 1110 586 q 1138 541 1150 578 q 1095 458 1126 504 q 1007 392 1064 413 q 958 381 971 385 q 938 376 944 378 q 882 372 928 375 q 803 200 817 261 q 810 175 797 175 z "},"":{"ha":1149,"x_min":15,"x_max":1093,"o":"m 194 593 q 267 603 224 614 q 283 601 275 601 q 389 667 314 664 q 443 674 408 668 q 527 671 478 679 q 614 642 576 663 q 713 514 696 597 q 703 247 746 392 q 547 -8 657 88 q 442 -65 497 -53 q 342 -78 386 -76 q 260 -78 297 -79 q 189 -71 224 -78 q 65 0 114 -56 q 17 194 8 63 q 76 430 22 311 q 194 593 129 549 m 439 314 q 374 304 404 303 q 347 272 358 289 q 315 240 335 254 q 296 228 296 225 q 257 159 272 194 q 257 88 242 124 q 339 90 313 82 q 388 122 365 99 q 424 178 411 146 q 439 314 449 238 m 925 206 q 874 186 899 193 q 815 172 849 179 q 689 151 728 154 q 731 118 693 138 q 785 126 756 114 q 848 148 815 138 q 912 160 881 158 q 971 136 943 161 q 989 107 982 111 q 1001 103 996 103 q 1014 99 1007 103 q 1034 67 1021 94 q 1027 14 1047 39 q 965 -29 1007 -11 q 868 -58 924 -47 q 757 -74 813 -69 q 567 -54 632 -83 q 444 72 472 -22 q 485 364 408 197 q 594 531 519 442 q 740 643 660 608 q 935 681 833 683 q 1085 586 1043 678 q 1093 450 1106 538 q 1035 289 1071 336 q 925 206 999 243 m 844 425 q 729 342 771 440 q 710 286 717 315 q 810 339 757 281 q 839 387 829 363 q 844 425 849 411 z "},"":{"ha":800,"x_min":-42,"x_max":936,"o":"m 231 -81 q 101 -63 160 -83 q 5 -8 42 -43 q -42 73 -32 26 q -25 168 -51 119 q 119 203 11 226 q 233 185 201 186 q 286 193 264 183 q 400 265 388 226 q 364 333 408 294 q 324 367 346 350 q 286 400 301 383 q 177 519 217 451 q 144 665 138 586 q 171 797 151 744 q 219 889 190 849 q 353 1004 271 960 q 504 1067 447 1053 q 732 1071 617 1092 q 799 1044 771 1064 q 854 1004 826 1025 q 878 906 903 956 q 847 869 868 883 q 803 854 826 856 q 789 799 806 817 q 678 757 757 767 q 524 744 564 765 q 489 636 476 719 q 512 599 492 618 q 559 557 532 579 q 616 507 586 535 q 668 443 646 479 q 656 144 746 315 q 428 -47 589 17 q 231 -81 344 -81 m 524 1208 l 519 1231 q 474 1394 492 1303 q 439 1496 442 1464 q 448 1547 436 1528 q 490 1571 460 1567 q 576 1539 554 1579 q 578 1518 579 1528 q 578 1499 578 1508 q 603 1443 586 1469 q 635 1392 619 1417 q 717 1482 689 1458 q 825 1510 768 1514 q 926 1483 890 1513 q 936 1393 965 1449 q 792 1238 844 1283 q 713 1172 740 1192 q 665 1135 686 1151 q 615 1114 644 1118 q 508 1147 546 1104 q 524 1208 494 1181 z "},"":{"ha":728,"x_min":-50,"x_max":904,"o":"m 501 -33 q 373 -101 447 -78 q 224 -125 299 -124 q 83 -107 149 -126 q -19 -46 18 -87 q -50 49 -64 1 q -26 79 -43 68 q 17 85 -8 90 q 41 94 33 83 q 54 117 49 104 q 67 142 60 131 q 89 154 74 154 q 343 197 333 147 q 302 224 326 213 q 253 246 278 235 q 171 307 192 274 q 131 374 144 321 q 124 422 124 397 q 132 468 124 447 q 199 588 128 522 q 247 626 218 606 q 335 667 276 647 q 451 695 393 686 q 555 701 508 704 q 622 679 601 699 q 653 631 642 660 q 661 574 665 601 q 558 488 650 511 q 447 457 443 471 q 438 450 447 454 q 586 306 544 376 q 603 89 643 208 q 533 -8 610 50 q 501 -33 515 -22 m 492 825 l 488 847 q 442 1011 460 919 q 407 1113 410 1081 q 416 1164 404 1144 q 458 1188 428 1183 q 544 1156 522 1196 q 547 1135 547 1144 q 546 1115 546 1125 q 571 1060 554 1086 q 603 1008 588 1033 q 685 1099 657 1075 q 793 1126 736 1131 q 894 1100 858 1129 q 904 1010 933 1065 q 760 854 813 900 q 681 788 708 808 q 633 751 654 768 q 583 731 613 735 q 476 764 514 721 q 492 825 463 797 z "},"":{"ha":682,"x_min":4,"x_max":828,"o":"m 167 526 q 147 854 143 728 q 196 968 144 914 q 297 1025 244 1019 q 372 960 356 1029 q 400 869 383 921 q 432 761 417 818 q 481 835 447 782 q 543 929 514 888 q 668 1071 614 1031 q 759 1083 721 1092 q 815 1054 797 1074 q 828 997 832 1035 q 694 722 825 910 q 633 622 664 679 q 560 495 601 565 q 482 356 519 425 q 347 57 396 199 q 358 51 349 60 q 376 25 368 42 q 372 -44 399 -17 q 207 -122 306 -114 q 51 -89 117 -129 q 8 4 -14 -51 l 4 4 q 74 153 35 83 q 154 299 113 224 l 217 410 q 178 443 193 404 q 167 526 167 475 m 497 1192 q 456 1142 483 1164 q 397 1112 428 1121 q 356 1103 367 1103 q 314 1108 344 1103 l 313 1108 l 310 1111 q 251 1167 260 1133 q 260 1232 243 1200 q 312 1289 278 1264 q 370 1319 346 1314 q 403 1324 394 1324 q 420 1324 413 1325 q 437 1320 428 1322 q 458 1315 446 1318 l 463 1311 q 497 1192 531 1260 m 807 1219 q 765 1160 793 1186 q 708 1124 736 1135 q 670 1114 679 1114 q 624 1121 661 1114 l 622 1121 q 618 1124 621 1121 q 560 1190 568 1150 q 569 1267 551 1229 q 620 1334 586 1304 q 678 1369 654 1364 q 712 1374 703 1374 q 729 1375 721 1375 q 768 1364 739 1374 q 807 1219 838 1294 z "},"":{"ha":779,"x_min":3,"x_max":953,"o":"m 631 175 q 711 147 690 176 q 724 81 732 118 q 685 6 717 43 q 608 -44 654 -31 q 389 -94 524 -82 q 150 -92 268 -107 q 51 -57 79 -82 q 3 79 -4 -8 q 19 147 6 121 q 90 253 42 183 q 185 379 138 322 q 281 489 233 436 q 499 749 465 696 q 519 792 506 760 q 265 796 393 763 q 199 858 217 808 q 226 960 179 913 q 428 1069 294 1033 q 678 1094 553 1103 q 713 1081 700 1088 q 740 1057 725 1075 l 742 1031 q 765 1025 749 1028 q 789 1019 781 1022 q 807 1008 797 1015 q 825 989 817 1001 q 841 897 842 961 q 810 756 840 832 q 738 608 781 681 q 645 472 694 536 q 561 363 596 407 q 506 291 526 318 q 476 244 486 264 q 479 190 458 210 l 631 175 m 647 172 l 635 172 l 647 172 m 540 1229 l 536 1251 q 490 1415 508 1324 q 456 1517 458 1485 q 465 1568 453 1549 q 507 1592 476 1588 q 593 1560 571 1600 q 595 1539 596 1549 q 594 1519 594 1529 q 619 1464 603 1490 q 651 1413 636 1438 q 733 1503 706 1479 q 842 1531 785 1535 q 942 1503 907 1533 q 953 1414 982 1469 q 809 1258 861 1304 q 730 1192 757 1213 q 682 1156 703 1172 q 633 1135 661 1139 q 525 1168 563 1125 q 540 1229 511 1201 z "},"":{"ha":719,"x_min":3,"x_max":871,"o":"m 378 135 q 468 140 419 146 q 553 113 517 135 q 602 51 589 90 q 585 -42 615 13 q 523 -51 569 -43 q 415 -69 476 -60 q 284 -87 353 -79 q 156 -97 215 -96 q 3 -65 18 -103 q 122 231 -51 56 q 207 312 168 275 q 270 375 246 349 q 288 414 294 401 q 256 422 261 419 q 208 434 246 429 q 149 460 169 439 q 133 510 129 482 q 160 569 136 539 q 226 621 185 599 q 316 658 268 643 q 414 683 364 674 q 611 708 497 701 q 633 698 626 708 q 644 676 639 688 q 659 655 650 664 q 696 649 668 646 q 735 626 724 653 q 742 558 747 599 q 715 476 736 518 q 661 408 694 433 q 453 204 494 242 l 378 135 m 67 108 q 67 108 68 110 q 63 106 65 107 q 67 108 64 106 m 458 853 l 454 875 q 408 1039 426 947 q 374 1140 376 1108 q 383 1192 371 1172 q 425 1215 394 1211 q 511 1183 489 1224 q 513 1163 514 1172 q 513 1143 513 1153 q 538 1088 521 1114 q 569 1036 554 1061 q 651 1126 624 1103 q 760 1154 703 1158 q 861 1128 825 1157 q 871 1038 900 1093 q 727 882 779 928 q 648 816 675 836 q 600 779 621 796 q 550 758 579 763 q 443 792 481 749 q 458 853 429 825 z "},"":{"ha":628,"x_min":-49,"x_max":865,"o":"m 669 640 q 707 601 707 624 q 701 576 707 590 q 688 537 696 563 q 656 491 681 511 q 597 458 631 471 q 522 438 563 446 q 438 417 481 429 q 393 281 425 383 q 343 122 361 178 q 308 21 325 67 q 257 -89 272 -83 q 183 -147 225 -139 q 106 -139 142 -156 q 50 -88 71 -122 q 39 -21 29 -54 q 65 119 35 11 q 124 357 124 325 q 108 376 114 365 q 90 381 97 381 q 74 381 82 381 q 35 386 53 378 q -8 413 18 394 q -47 453 -33 431 q -14 529 -83 506 q 106 537 61 536 q 167 553 150 538 l 197 581 q 314 881 218 726 q 361 943 340 921 q 478 1033 408 994 q 597 1092 549 1072 q 689 1114 646 1111 q 808 1044 786 1122 q 827 1013 815 1021 q 849 997 839 1004 q 865 980 860 990 q 865 938 871 969 q 844 885 858 907 q 812 849 831 863 q 769 828 793 835 q 726 815 746 821 q 681 797 707 810 q 626 765 656 783 q 565 722 596 746 q 513 675 535 699 q 479 593 461 622 q 669 640 604 636 z "},"":{"ha":597,"x_min":38,"x_max":536,"o":"m 390 686 q 397 726 390 703 q 383 775 394 754 q 360 817 371 796 q 261 703 294 736 q 147 643 206 658 q 53 642 83 618 q 38 673 38 651 q 58 728 38 694 q 236 929 181 874 q 323 1013 292 985 q 378 1065 354 1042 q 432 1100 403 1088 q 533 1099 506 1132 q 506 1032 542 1068 l 506 1011 q 521 861 521 944 q 533 815 526 840 q 536 764 539 790 q 465 676 529 704 q 419 667 439 667 q 390 686 399 667 z "},"":{"ha":597,"x_min":92,"x_max":590,"o":"m 178 825 l 174 847 q 128 1011 146 919 q 93 1113 96 1081 q 102 1164 90 1144 q 144 1188 114 1183 q 231 1156 208 1196 q 233 1135 233 1144 q 232 1115 232 1125 q 257 1060 240 1086 q 289 1008 274 1033 q 371 1099 343 1075 q 479 1126 422 1131 q 581 1100 544 1129 q 590 1010 619 1065 q 447 854 499 900 q 367 788 394 808 q 319 751 340 768 q 269 731 299 735 q 163 764 200 721 q 178 825 149 797 z "},"":{"ha":715,"x_min":-26,"x_max":692,"o":"m 318 1092 q 354 1063 343 1067 q 456 1074 422 1063 q 497 1120 476 1097 q 540 1163 517 1143 q 668 1158 619 1196 q 692 1119 685 1144 q 581 964 692 1028 q 456 874 521 894 q 326 849 392 853 q 197 858 261 844 q -8 990 57 889 q -26 1125 -57 1072 l -26 1128 q -17 1201 -42 1168 q 67 1250 8 1233 q 275 1218 171 1281 q 303 1182 297 1197 q 314 1150 310 1167 q 324 1122 318 1133 q 335 1101 331 1111 q 342 1084 340 1090 q 336 1081 343 1078 q 319 1103 326 1085 l 318 1092 z "},"":{"ha":326,"x_min":1,"x_max":294,"o":"m 294 926 q 245 867 278 893 q 180 831 213 842 q 135 821 147 821 q 79 828 124 821 l 78 828 q 74 831 76 828 q 1 922 1 864 q 53 1019 1 971 q 203 1081 122 1088 q 249 1071 213 1081 q 254 1067 253 1067 q 294 926 333 1006 z "},"":{"ha":653,"x_min":-10,"x_max":622,"o":"m 229 1194 q 317 1219 274 1213 q 401 1217 357 1217 q 496 1193 446 1217 q 581 1126 546 1169 q 622 1032 615 1082 q 531 833 635 924 q 394 776 485 796 q 256 765 324 761 q 157 774 188 769 q 115 786 126 779 q 90 801 103 793 q 67 814 78 808 q -10 968 -17 865 q 54 1119 -4 1056 q 92 1149 75 1143 q 149 1172 110 1154 q 229 1194 189 1189 m 368 983 q 300 974 344 978 q 275 976 290 976 q 246 978 260 976 q 226 908 214 940 q 246 889 231 897 q 285 884 261 881 q 331 900 310 888 q 369 976 378 929 q 368 983 368 978 z "},"":{"ha":640,"x_min":-21,"x_max":615,"o":"m 204 -206 q 267 -253 226 -235 l 268 -247 q 329 -228 299 -247 q 376 -197 360 -208 q 417 -177 393 -185 q 467 -161 442 -169 q 521 -158 493 -153 q 570 -176 549 -164 q 603 -206 592 -187 q 615 -249 615 -224 q 599 -306 615 -274 l 576 -326 q 563 -348 569 -337 q 543 -376 557 -358 q 501 -410 529 -393 q 436 -449 472 -428 q 347 -481 400 -469 q 239 -493 293 -493 q 46 -454 136 -493 q -14 -383 8 -437 q -21 -186 -50 -299 q 64 -72 -1 -111 q 218 -8 125 -36 q 311 63 281 10 q 339 101 324 82 q 492 108 424 158 q 488 -4 515 65 q 406 -110 460 -72 q 333 -149 378 -128 q 261 -181 289 -171 q 204 -206 215 -194 z "},"":{"ha":535,"x_min":4,"x_max":513,"o":"m 4 976 q 48 1038 17 1004 q 114 1086 79 1071 l 146 1110 q 261 1140 222 1157 q 292 1122 281 1133 q 307 1083 304 1111 q 308 1068 303 1078 q 320 1042 314 1058 q 336 1014 326 1026 q 394 1031 365 1018 q 417 1050 406 1040 q 441 1069 428 1060 q 469 1083 454 1078 q 496 1086 485 1088 q 513 1036 522 1081 q 450 963 500 1000 q 367 897 390 906 q 282 894 332 883 q 259 906 271 896 q 233 928 247 917 q 174 944 200 953 q 139 917 157 932 q 104 890 121 903 q 46 871 67 861 q 22 888 33 876 q 4 976 -25 911 m 78 1063 q 78 1062 74 1058 q 93 1071 83 1065 l 78 1063 z "},"":{"ha":636,"x_min":196,"x_max":794,"o":"m 547 771 q 547 794 547 771 q 540 864 547 817 q 531 969 532 911 q 551 1062 529 1026 q 606 1113 574 1097 q 676 1127 639 1129 q 742 1105 713 1125 q 788 1047 772 1085 q 794 956 804 1010 q 731 781 797 876 q 698 731 713 756 q 658 694 683 707 q 608 683 633 681 q 565 705 583 685 q 547 771 547 725 m 231 740 q 197 881 196 814 q 219 998 197 947 q 277 1079 240 1049 q 353 1111 314 1110 q 428 1080 393 1113 q 483 974 464 1047 l 468 938 q 469 933 469 935 q 471 929 469 931 q 449 856 453 893 q 429 782 444 818 l 378 704 q 340 668 364 681 q 291 658 315 656 q 249 679 267 660 q 231 740 231 699 z "},"":{"ha":863,"x_min":-7,"x_max":849,"o":"m 425 353 l 121 357 q 115 356 118 356 q 106 354 111 356 l 104 357 q 40 370 68 357 q 0 403 13 383 q -7 445 -12 422 q 31 486 -1 468 l 60 489 q 132 567 60 547 q 211 581 165 576 q 311 590 257 585 l 407 593 l 481 593 q 561 592 521 593 q 722 592 650 610 q 824 551 794 575 q 849 494 853 528 q 792 419 844 460 q 763 406 774 414 q 425 353 704 353 z "},"":{"ha":1031,"x_min":-4,"x_max":1044,"o":"m 751 596 q 831 608 783 606 q 933 599 879 610 q 1016 567 986 589 q 1044 511 1046 544 q 990 435 1042 478 q 963 419 972 429 q 844 376 932 389 q 682 358 756 364 q 530 348 608 351 q 377 342 451 344 q 238 339 303 340 q 149 335 174 338 q 122 333 125 333 q 113 332 118 333 l 111 335 q 47 344 75 332 q 5 376 18 357 q -3 417 -8 394 q 32 460 1 440 l 61 464 q 129 546 58 522 q 500 586 215 575 q 596 592 549 589 q 751 596 706 596 z "},"":{"ha":332,"x_min":-3,"x_max":318,"o":"m -3 732 l -1 754 l -1 760 l 19 797 q 35 825 26 811 q 73 885 38 842 q 135 960 108 928 l 156 985 q 173 1004 165 994 q 193 1028 181 1014 q 231 1053 206 1042 q 279 1063 257 1065 q 313 1041 301 1060 q 317 982 325 1022 l 318 982 q 317 978 317 981 l 317 976 q 283 757 286 846 q 292 796 290 814 q 294 774 293 778 q 282 736 290 754 l 283 729 q 268 706 278 717 q 194 627 239 654 q 106 601 149 600 q 31 633 63 603 q -1 725 0 663 l -3 732 z "},"":{"ha":332,"x_min":42,"x_max":356,"o":"m 354 1008 l 356 988 l 354 981 l 349 974 q 335 943 343 958 q 319 914 326 928 q 315 896 318 907 q 225 772 285 849 l 206 746 q 189 724 196 735 q 169 699 182 714 q 131 671 157 685 q 84 658 106 657 q 49 677 63 658 q 43 738 36 696 l 42 738 q 43 742 43 739 l 43 743 q 68 967 65 864 q 65 948 65 956 q 64 932 65 940 q 60 935 61 925 q 56 950 58 946 l 67 988 l 65 994 q 81 1019 72 1011 q 151 1103 107 1074 q 239 1135 196 1133 q 315 1107 282 1136 q 353 1015 349 1078 q 354 1008 356 1013 z "},"":{"ha":400,"x_min":8,"x_max":367,"o":"m 319 100 q 328 90 324 94 q 335 79 332 85 l 360 54 q 363 21 358 38 q 366 -20 368 4 q 342 -75 364 -44 q 290 -131 319 -106 q 161 -225 236 -200 q 18 -201 79 -253 q 8 -172 8 -182 q 18 -143 8 -161 q 41 -101 25 -125 q 71 -57 57 -78 l 64 -51 l 61 -54 q 57 -46 57 -56 q 43 -33 53 -43 l 42 -33 l 31 -24 l 28 -17 q 39 101 -11 56 q 196 147 93 153 q 272 129 221 146 q 291 113 282 119 q 307 100 300 106 l 313 104 l 319 100 z "},"":{"ha":636,"x_min":-3,"x_max":603,"o":"m -3 732 l -1 754 l -1 760 l 19 797 q 35 825 26 811 q 73 885 38 842 q 135 960 108 928 l 156 985 q 173 1004 165 994 q 193 1028 181 1014 q 231 1053 206 1042 q 279 1063 257 1065 q 313 1041 301 1060 q 317 982 325 1022 l 318 982 q 317 978 317 981 l 317 976 q 283 757 286 846 q 292 796 290 814 q 294 774 293 778 q 282 736 290 754 l 283 729 q 268 706 278 717 q 194 627 239 654 q 106 601 149 600 q 31 633 63 603 q -1 725 0 663 l -3 732 m 596 1022 l 596 1018 q 596 850 586 914 q 596 876 594 864 q 600 873 599 881 q 602 859 601 865 q 596 835 603 853 l 599 829 q 588 813 593 815 q 494 747 563 764 q 382 757 426 732 q 353 842 332 785 q 353 845 354 844 q 351 850 351 846 q 349 865 351 854 l 349 869 l 353 875 q 367 908 360 896 q 374 924 374 921 q 381 936 375 926 q 442 1015 396 963 l 456 1035 q 478 1063 468 1046 q 553 1086 510 1094 q 584 1068 571 1083 q 594 1022 597 1053 l 596 1022 z "},"":{"ha":644,"x_min":156,"x_max":776,"o":"m 443 763 l 444 767 l 444 768 q 489 985 485 907 q 487 968 488 976 q 483 953 486 960 q 478 956 479 946 q 479 972 478 965 q 488 997 482 986 q 490 1013 493 1007 q 499 1024 494 1019 q 507 1036 503 1029 q 587 1110 540 1086 q 676 1130 633 1133 q 748 1095 718 1126 q 776 1001 778 1064 q 776 997 775 999 q 776 992 776 996 q 775 983 775 989 q 774 967 776 978 q 754 935 764 953 q 733 903 744 917 q 692 845 729 885 q 628 774 656 806 l 604 751 q 585 732 594 742 q 563 709 576 722 q 524 686 550 696 q 477 680 499 676 q 444 703 456 683 q 444 763 433 722 l 443 763 m 164 951 q 160 956 161 949 q 158 969 158 964 q 160 981 157 974 q 165 994 163 988 q 175 1015 157 1007 q 272 1075 201 1063 q 383 1058 336 1088 q 407 972 431 1029 q 408 970 406 971 q 409 965 410 969 q 411 950 408 961 l 410 944 l 407 940 l 397 919 q 388 903 392 910 q 383 893 383 896 q 375 881 382 890 q 310 804 356 853 l 294 786 q 271 760 279 775 q 194 740 236 731 q 157 806 150 750 l 156 806 q 156 808 154 807 l 156 810 q 165 979 172 913 q 165 965 165 972 q 164 951 165 958 z "},"":{"ha":618,"x_min":11,"x_max":608,"o":"m 361 -122 q 361 -99 361 -122 q 353 -29 361 -76 q 344 76 346 18 q 365 169 343 133 q 420 220 388 204 q 490 234 453 236 q 556 212 526 232 q 602 154 586 192 q 608 63 618 117 q 544 -111 611 -17 q 512 -162 526 -137 q 472 -199 497 -186 q 422 -210 447 -212 q 379 -188 397 -208 q 361 -122 361 -168 m 44 -153 q 11 -12 11 -79 q 33 105 11 54 q 91 186 54 156 q 167 218 128 217 q 242 187 207 219 q 297 81 278 154 l 282 44 q 283 40 283 42 q 285 36 283 38 q 263 -37 267 0 q 243 -111 258 -75 l 192 -189 q 153 -225 178 -212 q 105 -235 129 -237 q 63 -214 81 -233 q 44 -153 44 -194 z "},"":{"ha":547,"x_min":-129,"x_max":661,"o":"m 190 1047 q 193 1064 190 1047 q 206 1106 196 1081 q 236 1156 215 1132 q 286 1201 257 1179 q 342 1231 315 1222 q 413 1192 406 1253 q 431 1174 418 1176 q 456 1168 444 1172 q 476 1092 485 1158 q 451 876 460 1001 q 422 600 442 750 q 250 -65 376 224 q 230 -105 242 -81 q 200 -150 218 -129 q 82 -179 153 -201 q 48 -110 82 -149 q 14 -37 14 -71 q 100 414 68 144 q 126 638 114 525 q 154 839 138 751 q 177 970 171 926 q 190 1047 183 1014 m 271 467 l 6 471 q 0 469 3 469 q -7 468 -3 469 l -8 471 q -85 487 -53 471 q -128 526 -118 503 q -123 574 -139 549 q -54 619 -107 600 l -29 622 q 164 719 -8 699 q 244 722 164 719 q 307 722 244 722 q 374 721 340 722 q 397 724 385 724 q 445 731 410 725 q 533 727 481 738 q 621 691 586 717 q 661 626 656 665 q 622 538 667 588 q 576 517 599 529 q 515 492 554 506 q 271 467 439 467 z "},"":{"ha":433,"x_min":-160,"x_max":631,"o":"m 178 1040 q 181 1057 178 1040 q 192 1100 183 1074 q 219 1151 200 1126 q 267 1197 239 1175 q 322 1231 296 1219 q 394 1193 385 1254 q 413 1176 400 1178 q 439 1172 426 1175 q 463 1094 469 1163 q 437 878 450 1004 q 399 600 424 751 q 222 -71 339 232 q 204 -111 214 -86 q 178 -158 194 -136 q 60 -192 135 -214 q 49 -155 60 -171 q 24 -122 38 -139 q -14 -51 -12 -82 q 122 628 71 285 q 168 944 163 883 q 178 1040 174 1006 m 244 179 q 202 176 244 179 q 103 169 160 172 q -17 157 46 165 q -113 168 -79 149 q -159 217 -147 188 q -156 279 -171 247 q -90 335 -142 311 q 29 369 -39 358 q 167 386 97 381 q 308 396 238 392 q 447 415 378 400 q 552 407 515 429 q 588 347 589 385 q 548 269 586 310 q 433 208 510 229 q 244 179 329 186 m 456 601 l 406 601 q 407 602 397 601 q 460 606 417 603 q 456 606 464 606 q 437 606 449 607 q 412 605 425 606 q 393 603 399 604 l 376 600 q 135 519 333 524 q 51 522 86 519 q -45 569 -15 533 q -44 642 -75 606 q 21 696 -40 672 q 90 719 53 711 q 183 740 126 726 q 317 773 239 754 q 476 796 396 792 q 595 761 557 792 q 630 697 633 731 q 582 633 626 663 q 456 601 538 604 z "},"":{"ha":589,"x_min":64,"x_max":538,"o":"m 440 750 q 453 749 447 747 q 477 740 458 750 q 513 712 496 731 q 538 675 531 693 q 536 606 550 642 q 493 533 539 567 q 488 522 490 531 q 476 499 486 513 q 481 461 478 479 q 483 419 485 443 q 457 378 486 394 q 383 355 428 361 q 283 352 338 349 q 181 372 228 356 q 64 526 40 418 q 72 568 69 549 q 119 678 82 642 q 214 736 156 715 q 440 750 353 782 z "},"":{"ha":981,"x_min":1,"x_max":957,"o":"m 294 -53 q 245 -112 278 -86 q 180 -148 213 -137 q 136 -158 147 -158 q 79 -151 125 -158 l 78 -151 q 74 -149 76 -151 q 1 -58 1 -115 q 53 42 1 -8 q 203 103 122 108 q 249 92 213 101 q 254 88 253 88 q 294 -53 333 26 m 656 -46 q 647 -60 656 -46 q 606 -97 639 -75 q 539 -128 574 -119 q 490 -137 504 -137 q 440 -132 476 -137 l 439 -132 q 435 -129 438 -132 q 367 -72 376 -106 q 377 -4 357 -37 q 438 56 397 29 q 506 87 478 82 q 545 92 535 92 q 564 92 556 93 q 610 82 586 89 q 615 79 613 79 q 665 17 658 50 q 656 -46 672 -17 m 794 -94 q 744 -52 751 -78 q 752 -2 738 -26 q 796 41 767 22 q 852 65 825 60 q 890 67 879 69 q 912 62 900 65 q 926 58 924 58 q 956 -33 983 17 q 869 -94 932 -78 q 834 -101 844 -101 q 799 -97 824 -100 l 797 -97 l 794 -94 z "},"":{"ha":593,"x_min":18,"x_max":583,"o":"m 442 842 q 475 851 464 847 q 506 849 486 854 q 544 830 526 844 q 575 794 563 815 q 583 693 601 744 q 536 576 589 626 q 400 481 469 519 q 261 397 331 442 q 279 358 258 381 q 333 306 300 335 q 468 168 431 218 q 458 92 475 124 q 421 58 442 61 q 372 75 404 67 q 301 96 340 83 q 217 126 261 108 q 135 175 174 144 q 18 351 44 243 q 22 370 18 360 q 28 392 25 381 q 32 415 32 403 q 25 443 32 428 q 94 564 25 494 q 121 592 110 579 q 199 662 161 626 q 278 731 238 697 q 442 842 375 810 z "},"":{"ha":661,"x_min":-17,"x_max":588,"o":"m 360 436 l 325 471 q 239 551 283 514 q 154 635 194 588 q 149 749 121 692 q 197 829 161 788 q 217 843 207 836 q 317 866 276 886 q 385 810 357 846 q 411 780 392 801 q 455 728 431 758 q 506 663 479 697 q 553 594 532 628 q 588 481 600 514 q 569 442 582 467 q 565 350 575 403 q 547 311 556 324 q 519 283 538 299 q 413 246 481 263 q 292 209 344 229 q 188 169 240 189 q -6 113 50 117 q -16 152 -8 128 q -16 190 -24 176 q -3 217 -8 204 q 15 251 3 229 q 71 301 28 272 q 162 353 114 329 q 254 394 210 376 q 319 419 299 411 l 360 436 z "},"":{"ha":788,"x_min":-60,"x_max":939,"o":"m 459 799 q 483 842 459 799 q 533 937 507 885 q 575 1016 558 989 q 597 1049 592 1043 q 606 1063 603 1056 q 637 1124 603 1094 q 750 1169 671 1154 l 760 1169 q 864 1153 835 1167 q 939 1067 918 1128 q 927 1017 943 1040 q 894 974 911 993 q 871 882 911 929 q 767 763 813 826 q 659 615 721 700 q 524 413 597 529 q 378 178 451 296 q 72 -267 192 -119 q 4 -276 49 -296 q -58 -208 -42 -257 q -42 -90 -81 -151 q 206 378 53 125 q 342 601 274 489 q 459 799 411 713 z "},"":{"ha":892,"x_min":-212,"x_max":933,"o":"m 539 771 l 583 763 q 635 766 601 763 q 703 771 669 769 q 783 749 783 774 q 801 718 789 724 q 826 713 814 713 q 847 710 839 713 q 851 689 856 708 q 875 603 889 639 q 822 546 861 567 q 731 520 783 525 q 638 526 678 515 l 600 526 q 521 526 560 529 q 442 528 482 524 q 407 426 424 489 q 513 450 460 436 q 621 469 567 464 q 744 440 693 464 q 775 434 760 433 q 808 425 790 435 q 678 286 847 333 q 508 253 594 264 q 385 236 422 243 q 442 86 393 135 q 471 56 457 71 q 474 54 472 54 q 476 53 475 54 l 478 53 q 575 71 535 60 l 613 83 l 633 93 l 649 104 q 685 137 668 121 q 732 160 701 153 q 790 164 763 168 q 835 142 818 160 q 843 92 851 125 q 758 -14 797 14 q 590 -81 686 -69 q 400 -68 494 -93 q 340 -47 368 -62 q 192 49 256 -14 q 110 200 129 113 l 106 224 q -135 208 57 221 q -211 256 -199 221 q -162 319 -226 292 q -32 352 -106 342 q 103 372 42 363 q 139 535 111 450 q 103 531 135 533 q 24 522 71 528 q -74 536 -22 517 q -98 590 -108 565 q -47 631 -87 615 q 42 656 -6 647 q 115 670 89 664 q 145 678 142 676 q 151 680 149 679 q 156 682 153 681 q 168 686 160 683 q 246 890 196 818 q 450 1044 308 982 q 715 1103 568 1097 q 918 1049 871 1107 q 933 978 946 1015 q 882 910 919 940 q 790 862 844 881 q 681 847 736 843 l 539 771 m 675 529 q 678 528 676 528 l 707 529 l 675 529 z "},"":{"ha":767,"x_min":100,"x_max":781,"o":"m 259 866 q 251 848 259 866 q 227 795 243 829 q 197 738 211 761 q 165 712 182 714 q 126 711 149 710 q 100 771 82 715 q 126 856 118 826 q 140 903 135 885 q 175 983 146 921 q 135 987 153 981 q 115 1010 118 993 q 120 1039 111 1028 q 146 1060 129 1050 q 187 1079 163 1071 q 242 1094 211 1088 q 345 1112 315 1111 q 389 1108 375 1113 q 412 1096 403 1103 q 421 1080 421 1089 q 410 1066 421 1071 q 397 1052 400 1061 q 389 1033 393 1043 q 360 1007 381 1008 q 331 1001 344 1000 q 315 997 317 1001 q 290 938 304 972 q 259 866 275 903 m 179 988 l 179 989 l 179 988 m 447 746 q 381 724 433 724 q 332 751 329 724 q 393 949 338 803 q 458 1058 424 1024 q 550 1092 485 1101 q 576 1086 567 1090 q 583 1069 581 1078 q 575 1056 586 1061 q 574 1054 575 1054 q 568 975 582 1021 q 622 1042 592 1007 q 677 1090 653 1076 q 717 1106 701 1103 q 747 1106 733 1108 q 781 1074 783 1101 q 697 754 743 868 l 697 753 q 636 726 686 726 q 589 751 586 726 l 589 763 q 593 783 593 779 q 610 844 593 803 q 569 811 582 817 q 527 804 550 804 q 501 812 504 804 q 496 823 497 819 q 493 828 494 826 q 488 838 489 829 q 447 746 468 775 z "},"":{"ha":817,"x_min":72,"x_max":815,"o":"m 444 342 l 207 346 q 201 344 204 344 q 194 343 199 344 l 193 346 q 116 359 149 346 q 73 393 83 372 q 78 438 63 414 q 147 481 94 461 l 172 483 q 228 551 182 519 q 365 594 275 583 l 446 597 l 508 597 q 575 596 542 597 q 726 592 649 614 q 815 492 821 563 q 768 413 813 456 q 722 392 744 404 q 661 367 700 381 q 444 342 585 342 z "}}}
